<mxfile host="app.diagrams.net" modified="2023-12-14T12:33:52.708Z" agent="Mozilla/5.0 (Windows NT 10.0; Win64; x64) AppleWebKit/537.36 (KHTML, like Gecko) Chrome/119.0.0.0 Safari/537.36 Edg/119.0.0.0" etag="Yb5gsyBrYr0i695MPtga" version="22.1.8" type="github">
  <diagram name="Page-1" id="wBg94lOSWVLJq2pcN_oE">
    <mxGraphModel dx="746" dy="467" grid="1" gridSize="10" guides="1" tooltips="1" connect="1" arrows="1" fold="1" page="1" pageScale="1" pageWidth="850" pageHeight="1100" math="0" shadow="0">
      <root>
        <mxCell id="0" />
        <mxCell id="1" parent="0" />
        <mxCell id="9vBlSOGnF3i_3enI5a85-1" value="" style="rounded=0;whiteSpace=wrap;html=1;strokeColor=none;" vertex="1" parent="1">
          <mxGeometry x="40" y="40" width="690" height="440" as="geometry" />
        </mxCell>
        <mxCell id="9vBlSOGnF3i_3enI5a85-2" value="" style="shape=image;verticalLabelPosition=bottom;labelBackgroundColor=default;verticalAlign=top;aspect=fixed;imageAspect=0;image=data:image/jpeg,/9j/4AAQSkZJRgABAQEASABIAAD/4gIYSUNDX1BST0ZJTEUAAQEAAAIIAAAAAAQwAABtbnRyUkdCIFhZWiAH4AABAAEAAAAAAABhY3NwAAAAAAAAAAAAAAAAAAAAAAAAAAAAAAAAAAAAAQAA9tYAAQAAAADTLQAAAAAAAAAAAAAAAAAAAAAAAAAAAAAAAAAAAAAAAAAAAAAAAAAAAAAAAAAAAAAAAAAAAAlkZXNjAAAA8AAAAGRyWFlaAAABVAAAABRnWFlaAAABaAAAABRiWFlaAAABfAAAABR3dHB0AAABkAAAABRyVFJDAAABpAAAAChnVFJDAAABpAAAAChiVFJDAAABpAAAAChjcHJ0AAABzAAAADxtbHVjAAAAAAAAAAEAAAAMZW5VUwAAAEYAAAAcAEQAaQBzAHAAbABhAHkAIABQADMAIABHAGEAbQB1AHQAIAB3AGkAdABoACAAcwBSAEcAQgAgAFQAcgBhAG4AcwBmAGUAcgAAWFlaIAAAAAAAAIPdAAA9vv///7tYWVogAAAAAAAASr8AALE3AAAKuVhZWiAAAAAAAAAoOwAAEQsAAMjLWFlaIAAAAAAAAPbWAAEAAAAA0y1wYXJhAAAAAAAEAAAAAmZmAADypwAADVkAABPQAAAKWwAAAAAAAAAAbWx1YwAAAAAAAAABAAAADGVuVVMAAAAgAAAAHABHAG8AbwBnAGwAZQAgAEkAbgBjAC4AIAAyADAAMQA2/9sAQwAEAwMEAwMEBAMEBQQEBQYKBwYGBgYNCQoICg8NEBAPDQ8OERMYFBESFxIODxUcFRcZGRsbGxAUHR8dGh8YGhsa/9sAQwEEBQUGBQYMBwcMGhEPERoaGhoaGhoaGhoaGhoaGhoaGhoaGhoaGhoaGhoaGhoaGhoaGhoaGhoaGhoaGhoaGhoa/8IAEQgFAAJAAwEiAAIRAQMRAf/EABwAAQABBQEBAAAAAAAAAAAAAAABAgMEBQYHCP/EABkBAQEBAQEBAAAAAAAAAAAAAAABAwIEBf/aAAwDAQACEAMQAAAB9/AAAAAAAAAAAAAAAAAAAAAAAAAAAAAAAAAAAAANWbRppNw1NZszmjpXM5puTgTvnnHUm+AAAAAAAAAAAAAAAAAAAWuEPQHnfUm7OOOxPPj0FzW3M5o6DftVtQAABzPTDmed9IHH5XSSTynV82a7YXNoZvK9VoTQ5+RtTYAAAAAAAAAAAAAAAAAAAeXeo0Hgvu2NcOH3GPsjovKvVeaNbk7HenH1dcOD7y3cAAAAAAAAAAAAAAAAAAAAAAAAAAAAAAAAAAAAAAKKwAAAAAAAAAAAAAAAAAAAAAAAAAAAAAAAAAAUVgAAAAAAAAAAAAAAAAAAAAAAAAAAAAAAAAAAAAAAAAAAAAAAAAA02qOuWdebZznRgsF8xzIcv0pWAAAAAAAAAAAAAeWnqSx5qeogAAAAAAAAAAAAAA8Eu7TRG4no8Aw8eznGJznQ5ZvtJq5OX7fmuwN/2/jnsYAAAAAAAAAAAA0u68cPI/qXXcMeyAAAAAAAAAAAAAAAAAAAAAAAAAAAAAAAAAAAAAAAAAAAAAAAAAAAAAAAAAAAAAAAAAAAAAAAAAAsVXBbXBbXBbXBbXBbXBbXBbXBbXBbXBbXBbXBbXBbXBbXBbXBbXBbXBbXBbXBbXBbXBbXBbXBbXBbXBbXBbXBbXBbXBbXBbXBbXBbXBbXBbpvCSCVukvLIvLIvLIvLIvLIvLIvLIvLIvLIvLIvLIvLIvLIvLIvLIvLIvLIvLIvLIvLIvLIvLIvLIvLIvLIvLIvLIvLIvLIvLIvLAvrCL6xXVxEi3Xji9brlAAhMCqmQABMCQAJgSKCIkqJIAATEimqgRMKIgkRMTZEolTEkTFSQmFTEgIIWZQkRMLSJZomzecq7iZXUY+Rjk10Vyyaw2bgfOT6EjyXozt3EVnbR5L53X08+c8/qe+vDtwvrThY4vduDg71xvZImJqJIIkRIAAAUzAglQkECSyJiZSAqpqETAmJAQFmJJTTVCwFs2lPFycrFytc2PkY5NdFc6nlun5dOS0+/0y+N+t6vs0vc71mvX50dV0rrmtlYwvRxO25LW8PYen1+yx7p1ey4s3nuPhvuTkLJAFBESGHrtjjpTkaraGqzMKyuzrw5jYZeq2ypibESEEsgiYqSAqYkBAWYEiJpWaK7EWqaqee8nKxcrXJj5GOTXRXOo5Xq+NTRWuXw16vX6PRp6tZwNlb5r09OJ5/V1Oryqc9PJY77N2w31V3ndMtzzeTujQe9+Qev3kElEkSUEIkFryA9kp8/wT06PMN6dk4Tq5c+EkixCSCZYmBMwAExICAsxMJFNUKw8jHlRNPPWTlYuVrkx8jHJrorlcd2PMS8HxvptR5lo/abNnn+7v4V52HW8T0vm9uZHKXOdOx5jb+b9cdhrvI/Ud/NnZer0p0ft3y79RXkEAkipACa7C3yXlsLtIXnaugSecdxnwsTE1IQgRMTLMSBIiYExICIksxMJEqVx7cp1FNdEuTlYuVpkx8jHJrouc9RyXW6ROL3t3V9c7Vq7lmzjCyLHkvs/ifG+xuUXsfXb4/O0vWGV0GLnXi1sL+fWT7B5j6deCYsAlEgAERVBETEqAmAJWIkQkU1EsSETEoTCpiQEELVAizexltxLnqKLlpcvKxcrTJj5GOTXRcnTRb3QSaHHqjrm5a5Xl/Rv6lPldXffW63mt9hpgYPqTw9efzvdZ65hdfpuymeD3Omyecs/fcF3l4kWBAEkEgU06s2qmmWtjXytbrskCJglEkTCUkRVj4abNRYXKmmkuMDFTcsawuwUXLLePct8dUppVRXQuVlYuVpkx8jHJrouc9Rz3Rc3Jz/I7Tk/T6KLONT6fRm7C1mW8dznpePxlR3fLaDLqrW5O874xqdjh67ZfYcDn58dv6T5J654/JExM4AAlEiJgwNV0cHGZPUzLxjs1mn3AAARIU1UzKlBga/oJOLo7cafU9bJqee7cnK09YXS7paLRE6iJiKaaqVysrFytMmPkY5NdFcrkeu4HrviMem77/bqsLYWl21ymEps5mtNnResFVm4lqx8rFrW3LV6s73/wf3jy+Yl5/OAAmJIiYNRx3Y8Ym6q567Ouv3XG9jZMJBBKJCAmEok1/J9ZyaXNfVsl1PUaXcJoKdlry/GFnV3uNdtc2ImHUUV0xFNVMuVlYuVrkx8jHJrorlcP3HCd6eb1Mb3e21Tg5Rsb2PkFWvz8JzlV4R1sbmFkub2NRfdcb0XH9fOdh7z4H7558JHn88okATElMVUiCWUSRNNVAiEgEJgiqmqUgTNNQiYExICJim2zCOekTBFMxCiqmXKysXK1yY+Rjk10XObHAd/z2nfjmo6vUer1+c9fjdTxng3d5d101OD1VtOTx+uwzl46TMl0F7pNfXn/AEF3P55o+g/L/UcMQxxJgkkRMEU1UqkETTEV0VEiwQSACJhLKJImKkgKmJAJsXscpTE6RMRRMSsUV0mTlYuVpkx8jHJror5oEoLKJBAiVkokAAgEokJgJgSkiApmCpxcFNxRi66Xd1YMGfODnWIkRIISUzFUpAmYACYkJpq3blzYiYVTVTERMKpqiMjKxcrXJj5GOTXRXzSLRcmKqhIhIhMAEgAhIiq1UVkkTAmYERNMsizD1+7GDRnp1x+b0Vdmk3iEkCJgkECWYmCYxtGnTOWheqnn6jfWrtkiJpnSJgUzEQiVimqDIysXK0yY+Rjk1U1c21Nq9XlXGYfs9nkjrukOQ9p+Xvbzstfg8sedL3nZ9K1/OXsByTs7RyLvfOD6OqsXovzTUqQmJpIglSizQed+qaJdTz3V3IwbWyybNXmW98cTssuTD1HX607gkpqRLIKMPP8AP8s+uuYOX31NdDu5tGLRzc2Jh1ETBAimJERVSuRlYuVpkx8jHJqpq5uNes3q+a+44f16z4/980/pR5VMSe98JXxpseW9a6c8+zOE7cr+Yfqfzw4/t9zpj6CvWb0XpipVUBTNKkwTAKaqYBVdFaETYAIJBTVCWYkWfJvXsbz48NtOtr768d1/uNrbvxXtu0iVE0zpEwREikREVUrkZWLlaZMfIxyaqaubjXrN6vn/AFPpu7s8XbkarF7/AGJp3jfrR0fKe7+ZnJ9TXuzwvO3I02h9T9iMa7l4kXqorWCCBLElkQSomEB0roqSYTZCYJiQBCJlSAkTEVRTKWImJUTBETBCYilMERMLkZWLlaZMfIxyaqaubjXrN6vD9dv8iz5j9w83yj2Pxr3ry80fp13fnnPlvc7I3frHxX9knzhu+X3h3vY8BoD6dtV0S366QiaRMSImlVNUSzGJZTYub2C7SuitBFkgAIkiYmWJgTKRZroIkWImJVNUFIFNURETApqpXIysXK0yY+Rjk1U1c3GvWb1fMddfWWdJq42JzvH9noTzPuMTanonL9PWeIb3K+kDx7B9N4E8B+n/AJy6c+sMSmuW+iSIFmJhITTKC2tXuoTVNqVXRWiE2ImCQRKAiqWJioEFEIWYmBExKpqpETAiUU01QQQuRlYuVpkx8jHJqpq5uNes3q+a/Z8eizz3vtftDU+n8DzB57xf1XUdd888XnHmnu/NfQJ5O902B8+ei98IxMzDL5E6kIiaVQSgY/n/AKDqXPL43b3l8szO3muSt9nKebPVME819m0fQFYImJlkCmaSlMLNNVIiYlU1QUpgEERVTERVSuRlYuVpkx8jHJqpq5uNes3q+aO94XurD5o96OR9D4STq+7+ZPpo+cPasvjTU/TfxZ9tFHnvcePHoHXeWepjDzMOW8iSQRExLCJUCYmHIOlVNaETYiREgBFUTKIIhBESVEwImJVNVIiYETAoroiaaqVyMrFytMmPkY5NVNXNxr1m7XzZ6F5zv7PGvccMc3sdH64ZXnHAZh7htO58VNb9CfPP0MNDvhxnUZYYWbgy36okUzCzSSgATEwgKrorQLAESIklmYVEJimKqBFULAhEwqmqkhMCJgUV0RNNVK5GVi5WmTHyMcmqivm42Pm4dY2Hm1GAzxZuyIiobtpBu50Y3jRjeNGNjbsZhXIImmUFAAJhAVVTUhMWTEwSCJSqBEEqiqCAsAmiqJYiqCImBEwRTVTCJhcjKxcrTJj5GOLlq7z1TRdWWIvosL9BbXxYXxYXxYX1WF+JbMZBLV1NKSVTJQAAMHU9JrU1teyumlu7C7Zz97ajU7Sc80dOxvS5hFghZgiIwufOrnQXTczpKV3kc/cjdxqbJvHPDoKcHPVRVTCBcjKxcrTJj5GOLlu5z0Ax73gWmXZrfYeb0YmZyuDn36uxcr0YBQiiRAE0ys0zTAKAABRpNz5Inp2l4/oTqcbSaGzuZ8s2Z3+98j9ZW5IkARMKiYjHVYy02M2C0vCNfsIjEryIXAu5OQY+QgiJiIiqlcjKxcrTJj5GOLlu5z1CRqfEvc/Ed8Pb9hy3T49W/MPQfHJz655t6bpvN6+Hr63I9WPIXq+tXz/pbPRHlnUbXsy/VTVLECgAAATEwmPkC42ZRWlMzFiUyoLAImEs0zTVjzj0qmPI8T1umvNdL7LMni279LhfJ9x6FTHk3o20zVqIliJgiJhcjKxcrTJj5GOLlu5LEkscb2VODx3VejcD9Dmxvc70b6nyL8nwvsETUAAiCdJgAAAAATEwgKqprQTYgABBJEqmqipVUwhC1UzBEVRKpqpIApqgiJiIiYXIysXK0yY+RjkXKLkoSwkAgAUBAFNVMoKAAAAABMTDkS6TJCYsAABYmIiYVFMV2xEwtVMxCBVMwQBE0kEQiYXIysXK0yY+Rji5bqlljDKjGS5M4oymKrKYpMqMYZE4wyacemXKYxcljDJYwyWMMljDJYwyWMMpjEyKsWoyKsVWSxiZLGGSxhksaJcqMZWVGMjKt2KTJnFLkMeDIjHiXJjHgyGPBkRji+xoMmCXIysXK0yY+RjkXKLkoCEykSIRZIImJECxEoBQAAAAAJlKJRYAAAIWUTESipEUxNIiZWICCJUBAIiYiCBEwuRlYuVpkx8jHFy1dlicDOExjmTAAACAJYU1KAAAAAAlUiUWAAAAIlLExNAERCmYUCImIiULETABETBETEqJgyMrFytMmPkY4uW7kvL2OmunJ2evF4BEkTEkErFKZYkAAAAAEqkioqAgAAAhRMBYhKoRFKJWFVIIlRMERMCJgRNMImFU1Uxk5WLla5MfIxxXbplxr3jnWHY3fINkd7leT7M7erzeyesUeS7JfTdZ57jHslnldNHoVHnFCeuB0AAIJlUiUWTAAAAAETKFgEEyqaqCESqJgRVRLMTSImBEwKZpiYktMVUmTlYuVpkx8jHIuW65dZtAAQhcRlxLrdpBAUCJiQAABKUmUUCAAAAESoAIBCUqiYIIUmBCJUTBAETERTVSTAsU1UxlZWLla5MfIxyK6K5ZcheOpjlshegc8joYwNgsRUACJImJABBMzKJhYAAAAACxIAgCJhZiYimmqFiUkQECWImCAImCIIpSWKaqTKysXK0yY+RjkTFUuNjWNyutycnXyqdiMfJw6EzpjFXLY+QDnDopt45mFkvVaTbJeYuVYarPLxrTZIkLeCbJp7Jvmk2heklCwABEpYiYqIJUAiYiEwsAgECKSAFimqiMvKxcrXJj5GOIVc9eE5ftcV49j+0THl9r1bCON5P2seJX/ZKjxfZ+qQcfyHquWvhlPutSeJb70+qvNOZ9wJ4pvvToPEJ9vg8bwPdB5bp/aRieWep5h5lg+tl8o6jrpgLAACYVExEU1RSmqJUTAiYlApiRAKUxFKSxExERMVlZWLlaZMfIxyi5bq57mUExMEokARMExEiZlBIIqZpEhABCyCCYIEigQABEwswmKaULJABESlRNJAETBETERKFRNMRExbl5WLlaYsfIxyiYr560VxcW1RdhLdTLLGLfoL2JucIpoY1bLDyZSvaaPehCWYmCUSQmCUSCCUCRYAAABExMsRNNIiZUxCIksISwmCAIQKaohTJVMxCmYty8rFytMWPkY5RXRHPdyfHcVPa3n2Aeo2NHzdnpLyXLl9Mnh9Meox5jkHo0cLoT1i55NFetuZ4FPZHl9s9QueR7w7+fPtAewPNPSiUISUAAAJIQlElMCxEwVQgRMSokUkAEERBACxE0wiabczKxcrTFj5GOUVU3ue9VY3cpyOz3VBpcrPk5a70krqtB2kpz+2yRq6drK6jX9ONNVt5s0VW6RzzoZrU4vQ0xrdpTUTJYAAAAiYUTCmaSJQsVUkBYiUqJpETABETEUpLBEREwKZtrn5WLla4zYvwaqcyxLapvCyvC0ui0ui1NwW1wW1wWl0W1wW1wW1xVtcRRNSqVRKVQpVClUKZkUqi0qiURcS24ui2uC0ui1F4WYviwviwvjHjJLispGKyhiRmDCp2F4rv01dcgQgSgSgSgSgSgSgSgSgSgSgSgSgSgSgSgSgSgSgSgSgSgSgSgSgSgSgSgSgSgSgSgSgSgVAU1Y5cuW7gBCmmLooAAAAAAAAAAAAAAAAAAAAAAAAAAAABRXQK8bIGPkY5cu2rpHG9j454scO1idH8nx7/vfFvaPq+us0Pu33zU7YMOsyTCM1gWTagAAGtNk1mzDW4RvwAGg34AMEzmt2QMAz2BnhgUmxAAAAAAAAAoroMfKxcoY+Rjly7aukeT+sc75MtJoufs/K8e09r5DsPqeufNfSns28c0X0APBLX0APF49pHgl33YeHXfbB5HpvdR4zje3jwCv3weE2PfR8/dz6QPBey9IHgse9jw7F97Hgvd9+PBKveR41o/oEeI6v6CHhuZ7MPnTee3jwDs/TBYvgAAAAAAAoroMfKxcoY+Rjly7ZvAGms76Muahr0AAAAAAAAAAAAAAAAAAAAAAAAAAAAAortljKxcoY+TbNdtNViHQtAN+0A37QDftAN+0A37QDftAN+0A37QDftAN+0A37QDftAN+0A37QDftAN+0A37QDftAN+0A37QDftAN+0A37QDftAN+0A37QDftAN+0A37QDftAN+0A32twcozcm3dESLdvIGOyBjsgY7IGOyBjsgY7IGOyBjsgY7IGOyBjsgY7IGOyBjsgY7IGOyBjsgY7IGOyBjsgY7IGOyBjsgY7IGOyBjsgY7IGOyBjsgY7IGOyBjsgY9y4IkAAAAAAAAAAAAAAAAAAAAAAAAAAAAAAAAAAAAAAAAAAAAAAAAAAAAAAAAAAAAAAAAAAAAAAAAAAAAAAAAAAAAAAAAAAAAAAAAAAAAAAAAAAAAAAAAAAAAAAAAAAAAAAAAAAAAAAAAAAAAAAAAAAAAAAAAAAAAAAAAAAAAAAAAAAAAAAAAAAAAAAAAAAAAAAAAAAAAAAAAAAAAAAAAAAAAAAAAAAAAAAAAAAAAAAAAAAAAAAAAAAAAAAAAAAAAAAAAAAAAAAAAAAAAAAAAAAAAAAAAAAAAAAAAAAAAAAAAAAAAAAAAAAAAAAAAAAAAAAAAAAAAAAAAAAAAAAAAAAAAAAAAAAAAAAAAAAAAAAAAAAAAAAAAAAAAAAAAAAAAAAAAAAAAAAAAAAAAAAAAAAAAAAAAAAAAAAAAAAAAAAAAAAAAAAAAAAAAAAAAAAAAAAAAAAAAAAAAAAAAAAAAAAAAAAAAAAAAAAAAAAAAAAAAAAAAAAAAAAAAAAAAAAAAAAAAAAAAAAAAAAAAAAAAAAAAAAAAAAAAAAAAAAAAAAAAAAAAAAAAAAAAAAAAAAAAAAAAAAAAAAAAAAAAAAAAAAAAAAAAAAAAAAAAAAAADiR2ziR2ziR2ziR2ziR2ziR2ziR2ziR2ziR2ziR2ziR2ziR2ziR2ziR2ziR2ziR2ziR2ziR2ziR2ziR2ziR2ziR2ziR2ziR2ziR2ziR2ziR2ziR2ziR2ziR2ziR2ziR2ziR2ziR2ziR2ziR8bAAAAAAAAAAAAAOt7w8We0jxZ7SPFntI8We0jxZ7SPFntI8We0jxZ7SPFntPBnJAAAAAAAAAAAAAAAAAAAAAAAAAA23Q8QO3cQO3cQO3cQO3cQO3cQO3cQO3cQO3cQO357UgAAAAAAAAAAAAD/8QAORAAAAYAAwYDBwQBBAMBAAAAAAECAwQFBhESEBMUFjEyFyNQBxUgISIwQDM1NmA0JCVBcCZCgLD/2gAIAQEAAQUC/wC25MpTBt2LK2p1g1ARJmFHVFlplEJkte8RBUtEKSt0xKu5TUk76cKuauex6MtWlKrA322JTTqq6Yc1kSbRSpQeObYO1kiQp2TJRFZVZsohOWSSS3MS879i1sihFDcbRFs0y9LrnDWVerfywlhL77cuRXNNeZcCGybjz8l5mRQnqj+j4hqcjq61dlIaaQw3ZXG/kzmG47YXvHypZBSplgmUqTBNSqE22Tq9+5XK+8uudXK4Waoo0ZuK0HKpl1z3MyQixW4jfo5lmUaK1DbkM8Q0nDMNJpp2UuD3O1rr6tmtLaaSM/8ApUjz/o5nl/8AHbVnEfNOJqhRoWl1E2xi1yI17WzXNm8QSw64llpvEFcuCSiUX5czEUmovN4ndw8RSbe8/Oof1cG0lfZUeDjXDsvaL+34lwzXIqFYqeh4aYxHYV9hZIted7mXbtv0+JJM2NazV2GCbnEEuHNopdm8f5VlBjWMPj3hWwY1dD/OqKmbHcpTxFTV+GKN6rTjetl2UGfzJftX2FVOVMKHJlTryFYMYlt6yYeI6amnR3XaGxVg+9YnKPCdNLhWP5V17xxBZ8vwPdVKdjh+z/8AiQjMhqGoahqGoahqGoahqGoahqGoahqGoahqGoahqGoahqGoahqGoahqGoahqGoahqGoahqGoahqGoahqGoahqGoahqGoahqGoahqGoahqGoahqGoahqGoahqBmZ/wDSZqyGZjMxmYzMZmMzGZjMxmYzMZmMzGZjMxmYzMZmMzGZjMxmYzMZmMzGZjMxmYzMZmMzGZjMxmY+Y+Y+YzMZmMzGZjMxmY1GNRjMxqMajGoxqMZmMzGZjMxmYzMZmMzGZjMxmYzMZmNRjUNQ1AlZ/Aowj5/0Mwk89qwns/oJ9En8m+mxwJ7f6CvY302OBPbslydwRWjq1X1xb1sqrxIqxb418cY+OMfFviFVc2eK7BamsQ2Sx79nkbV/NStdrKePjHyLjnxxz446QI9i4lz00z+Yb6bHAjs2XBmQkreS0/HKzgRFLjyIEmbIQwmUcZUyxQ3LkOypDPyNrNYNtJJ35NCHZIzZsHGAzJbkJXIabDltGQCmPzE/blOGzGbkqSmVL3KWHTdUzYKW0c1LaHLBlpXGtZMvpeP8hXQGG+mxwJ7NlwC+QcQbD02nKXYpQTaEPkiMo9CWK4ps6RRI0qiraBqD415KrWSYhZIBtMmLdgm3qh01wftymjejOwyXFXFkPBhpTSnK9TkOTXvOpXDWpuTBN9cSObJ/kL2GG+mxwI7dlytKDJaQ4lDiWmDJtmbocDpam6PUTj1m9GEV1ma3ZQIpNe7XnlP1S2ST9KQtxLaZP+5CJFlQ2vTD6gw302OBHZsvWG3hMgbpJNhxTyGK5RyQ1AbbBoSYhx92FuTcoMJTL0+Gp98m5iVTIyiby/00+Q/FTHiIfT0+6taW0YduDftIN7ImSW8WajVcPMHBtZTlnMupKZUF85UL8hXTYYb6bHAjs2XizSbq3lJPD2tZ4eMhMqXoaK+9aQwV1AMRXUG8lCFBOnfq075SUpEoyW8t9pBOrfkswojkRp3eaSORp+3MipnRXqmM6TNGwxKXhiA5Gl08eYt2oZdftqZ996GxwsP8hXXZ/wAN9NjgR27LYiM90N0N2HYyXUHQRTCsNRzNMD3eTD5EmQ2iVOjsJiy3JCVptlcQlaDYcjWv0O2qA9aSXCY95rjelH8B9G+mxwI7dl1GbkGiJHaDZQst1CMbiGOHijhWA5BYdbdUtSGeGQpxcV00K3JS5OgQ69a1nkQS3rCWSEBvzPSl/AYb6bHAjt2Ty+bjhbsZjMEYT8w5u2GZ8g1LZtIam1W8MkPyzeaYj74t4G2tQSgR2HJBs07pL9KP4DDfTY4Eduyx6fI9mn5b1pBpkx812kVkTrRc2PUN5Qp1GSzjUR52zO4hrYUlDTR5tR1KSUARCShh0ySXpKunwGG+mxwI7dlkP+MyIpU5azfM9TfzJWppD1tHhivltukSNZKZPKeglJc1EpiUhhxq8ZcSTzboQrSEyN4z9tSiQlE5Klaiz1lm6+lksyz1Fn9t1wmWm5hLXrLNt9t1vqNRZx5KZIKwTmTpGFzGkESiPYo/n8BhvpscCOzZZ7Jkk1Pur0mr6yjozaW0TiXavfKKvUl2oU5XqXbRUqtLdCBX2biGnNDgdM0Bp4yci2JODNW4+3MaN+Kp52Q4lhzflFybW19LjDhyIjOl77c1Jqhmo5SmUKVJ3Ckx69BtsMNCvZ3TG7UaeHNb8ljI0MEzOP5fEYb6bHAjs2WonPK3K2vk8kzTDXvRHLJCQsswlpISj6XYCHHE1elzdElrR8nU5k13p+kIk64npCz+Iw302OBHbsupW4UpSnDP5BfdBLS6SNKmu1z6QXyCS+kvktXUy+j/ANXA6e7cQtbgSnSf27SSuHXKxKssOJvWmoSLlBSIdkzOV92dKTBhxbWc3Mq7aTImM3FjMEzEMxNDOmvMzCvZbde7fyK8NW8tiVT3EibKB/EYb6bHAjt2Yib1OZ6FBX0KYTk6S/k19JK+YI9Bo6f+57S6r+pTazyQR/ctIy5tceG3DlSaCa6xy465Ep6pyG792dFTOhw6qaubLqZZLmVklqa/ROHhpiM4q5OpfOLDw+621Ew27praaQxMV8ZhvpscCe3ZiIKyUoj0k4sM5qMvlsIyDqN4Ta/pSr6jBbFl83VGTrBaiJHpB9fi/wCG+mxwI7dmIwtGo15hchsjhr3idWkZ6i0joEnpBKSG1/UtZIDTuoH8ylPEmdDd1M6j9HV9g+jfTY4EduzEqsgbhJC1qUc1CUSYuTaOobP5j5kaTyQjI1msajMIzDkj6HySclk9AU5pR6Mrr8Z9G+mxwI7dltXcezIorMw/h250N4Qut43huzSCorEFR2A9yzgVFPHL87JGHbEjLDNiG8NzUhVFOyPD9kYmYWtnQzQW4rcOuE76KfT7BhvpscCO31lX2TDfTY4Edv58h3csHIeU8y9v2UyX9+cppJNzGXDalNPn+Ef2jDfTY4Edv3M/w5TZvRt3IakRWTYaQ0aJTbf+kOK9LRFjrQ7+Er7RhvpscCO3ZmNA0DQNA0DQNA0DQNA0DQNA0DQNAP6fzpBao7LZMusuOJhMOuyH2pLimo77u/8Atn0b6bHAjtCg10xNi9+isfEmWPEmWPEmWKHG0i2tdQ1CdKOLC8SZY8SZYwzeOXsDEt05R1/iTLHiTLHiTLHiTLEdzfxk/bu3lx6hi+lOsN4l1WbdzMdq5OJFMKlYncjlbYm90v1kt568Y94XZ2N6/UtcxLdm+/5c5XxGklE1EZYVwMfSURkiKEwlxuIy04f2z6N9NjgR2mFhn9PHn8ktHqunj814bFTNp7oUZEnHdpiWBTyLS1jU8dnGVRLd9ojDTAdw3ParKaltrGLjwjTh7CTMUsM814bEK+oLCV7QmGmJtf8A4Bd32pkRM6I/QRH3IuGY8RfLkfdP4bjyHXqCM/FmYYjzFxq1qLNkYbYedfw3Gdci0ceJJYwxGjq+OViFROQJ/Fk7MZZktTGXpT01lh6O/wASzGlNS0fZPo302OBHaYWGf08efyX2ifsg9mvSk/nvtD/e7mtiWkV7CVXAi03/AJwLy2sGGvZ++01Te0H9iw3/AAoYS/kXtH/zq/8AwC7vzHE62yUzHFGT0iZiFpfBmlRVNU3I42M3/o8MINus+yfRvpscCO0wsM/p48/kuKKZ69geHM8YTw6/QCk/nvtD/e/aH+yU2JY/uTCeHH6AXteu0qvDmeMeJ0YewmycjCPhzPFJgiZWWntH/wA6v/wC6/muR2XQlJIIH90+jfTY4EdoWGf08bVU+ZdcVjEcVjEcVjEYaqbNvEntD/e8WSmb2tq8NNNUGEnblwQ72wcxljW9sKy0xhEk2NFDTimAxxWMRxWMRPr8RWi4KTRDLr6b/wAN9NjgR2hYZ/Tv8We5bLEV37hheJJjxJMUuNzt7PEOEff03D937hmwvaCcuWI+Etxf4hwj7/m3tvy9W+JJjxJMVOOjtLHYXd+ef3j6N9NjgR2hYZ/TxfQ2E+6xniCutqsez2JHlC2k1ktqwXc1T/Jd4KiZT0cPGGJWZo97TxhPFEOHXWkyvjRLiVAexFi+wqJrVBe4fhV3OlGG1pdbLr6aYb6bHAjtMLDP6eKcTTKu1L2f1Bi9rk1trS3s2iFLh+HxHtD/AHvC2K5lzY2WEay0m4sw9FpRKwvCZwwZGQn1kW6rsQ1jdXa4ToY1y5eYOrK6qwlhqHeRmWyZaLr9qS4bMZ95SCcmvE23J3sn8A/vn0b6bHAjtCwz+n7RP332dfvVjjSBWTfESrFLhyV7+9of73T0793K8O7QYRw9KoQ/SyKS7xVcsXlgn2fWa01VwxhlPtI/x6+A5ZTMJ0Umijguv2nGydaKK8o0w9JtQiZl/nn0b6bHAjtMLDP6ePSJWI8Rw2MKwqyorbeqjYbw1MFRIu28Q46rZku4wLKYiXF5iqyTdYRl3EoYusYa6PCkGik1yMiTIw/XSpuP4UmYy1EtapcfEWJ5hRVLVFLr+af4B9G+mxwI7TCwz+njz+S4ipPf8L3nwQw1hvl4QsX8ZfDEOEfcMKm/eBijCW4QG/aPoR4lDxKHNXNAw5h/l9gF1+083vmaqMlU+shMOR6ivbegIKS3Gg5na1zPn1RJp5MO0bm4hXmdZdG8ua0onGvjP8A+jfTY4EdphYZ/TuJ1FGmc4UgO+wwqRzhSCBZYelWGKod7IsmLSnv1zaSGUOwXiGqGG58qwusdxWIlvHo6xTMeFGiF8BdftPMokMwqeJXKVWxltSIMeVGbpITbLdJCaZi0sOEIlNChOKr4ypB0cFUqRRwZTpESS/HMN9NjgR2mFhn9PHydeIvDurHh3Vjw7qxhthMXGmKsVTaSxsa1rBDFfcPysM3eIpV8MM4Vhst+0X96aTobM9JOW8+UqutHXZGwuvpp9G+mxwJ7TCwz+njz+S+0MzKl3ih7N1GZUn899of73U1Um8k19Q/FwxhHDkmjOzwVaS7G6qJFNKEps3YvD8dTodbkX+wu703/AIb6bHAjtMLDP6ePP5Lj2O9Jp/dM8ez2I/FFJ/PceQZUm5rYWH6l+9xZZMXOEbG1njEN0iDV0/u/EsbZLqIc1cugZNmPvNwC7vTT6N9NjgR2hYZ7Mfq0Yh8SiHiUQ8SiGGJHF4yxDi73DNw/Se/pvu73TioWGATnTvDY/jLr6afRvpscCO0KCHN2qVUV9g5yzUDlmoHLNQI9HXRHpdPAnuRKeBAccp4DsrIZDL4nHMgj04+jfTY4EdoMgpA0GQ+sfWPrH1j6x9Y+sfWPrH1j6x9Y+sfWMlBKAXpx9G+mxwI7dmQ0jQNI0jQNA0jSNI0jQNI0DSNI0jL7kxxTURbbcR1M55bpSZAROeW7xL26XJfdZdnPE5Oefcjzlm3FWwiI8xKkK+M/wT6N9NjgT2/EpRJL8jLMkQWW1cI1vOHb0cI1vDjNqb4JnQqE0tTsFl81IJaWoTTS0xmyL4pqzRES+oNTVoTxriAicohGsSfdkPuszkSj3i5qkmmc7m3LdSTlolDrL63XfgPo302OBPb8DrqWkybaQ6cuVaEt02479XZpso/4ylJbSm5gORYk6PNZViWrSRzWEiJbwpzrVxBelncQSlv3EGNI+y82TzSmyU3wjZgoJDhEGGo5tHuU78q5tDaISUjhEDgEjhclttE0fwH0b6bHAnt2meRSr5120RBdffYrdw3MgSWlnIWiRHeJ9n8VbaHUQ5sStrm5ba6myQTxu7t66rbKHb2MVxLsGTZV0qzxLLYW2jM0/YWtLaW5cd9TUhp8NyGnjRIacXv2jd4hreqkNJdW+00p2Q0ybr7THxn0b6bHAjt22RLXAjU7iJEMiJgLTrS/GcW9WGXD44lzIsm3xUcuj99PV2CXsNyI1fJsrKywfh52rOx3znOkhSJOK8HTpEovvOsNv7EMNtufdcbQ6ivjQnSRuYllTZxZ7aYzVvWGbbOXmYg4Um7At5JuijSYkkuMk0DiHKX4T6N9NjgR27ZaVriRLGRKFNJJxgTZSYjCL91UuvZ3TNvSe9Jp4YhoUzQslQnhq1cjPVTjdbHw7MdsfdP++lhhhV00y2w3+caSWlLSENMQIsQR4ESItqviMOlBipke74nELr4jj70GLIckQIstciDFlgiJJfCfRvpscCO34JVYy0NZMG9iqetTFguedZWpfmEWRejl+CfRvpscCe34Oon0KJLfKE8VmFTjLaaQyn1k+jfTY4E9v9CPo302OBHb/QjDfTY4E9v9CMN9NjgT2n0yeGTwyeGTwyeGTwyeGTwyeGTwyeGTwyeGTwyeGTwyeGTwyeGTwyeGTwyeGTwyeGTwyeGTwyeGToyeGTw0vDJ4ZPDJ4ZPDJ4ZPDJ4ZPDJ4ZPDJ4ZPDJ4ZPDJ4ZPDJ0ZOjJ4ZOjJ0ZOjJ0ZOjJ0ZOjJ0ZOjJ0ZOjJ0F0Po302OBHb/Qj6N9NjgR2+on+CYb6bHAnt9RP8Ew302OBPaETI7qtinm0n+Rl6KYb6bHAjtFUtfDRkrcHEKcYN9b0b10w302OBHaEsNJMkpIG0gxoT68Yb6bHAntCZkZa3pDMZDkyMyg5DKRLsG4zK5sZtcu0biuxLNuW63OiuL94wzC5sZpuXapiKQ6lbLcyO62mZHW0VhEV6Af4R9G+mxwJ7XCNTcJsml2fFS1pq5bFfMqJcgypp6qudTOyFSm9FjDrJC3IyP9zr6JbZt185qKzTzyjWTEmXUS4bk2O/WvzCnUbii9RPo302OBPaGa2HHe+GRFYlJYjMxW41dEiL9YPo302OBPb/QjDfTY4E9vp5/hmG+mxwJ7AxMJU55591qY8+4w7LebCJUjIpTxsxXd6160Yb6bHAnsMsy3DZtHBYUpyCy4o2GzIobRFwTWTTKGS9aMN9NjgT2AraGpjY3NYdRsflNRgiWy7ID76IyUuocVslXlfCfSolpbktOPgnEG5MtoVcpt1DzZSGzkBVjGQTTiXmwc1hKtilEhMOfHsG2bOG+2dzAKDLtoUJtp1D7f2z/EMN9NjgR2r7cM6oBVkmU5Oh7xEYibdiazaao5yWp2KkurYU+/BqN88cN9bsOXIJqG5YbuIWG5ipFPYnOKwnyWmorkhk5FrNeNmu3Pv+5dYi2smwN2MmVMXGw66tydMZf962k516wlJefdnKdnxGUsy7yJPU5akbM1iJxRV2HW2zdZaQvBaJDVda4ZbU1TfnmG+mxwJ7fikRm5TPxcO2cn78WO3DY2n6CYb6bHAnt/oRhvpscCe3+ht9NjgT2n8ia4l5k52gJsE6CmKbd95ESHZi0tpfXvFTzU3YO7pLc7QlM9JoOYZramG8pmc6pjjCy9Tb6bHAntBQlpJUIlNlCM2+BNwcAo2nIpOLXBN1JVyg6zvTXAJQXGNthiM464mGriWYRtBMc1WXqRhvpscCe34t6jLYSyUnP4ErJZaiI/h1J1emGG+mxwJ7XP06R+fHhp47lmTJsOLkXFgpp+auPEaY3C0X01L0W1nE7VTd3hqPZz25kG6lqsMQypL1Eb887uJPmLbj2EiXNrZc2Fh+pmOTW4NtbSREtLCxJVxYyIb1urjIM6ambOmTnbxOILCcGXZ0q29IMN9NjgT25ZhutitI90QtyrD0R6VKp4Mw5NVFlEURspZ4fgpRXUkSvS1XRWAWHIrVjHpoMR59huS0zXxozjdbFaUisitOSqdJw2ayMy21Vw2Q5TQHmH6eC+3LpozzEKlhwSZq4kdxykgOsrroq1ekGG+mxYb6bc/X1HkTe1RA/oPiRxBDiCHEEOIIb8hxCRxBDiEjiCHEEOISOISOIIcQQ4ghxBDiCHEJHEJHEEOIIcQQ4khxBDiUjiUjiUjiUjiUjiUjiUjiUjiUjiUjiUjikjiUjiUjiUjiSHEpHEJHEEOIIcQkcQkcQQ4ghvyHEEOIIb8hvyG/Ib8hvyG+Ib4hviG+Ib4hvSG9Ib0b0JQpZoL4FIG6G6G6G6G6G6G6G6G6G6G6G6G6G6G6G6G6G6G6G6G6G6G6G6G6G6G6G6G6G6G6G6G6G6G6G6G6G6G6G6G6G6G6G6G6G6G6G6G6G6G6G6G6G6G6G6G6G6G6G6G6G6G6G6G6G6CUfFkMhkMhkMhkMhkMhkMhkMhkMhkMhkMhkMhkMhkMhkMhkMhkMhkMhkMhkMhkMhkMhkMhkMhkMhkMhkMhkMhkMhkMhkMhkMhkMhkMv6aYT0/oSuhHtWE9m0zJJIWlZeuq6N9NjgR2bLC74VyTOflmxKejHCv94v1xXa302OBHZsuP3IVtZxY8r3jssLaJWCFPj2LAkvoisMupfaCpLSJEaQUpt6cxHk/GcxlMx2ayzJD81mM9NtGYD3wHasavgkyWobRTGTmbHZbLD7EkpGyTLZiE3J3kj8NXa302OBHZsukbmzKDDshZWW/Fc0b07ZYmddiSxM7GHZwXGLG1ZcVJnMPKU/XrlvtxUqn/X7urm5JuYdS4xbYq1vy2Ybs20w6w+mwxM065argOS58hb8qAhO9XDZnaqViWUmsYTxVtXtv4ljtv8AE4VgpbjvNv8AFLguFGmMv8UuC4UaxYkqtcTrPhoipMeunR1T6mXXMzbKSmW83FrnJtm1ENxlxt/h5BspqFwlvUktuUapbRnDjITS27a94j8BXa302OBHZstYHHMHvGtlLXHFR64rtb6bHAjs2yq2PMESpjRD9dV2t9Njgb7P6Ertb6bFht3Qf9CdeJQb2qION5jQpI8weYPMHmDzB5g8weYPMHmDzB5g8weYPMHmDzB5g8weYPMHmDzB5g8weYPMHmDzB5g8weYPMHmDzB5g8weYPMHmDzB5g8weYPMHmDzB5g8weYPMHmDzB5g8weYPMHmDzB5g8weYPMHmA0KUG2wksvgNI0DQNA0DQNA0DQNA0DQNA0DQNA0DQNA0DQNA0DQNA0DQNA0DQNA0DQNA0DQNA0DQNA0DQNA0DQNA0DQNA0DQNA0DQNA0DQNA0DQNA0DQNA0DQNAJP/5EfN1KObqUc3Uo5upRzdSjm6lHN1KObqUc3Uo5upRzdSjm6lHN1KObqUc3Uo5upRzdSjm6lHN1KObqUc3Uo5upRzdSjm6lHN1KObqUc3Uo5upRzdSjm6lHN1KObqUc3Uo5upRzdSjm6lHN1KObqUc3Uo5upRzdSjm6lHN1KObqUc3Uo5upRzdSjm6lHN1KObqUc3Uo5upRzdSjm6lHN1KObqUc3Uo5upRzdSjm6lHN1KObqUc3Uo5upRzdSjm6lHN1KObqUc3Uo5upRzdSjm6l/sdHRP3j/h46PDx0eHjo8PHR4eOjw8dHh46PDx0eHjo8PHR4eOjw8dHh46PDx0eHjo8PHR4eOjw8dF5RP0b/AKpBsZVa7zfcjm+5HN9yOb7kc33I5vuRzfcjm+5HN9yOb7kc33I5vuRzfcjm+5HN9yOb7kc33I5vuROsZVk7/Yv/xAAuEQABAwEGBQMDBQAAAAAAAAABAAIRAxIhQEFQUQQQIDAxEyJgBTJwFGGAkKH/2gAIAQMBAT8B/mll2vKhQvGHy7AYSEWkZdBww7IuaFAKsAA8zhh2W3hXJ1w0C9SqTjepEJ5nQBQJF5XoDdCyLgoGysSi0jLkbsKOrJUmD7lmiiwEjkAZmeVkFPkHFtEuXjsVssIOQ6af3DoPIcvKrZYthAIKtt3TXCbyrTd1aburTd1aburbd0HiTeqrgSIwY0QaGNBc4N8oEHkNBey0mtsjFZ/hDP4iNIlT2HVGUyLaf9Pbw82q0uP7LhWv45zrXts+JREXaDUq0KIt1Gyctkyr67Q/dVP09UelVOxuVaPUMYeOUdhpE+4SFxxpgNZwrYH+yqPCPFUVCdQz+ADAj80R8tnQIUdUY2SpOGkqSpKkqSpKkqSpPwyq4tbchac67yqTifOhVG2gjUkeI3VJtluh2RM/2c//xAAwEQABAwEFBgQGAwAAAAAAAAABAAIRAwQSITFBEBMwQFBRBSBhgRQiYICQsTKR0f/aAAgBAgEBPwH70sjwM1cJRaRzWvAvAFNcCE4zzJ4ObisQVfMjmTwMEcCoKbiegYK6CnsAAWPZNBCnndNjaZIVwBVgCMNFecFTplzM1unBZLPlT5jkqTMJ23QU+k0lBp2OYHBQQebAkrLy67a2nKHz0/5DZn5s1V5thAIV8DVMcMZKvN7q8O6vt7q+O6vN7oPEnFVXAkfXdSq2kJcU1wcJHQ6tI1IgqkzdtiZ+wnADobaFasx26iQNUzxR1cA0rPgJ91aHMsLWNbDi4yY09v8AeyBBHQaNO21pZQeGsyJ19v0nUPhTuuyDLdTd8RZWgwDn/ask7hs9uYng1abqjYa6NV4YLxdUtr5d65R+larbSdSNJg9PSFl+DOAoCgKAoCgfRlqqOps+VNv1HYHFWZ7nghx6FaKe8p4J9aRAEE5+qstM02Y9D3bJmMfyc//EAFgQAAECBAMCCQUKCwYEBQQDAAIBAwAEERITITEiMgUQFDRBUWFxkSOBktHhFSAwM0JQUpOxwSRAYGJyc3SCobLwBjVDoqPig6TS8URTcICUFlRjwpCww//aAAgBAQAGPwL/ANWwFthx8y6B9cNuKqhe5hohJnd1QKu1VSWiIMAAtk86e6AwdEIHAWhgWqcRMS5oyjY3PPFnYnrhHZfhCZqSVFSK5PCHGZlEGYaXapovUqcTrTEmrqNqo3JVc4y4OPwKCcdDCITtt+Z1WirToSEfmZ1JJgl2W28z88IMjwo8jv0ZhKoUKRhaQlaqouyvdxMtSiVaxxBx3o/RTicIJkZSXZeJqoqtyxMS03Ypy9qXB01SCdd3R/jATR3IB7o0zWGlbaN1TbxaJTIYAGkUrm8RV+inR8CDaKguu6EWg9sNJIJyscShnWneUTbr0uioVBA8RNkbuqGZubTCbcl8Nem0q1icmW08i5aIF9KnTxcJyr3+LaVeynshqVKScdUVtQm91R64fMF2W2RbL9KteKeVHnG/whchp1JDzfKHKCuW02nQkTCqtazBfNBTkuOX+KP3xYmTY5mXVAttpaApREhuRlCoJmgOOCv2Rwe2yNoDNBRPHimWZU1BwJ5SXLWq5fZHCDg5ouGleuiLnCEMujzDY1FMSm11x5QLKMrbnWqU1iVN5rEJGhEERaVVU0g2/JXpaRIqZuqvQPd8O6+M4bV6IlAFOiLSnkROlRZosYbKZfbxG5c6CnmtjipnC0dmErr5ZYsZrRVqtVrVfmiixZLjYNa0gm1IgQukdYRUJ5FTTagDV187CuS92ufFME2883yj4xBVPV2w5gKa363L7xFVM0//AIGJlGnwPk3x1Pkf1SKJwix5yhDbJDFdFRdYE514WAJaIpRhys6y44ug35rx23Jd1V4jccW0AS4l7IGe5SISxFYhlln1Qipov45g8LNCHBz2TDo9HfGJcllK3VypGDwS0J8HM5Pul0934/8A2w7y/wD9IU52VbdPFJLunxjhfgm8jYYOrVejP/tEl+0fdExMSkuEs+wN4k3lHBr9AdnprYG/TJaKS/w8YlGOFX5GcZmisulSqra9vjDOE5LcrUS5Oq1tRva17aVhtrg9JWWYtqc1MOJSvUiRwu1N4BzEkBKLjWYHkvqiWecBtteWUo2NqaF0RIcGyRy8tisiZPzGif1SHg4UBhxsfiplg0UT/G3GJ9EVlUqqr8ntj3H90S9x8e3Hs+T6uyG2JBERlEqip8rt/H/7TK8wQ8qUsHPf3/WkLJy3BCGtykhmaeuJmZ4QNDnps7naaJ/VYlgkGVeMHrlRO6ORFIN8Hy7nxhkdco4Pa4NFHXJDQD/xE6fsiXs/s3J8HMgVXXHUQl/d0iT4WkZNZ1ttqxQQqZ7X/VBzj/Bi8LShtojTeJSxcvb4xw8r8mMukyySNACpb07KQxJJKksyM3eoVTTOJVPcmX4Ukhb2h0cEu+Jubcl14PlHRoEsrl3n/rr/ABs+CJUDlJJuizDxJvJHubgpyb+NfpV64DgiaA5uScqsu8Kbqf8AslzSNFjRY0WNFjRY0WNFjRY0WNFjRY0WNFjRY0WNFjRY0WNFjRY0WNFjRY0WNFjRY0WNFjRY0WNFjRY0WNFjRY0WNFjRY0WNFjRY0WNFjRY0WNFjRY0WNFjRY0WNFjRY0WNFjRY0WNFjRY0WNFjRY0WNFjRY0WNFjRY0WNFjJP8A0U0jSNI0jSNI0jSNI0jSNI0jSNI0jSNI0jSNI0jSNI0jSNI0jSNI0jSNI0jSNI0jSNI0jSNI0jSNI0jSNI0jSNI0jSNI0jSNI0jSNI0jSNI0jSNPfVX8g7k96Pd+Qa+9Hu/IhOMUFNovCFFb2z6lSBdYmiwD0G1KIvVA+Uw3vox8YsfGLHxiwg4q4x6JHOyHsREjnZejG1OU8IqT1yJ2QBy8wqAeXcsfGKsfGLHxix8YsJircK/Oid3Gz54vlt4c7fpJ1Q5LuLcVKtn9iwrJ1Eq+Cxs4VB+U5XOJg3EauDdQemFIpTwSDdfKplrGkaFT9OMw/wA0LYNEhW3MgLX1xt+Ua0i5oqxtuCnnjIlPuSFSTasH/wAw10+EecHUAUkrCuPPsuAiJVGwzT+MO2ZuNiJZ9qw+hU2HLU8EiYvFBcbvIOokRVgScEtxCJRHIYNCu2KISoOSVhxSuBQpVFHPPSCRLhIdRJKL8wJ3cbPn4hJvStR7+kfP9sMTbKojZfGwgglBSHGqZlBLBGfTtLSLmkpGZEkUqnmi4eJpCGpqm1dnHxbX1aR8Q16ECTQiAkOidcBX5PwjzY6mCilYNptBAiHWkPq7hiTgAKIKrlRV9cPqVNty5PBIVtCQXkU1Eu9V9cEOwaK1YlxrsL3dMTI1HyhCqeZE9UPFVEuRu3vFVWHCIABSpkJKX8V+YE7uNm7t4lAq0Xsg23Drd00pnBMTW8C0v4jTrSJlwujJIzYxE7IRVG1eqCK3ahVaEhD86GV1UjspAp1JxVNUFO2BSWBVQV31ySLUVlfP86J3cbGKN29F7NVFOiMlg0aXPtjBMqH1lFTVXFjTwyibRr/zVWGwaBtKlQ0XUe2Kn/CNkqQ43cBAnxeS1WJZFpejorGbqYl30Ojxi4LTDrs0gH3zWYIk6d1PhiM1oIpVVjys4jw8IgZiziXKyQktBp0bP2QbJtsMuUO1kyJHBVNNU2vNDBGwiMlLXulXccoa2/6ZQ/MuMpygeDAfUbypWq5UjkU8w03fL8obVs7tmtKL2xPtSDDTgSDSG/iGqKtUrlEu+SUV1oTp3p8wp3cbFErvfdHkrRX85LoUlMEr0CCp98bDpemqRiIX7wmsCE88OIPSn3xzltII2jQwc2kVPD7orSM1pGWcVhqqoiCVYUjcFETtj8DabITTedKiU7otN1C7ETTzwuCoXdRp98NYyAlzigStlWmVfhHpZwjAHRtJR1pEpQcLkpoTahlSnR3Q3MXvukzdgi45cjd2tImGCE7H38cs80Xs7PXEwTt6K/L4BUX5NYV690HOTLL1AqUH1wfJGEPFYwiNZsgr+mlNqJdit2E2IV7k+YU7uNmtOn3igaVFeiMgVP3ljU4HDqodsbS0hHG78k1RYV01NcvpVioFVIJtLr+hUWBQnDJdaVhMVhR7ljYbNe/KFFhpAXrrWFlgLK/Evt2q/Oid3GxitidK7w1hPwRhf+Ekc1Ef0Y+KNO5wvXH+Mn/FWMjeT96Mn3v8vqggx3Sy6aeqMPS0oXlMw8hdGdIFJd58iT5V0HtaxUc1VdIF5w0Sm0qF08XUnEvd86J3cbfni2nvlcMqIKVJY5dKjdLmtaRton70fJ80OPoNGh07YveKldFFIyrFS4lSWbVymq9CeeGTmZjIjpaytEpn0/OicYdEb3jxVihOCi98fHB4wu3eXUKQ6yICDa+MC0abuUKrWzCYpVSGhZSgg6MVBBQepI2oTCC785dI8tt9nRCh2dENCnyXR+dE7uNvzwsVVcoo0VGvthO3iJPCEA7jPpQUhDYNLF1RVzTjFte+Lh06UhHCBCp0LHlQUK9UeTNCjqgdu9ReHaqi/KT4RSJaImawCK24AubhEOSxSu11RSqVja60SnetIpVK9UUqlfhDcLdAarAibbjSlu3prCpVKp2xiAaKHXGUUqlUg8MVtFaXZZwtW3EC+zEplWtIK5LKLTOHtqqsjcaJC0VF+ETu42/PxKFfJ9kCnyYHv+6EhRhSKl0Z7pZp40jeUmS3kWDbB5snE6LoMWiR18kVNnRIpOgSp0HSPJLslxJb8mEB7I10pBX5Wkn2/CPNhvEKokM4OO0tyYgk3sonTnT7IoaLiY91yMZ0r9OvVAGjVHeVqtaZ0vX7osVgymeUISnZ0X617ocQ98nagqMXLT9LoiaMgoRO5FToonwkwIpVVbKiJ3RLi2DiI2aERGCj9sMKrNi4hYiIzSmS6l0xLogWi24WIis3Z9C06YXWimqoihbTzRLBgkkwB+WOzvrtdNYXYsW8+inylgxHlGLygiQLFsXb7qQOI2qhyk1zHLdjhFBZW5xjYUQ1ygcJuwFaW6iZVqlPv+ETu42vPForqsVGFcDMk1TshP0vuhfzVhYuTXpgSp1xlBLakKulRpFqaJCFxGnVF0OX71vzoPGyP0kL7oVTWqxlFyeeKfnLBL0FxXeMZaLxF72vXSKDpCbSkvwk3MtIimy0RjXTJI5ejY8trhYXRi/1nEq7NC4rjsuLx4TREgpTNe6J1XjAZNhlp0XE/Or6kgwbR1twKKQOtqC0XRc/hn5lzMWQU6dcSjPCbbH4a2Rs4Naio52rXs6Y4Ua4Rbal0lMNaAtaIQ1zWJWXlQYCacl+VOE6i2iKrsjl0wPCMpKt3IhYuIeQKhW07YlZeVbRwnBccNK/JFNPSVInnpllhJhmb5OAiS2JW2ly/vRPtT4sPTEs0Lo4KqKEhLTOukPyk8DMw+Mrylvk1Uu/NzgGnilXhNjFrL18kv0S/roX4VOOVP6KH93GqQRaQsbXEIr1rT+HEvvLVhV6I2BoPbGfwk3LNKiG80QDXTNIJzFHCWWojdVpj2WX+jDDKG04AyQsKJuGggaJvIia+eJlh50BxZWXaRRz2m/uh16Yal23CFBTCMzy7y+GflnMheBQr1RJv8KmwSSIELGFWpKuVy17OiOHHGbS90cEAtXMUpaSr4w3O8DqyjiMYBNvVtt1Rcoc4MZcE3jTMzyRSUrlibmnm6CjQMslXXVS+7wjhRtDaQpqYxQuG8aUHIkX9GJsj5LLTDzSNAjDVQAf3t6sTKzCy8obkuTDYyY7I11LPp08Il35hJRhJdlWkGWRfK/peGnwqd3HL/vfdFI2uI+n3iW5KMZwXvTSuSFGXjGvzondxy/733RVNY2opclYJR6S4suI7etIqtFTvgl7YtrxZ8RDTXONIy+dE7uOW/e+7iVUgBDVdYRA0X3jsawiL15wq9KxnnCLFIZqma1hBhOtfnRO7jTDVBdDdrFGpdF/fT1x5KW2v1oeuL3JTP8AWh64T8G/1B9cc3/zj64zY/zDHxH+cYLyOv54x8QniPrglWX66bY+uM2f84xtM/5kjZl/84xzb/UH1wBNS20K5eUH1wmLKf6g+uBOcRBQVrSta/Oid35EJ3fMDrlK2ApUhW2GwW0BLaOmtezsi9EtLNFRehUgwcbaRG0QiVDXTPs7IFVPIgU0/RhUE+iuaUy64o2udK5iqfMSd3zA82GpgqJBONNg4hNiO0duleztihLU1VSJU61h50qWEAp4V9cThotzYtk20v5uf/b92ER1BbRGSBFEq1ui9xu1UGlccj+35iTu48ozWOmOmOmOmOmOmOmOmOmOmOmOmOmOmOn8fdRTwqgqX9UC2rIy7pNqgm0uSxJijzhGbaFkCKS5JEmZGo1bcuROwkiUVVzcdUSy/S9UWzBKKldQbcl7l/EU46wMs1LtuiraHUl745kx6SxzJj0ljmTHpLEvJuSrTYuXVJFXoFV45mYFEJWmiOnckcyY9JY5kx6Sw5MPNC0ouqFBXsRfvgZlpsXSVxAoS98cyY9JY5kx6SxzJj0ljmTHpLDThJTEBC+EnXWCscBklFeqOC2Jg8Kd5W0L3/5WyRVRYak3GG0xSIRtmUMkp9IU0rE67PoXk55GgVl21d5NnTT7YmnQk1ckZR7CeexM69NB6aVibcSQU5aUfwnnMXoyzRPPBi4w2rTdtVWZFDKv0Q7PNHDTLjik0yrOGP0ajnHCD7HCDkngPkyw0Ipbs9JdcNcoZlzcwL3FWZQEUuoE1WJaXlJPFF6UGaUydtsBY4KdalylZWZm7RLEQrxz1To9+qElUWLmgotKa1hBw8k0z0htBBERtahTojEFpEOta9sXgFC+z8RTu40iX/Uh/MsC/PS7QtkVmyyi5/0kfFD/APGh3kDDZYVLrmKa/wDaFEUoiTD9E8xwjE6Zi4oXJQK5Qj86qi2p2ZJXOAlwMyV0rERWtaxwdgtA3XEraNPox7omAcltQ6350WCd4LNRaQ7V8rbtZQyhao8H8qw0/MsNnbiKRKFVoirHxQ//ABoblpZkFdcyGsvEmjLYNorS7o06Ylf1I/ZBd/wb0s6pCDoqJW6xwe4V+JI24ZJqqJ0LEsoPzBDLGptAqjQa+bOJlnGfwph/HUapslWuWUPKrz4sTDiOPMCSWGXhE/LkbqBOuYjlFTJctMuyJtSmJhsJtRV0AUc6easTk22Rq5N23ouiWpTKJgm5malgmc32mjoJrFzbr0unJ+TKLdtFb6s0hl8CcImpRJVEJUooJ98S1sxMq3LO4jLamlodmnwCjKAKinyi6Yo62rTtt1OtOuGJd07Xn7sJKa01h6XaO55hBxE6q6Qww4VHX6o2lNaJWBdQDbu6HBtXwhTYK4UJR06UyX4dO7jSJf8AVB/MsMftQ/ylxcJf8L/9oL9pmPsOGv2Yf5igWeEStaQ7t63OHZ+SVwnZYFebXEqlw5w97uf+Eph4Wzva/wAqRNcEI3Tg9ksIVVvO0Vyzh9HHABeUlvF+aMB+0D9iwX6p77+KQ/TX7FiS/VL9sSv6kfsgu/8AHTFPlDSLZqX/AAhnROgu+HJlyqpbSsNzTAqT0k6LwoKZqnyk8KwkzNMFdwhOK65ehUaH5NyDmqURMu2ODUcFxW2p6ZQKgQogWZa6JHA3uq2+smgvXoiFk5ds1p54VCEw8u7k5rvL8OndxpEv+qD+ZYbl5cwbIXkOp9y+uOdS3+b1RN8pdbcxraWV6K+uC/aZj7Dhr9mH+Yoa/aR/lKGuBMJ3HeE2EPK1FNVp/NE3yl1tzGtpZXor64mJRkhA3KUUtNY51Lf5vVDI9TwJ/lWBaFaK4Lo/xWOdS3+b1RLzTswwQNFVUGtdIkv1S/bEr+pH7ILv/HvLNAf6Q1igIgp1J+KJ3caQ29IyrrwIyKXAPTVY3Zr6lPVG7NfUp6o3Zr6lPVDE3PyjwIpOE44Q0zUVhr9mH+YoCW4GcGdmBeQ1BrNbaLn/ABgZhySUeFgbMxVa3IaKtuXhE37u4qbuFiDb11+6CkTmVWV5Q4NlE0SsNNSMyrLay6EqIia3FDASrRPu4gEqCn5qwLEmzNNNDoKNJG7NfUp6o3Zr6lPVAFPysy8QJQatxLiaUIWxRU80F3/Oad3GkNyfJMa8BK7Ft1XugJnAx7nUC263oVfuj+7f9f8A2x/dv+v/ALYZk+Q4OJdt4taURV6uyBmeWYFraBbhXdK9vbBTODj3NqFt1vSnqiXl/c+zFcELsfSq/o8S8K8rrV03MLC+lXpr2wEzyzAtaw7cK7pVevtht/B5Rti3S63o9kf3b/r/AO2P7t/1/wDbDEpyHCxVpdjVp/DjXv8AnNO7jSGpqUYxGAaG4r0TRV7YaZkJjFcF9DVLCTKi9acXCPKWGnrcOl4IVN6Jjg/gBGh4YutbRprDJFFdraonQi9MIzPzEy04o3U5RXLzLHMv9YPXDEpw0LLPCTFcSrF5JnVNpE6lSJP3FnXNm/EsuDqp98c+mfrihwOGJ08dXlVL0M9mie2Be4Vs5MRJS9u/PuhH5KzkN7e63RKZVyiVTgXCuEivsZs+6JRJkmQnGx2i5Ot1e+kc9/0T9UAYLUSSqQXf85p3caQElLiyrTjQqtwrXNVjJ6ZX/iD6omZWWQyabVLVLXSHuRtAWNS7EFV0/wC8S3DGI5yx0cYhuS24xzy88Nfsw/zFBy86jANo0p7A0zqnbDs3MPPI45StriU0p1RKe55OuYt19xV0p64HhEDeWawQO25KVWnRSM0hmXm3CQEtLYKi6Q9LSl5tCg0Us+iJkZ9XG0bEVG1bYmZmXdfV1saihGnX3RMOThOorZoiWLSG2x3QFBSC7/g3nA1AFVIl7flmgrAq2KGvKCC3rFK/xygRbVFaJq/+PzKndxpAfs4/asP/ALKX8ww7KzDUyrjeqiI0+2PiZz0B/wCqG+Gr2eSvEbwjVb6Gi06O2Gv2Yf5ihZeVJsTQL/KLlT+lj46U9Mv+mJvlhtHjWW4aqulezth/h+aJspMHicUQXboWX3w3MSguCAsoC4iUWtV9cISPSlFSu+X/AEwzwJPi4c2J0uaSobS1TXvjg/8ATP7oalWFFHHVol2kTDc2bRK4dyYaqvEXf8GbZ6ElFhnlDoGDS1S0KKv8YDb3Xyd066+uDeAtkh3Or5lTjSGEXRWQ/mWAnOAQ5JMm6jRHW7Zoq02q/RSGuFOGmhcmHRUnnicUEy7suiC5G0xMW72HMkVP80DJutzAcEtm4AVY2bERbdqndDRyso++HJxS5tpSStVhw5t5tgOTqlzh2pWqQ+zwRO3sVFGkbATrkmmXXE57uI8ltmFis4fXXo7onpcZthX8kw0dS7eTohwuGil0fR5UHEmLFtonb3wNm7TKOWTEvdM1Rb7y6NIkklJd19RIq4YKVNIScGUmZdWc8QmFonikKso5MPomqtyyFT/LDKvfGKCXV66QXf8AOad3GkS/6oP5lgJbHwLXUO6y7oVPvj/6Uwr7vwflN30+m397riZ/CeUY1v8Ah20pXt7YXgvklnlHAxMX6NeinZxDM8sx7nEC3Ct6F7eyOD/2lv8AmTi4Q4W5XWp4mFhfSLrr28Qj7m1tSnx/+2P7t/5j/bH92/8AMf7Y9yOS8l5Vs4uJfb06U7Iea5RyjEK6tltOIu/4NxtDJpSGl46jD5cFuPDIIzhE6riliO13hr1dccKMThuOsszpbRulXcHpiZeVx6WYnXUwgR5a4abqVX6X3xwywwLskaYShLq9VRHpVCr05xMyMqk1ISjslfRwtoCupclVWnsied4JMx4O5PhirhqqOPfTSvR2xKNT0ujbrsuSo+M0Tl1qIpVToiRmynApMYgAxipsDlZVPpLnExwviue6ATi08ouymJbZTqpHCrrQvPiwgWvg7akrltbPyuuAMSvEhqi9f46nGkIPDCS/KbUVFcYvWnfSOfD6BeqOUEcsr9a4nJlur32xz4fQL1QHufyZZ01JUIWKEuWedO+ALgYphGMFEXDfsS6q9scmAmp1RTEsNqvnzTtiY5FISwTOGWEQNCKodMqLDfuhNTrOJWz8KVa/xiVlp+Zem5ZxVvaecUxLZXVFhkJRltgFlkW1sEFK3FDalwdKLsp/gDFJWXaY/Vgg+9Lv+DcZdSrbg2kiLTKEWUFwKDaiK8ZJ4KsTLRN7E0VzyXrtL/SRyZ9tCZy2dKUh9rBvGY+NxDU1LzrD7ItEoTCUdVXSVST9KtYpLgdqhZaTxmNvcqxiS7SoSDalzhFaPUldIamFZHGZrYXVWOUqzt34lL1tv+lbpWHHXmlUnfjKOEKH3oi5wiClET8dTu40hkV0VkE/isfHTnpj/wBMfHTnpj/0x8dOemP/AEwDDdbGnXgSvYJQEvKtsGBNIflBWuq9vZCcI8Eqbr5lgqj+aWrn0U+jC8JuC3j4Lh0RNnZr6oY5YDIYNbcNFTXz9kcH8KC4/wAow0O1SS2qj3Qx+yj/ADFAD1JSFVdEgy4KblwlwKmLMaL/ABgpThFtGZtEqlNCTs4y7/nNO7jSJf8AVB/MsMUX/wAUP8pRvL4xwlVa/F//ALQX7TMfYcNfsw/zFBS0sYoYhf5QqJ/WcLwa4oY+C4FUXZqVfXE3y5WTxbbbFrpX1xNPsOsI246RCiuLp4QDE6QE4QX7C1yqvq4ngHUgJE8ICTGY5PMS+ybZZVz1iTaZexll2yvc69MuMu/5zTu40iX/AFQfzLDIy7RvFykVoA3fJKOYzP1JRwjylhxm7DpeCjXegv2mY+w4aOXlnnR5OKVBtVTVYV+RmJdtxRtryquXjD8vwXMgbFRRuwBOuSffE37siY2WYdzVnXWJopKaZScbpQbkVd7qgpr+0zzRTYHhjV3C2NdO9V475hgSP6VM4H3OEZWYazbMYDlFMWm1TiXv+c094yX0WAX/ADLH92/8x/tj+7f+Y/2x/dv/ADH+2Gpi2zFcdO3qqJQMtyPHubQ7sW3pXs7IKWxsC1tTutu6U9cS0niYuFMs7dtK6LxTEzy+zGcU7cGtK+eP7y/0P93v1+c04891YR2blWXzpRCJK5R/d0v6Ef3dL+hH93S/oQL0rJMtOjoQjmkYk5KNPOUpUh6IxJOUaZcpSoj0RypyUaKYqi4ijnVPgaDr86D7zZVUjfLxjfLxjfLxjfLxjfLxjfLxjfLxjfLxjfLxjfLxjfLxjfLxjfLxjfLxjeJfP86p3fMD5t7wgqpDCgj1VJExEKqFXrziopVvEsswS0rSt2kC4uHh46tW257yjWKilW8SyzBLStK3aQ46RtCmIQAlir8qn9JBWuIBhMNjdhqNUWnRXth1G0uwlpajJFf5+iJ7CIBbaEhpTNdnWvnglBbVVUS7qqsSxS9RvcsJLq3JRYlzcVux4lG1BzTX1fjqd3v6lp+M5wJChbO6imqoPckXoi63UuWle6Lbcr79emtYvou9dS5aV7ow1Sg3Xa9NawYUWhrcW2ta98XKhdu2uffB4gqt++lyoiwomlRXJUhDFCUkyS41KnjDaIOTa1Ds/qvv5ggWhC2SovmheTvuPDgkpXfJXogOVAgorKuXIVdKeuPLsoFwKQUOunQsIsw2jYk0rqUO7JP+8IC4e0NyWO3eMVFasg1Uw8+sH8sSmLB7EsRYUQbuLGwk2vzaxtsigo7hHt9Ph3Q4Rhc0LxDddnvdUEPk7RO1fKbXow6NiI22Vtbs693wSd3valFA8inZrEknByYrSgl623VLpr1Q/OXkSgC+T64R1AVpekV/F1IyQRTVVg5sJkFlwK1T7YV2VdQwFaKvVCKUzRFFC+LLTwiXVXEpMfFfnZV+yFalJgXTRK0607OuFlWpkCfqqW90clWZDHutp+d1V645O9MgD2Wz1V0r1fBG2WhjasK30KlIC6qoDat060WnqjyjrjlAUBuplAVqqC2rdOxaeqEq844iJREKkK9ncoWwQNkYeUxEVPkrGZmS4uJVeulILMtp3E8/9JBeUcsI7yDKla1hVB1wBIrlFKQ5bXbK5fgk7veVXSFfAiwEWiB+bCiCdt3RCjjKudYRbsVK5F1ReK0IVygXB+V+LEDooYLqhJrHCUxPNoYt8KO4Q0+X0UjhJ2XmWn5+cIRPDXICPYFEiS4Dl9wxRX/zWR9ekFjIHJpCTW79/wD2h/GGjYeaZwWzakmE3tMyXw0jgPg5jKflpwSea+UFK3Kv9dMcgF1iUlmJjEd6Feeronn1WJiVacRl1DTFlVZ2pvSlF++BVUtWmnwKk4SAKaqUWsvtuFrQTRYLBcBy3W0q0ghadBxR3kEq0gmwdAnB3hQs0jCxAV36F2cYOKGL9C7ahGidBHS0C7NYEHHQAi3UUtYFHXQbUt24qVhMdwG66XFT4RO73kwLCohkCilYHlFLRWBUflZ8SovTCqKZL0xaPyFpHBHuc44LpOFQQLfXZonbDScF88mWyJxALNkR31iWmkMjmXEsEy2s6rnDk6PC877ottq4p4uwqpnSnVDU3wahcqcSjlm9ktCUYBJfhDhMJrOstNHv5dMYOIeFyC6y7Kt3VHCTHCHCr8hLgKKFszhpWg9ccINOvHNSzD1rD56mmfT4ePw4YoIeGV416F4nHABEN1amvX8MoPCJguoklUjhHhR5oGJJwVZbsG3yKall1r9kTRKLIMe57mFyJf8ADTpL87qjgjlQSwC5Jmjayuq5IvlPN/GOCnJIZbkZKSMKwVXCVR+X2axwZMzLcq687O2miCqPIaqtSUq/w6oWatZ5L7qXX1/Ca3Up4/wh96VGWWyYFZs6+XRUVNyOHXpgZQlYtW2YRVIgtyQc9np86xMHLtyvLeTDipNKtwN29HbEuskLJr7mDVJ9ckFdFT87riRJu+3CRNvX4Me73jyM/GqC2d/RBNPrciZ1pGCu+H8eJTXe+T3wgq2KNKVKdML+eV0cGzGNhcidxLbK35p/0xwm5LVB6faJtVXNAu1okDwTNkrzdtqkmz01rHInuHFKStQaIwiEqdVYak+CJpZDCpQ7L8ol53hnhBJspZVwhBlA8Vj3Txf/AA+Dh29ta1ib4Qm8KaF8aIy4yi26Z/wgW2QFtsdBFKIn4+okiKi6osI0ACLaJS1EypBcllmWbt6wEGsEcrKssmWpA2g1hXmJVlt4tTFtEWFmBlmkmF/xLEu8Y5RyVnH/APMw0u8YR9yWZJ9P8RW0r4wLsxLMuuBukYIqpAnNSzLxDoptoVIHlUs09bu3ghUhEFKImifBj3e9cJttBBxbip1xiDXYzjyJo2KfmosKr61dSBdRvdzIoonz8nvc4MWDwlJNF0rG+x6S+qMSceQlpSwPXFjY2inz+nd+RA935EJ+RCRlrG+Hoe2N8PQ9sb4eh7Y3w9D2xvh6HtjfD0PbG+Hoe2N8PQ9sb4eh7Y3w9D2xvh6HtjfD0PbG+Hoe2N8PQ9sb4eh7Y3w9D2xvh6HtjfD0PbG+Hoe2N8PQ9sb4eh7Y3w9D2xvh6HtjfD0PbG+Hoe2N8PQ9sb4eh7Y3w9D2xvh6HtjfD0PbG+Hoe2N8PQ9sb4eh7Y3w9D2xvh6HtjfD0PbG+Hoe2N8PQ9sb4eh7Y3w9D2xvh6HtjfD0PbG+Hoe2N8PQ9sb4eh7Y3w9D2xvh6HtjfD0PbG+Hoe2N8PQ9sb4eh7Y3w9D2xvh6HtjfD0PbG+Hoe2N8PQ9sb4eh7Y3w9D2xvh6HtjfD0PbG+Hoe2N8PQ9sb4eh7Y3w9D2xn74e78iE7vyIT8iE7uJBbebMl6ELjUSNEVEqv5Bj3cTCK+yo2biDtfbElc+75aXvPb1XL1wwJGWJYqquLhp4xVwq1l2C86kv5Bj3cVRbBF60GEoiZZJCVAdnTLSN1PD8g04lAJhojuttQ0rXqi+ZdBkNKmVsAbsw02B7qkaIiwVzoJYNxbWidcGbatuuICGjeKI1GuucWOTDQHWlpGlawjItuzD9LlbaTdHrWuSQTKtuy74pdhupmqdaUyWLG5lkzVaURxIX8KY2RuXyqZJ1wDjsw0DZ7pEaUWH7m72mpbHuExqvZb98C5oKjdnBONPtG2O8QmiokYoPtE1Wl6GlKwNJphbytHyiZr1fO6d0Gglaqpr1R/Z9rkoNuNvEivCYri7JZpTXzxJkki6IITiGqNtm4PVS7JKxIIsq/jtNvBULDpU9CFejtSODqy4gj8uMvOi2tAbFCEtPSTzxwmDzVz1rctLp0k2Ba+f7o/tEayuIT4hydVpmqB0eeHWptnGU3mnlaVU8s2jdtErraWdImEZY5E0KzJCV40G8EQRyXz+aP7PAMkksQMPIRCorf5PXZ6PXHAGPJj5Fp1JmqJr0ViSlyk1wxB5LmwAjElNdna0GkGJS5Xe42Br8u5dmHpFpgr8BuiqSIh55h/D+MPFKcFLK0JlSAlFFfESzGiZRPONSKy7T7stRkqVK0tolT+tI4dwJMaumystRE6KVp1fO6d3ErzEqy28Wpi2iL76yaZbfHqMLow5Zltlv6IDakEcrLMsmWqgCJ8/J3fkQnd+RA8WJetrxE3Si0T6P2L6UYlwI1jiNtNrfprEwQEAtgdlKZ69cTR7OGyVqJTNdlPXDqIGKSBcK4JN59WcHYouOCSf4RIop+jFVMTWqpVEp/Do/IAYpAtW7A0ondpFVFd6+ly0r10glMV2lqSXrRfNDqKOTq7fblSDTaK5KLcarC71VWt1618Yo30rVarWv5ADxS7wvIrcwVrWS7S8bZA4nlFUQu2VVU7F7uNvHOzFNGw7SXoh1ho0J1ql6J8niQnVVEUkHIVXNYMQMSIFoSIunGTEzMo24NKoqLlCECoQrmipDrAHV1ql6dVdOJW0McREqo1zpAjOTAtkSVpqtIFxokMCSoknTBMIXlRFCUexf+3FMqbwikt8dX5PTAuBmJJVMuJ8TcQMCmIp7IpXt041I1QUTVVgnJJ1HgErVVOuH3GpgFbYK10lyQVhJ5ZkElS0NemGnJmYFsXcw/OgXGSQwJKiqdPzKMLHBk1whR2XfbVmXP/wC3K5cv3uuJbFfAZ1ZgscCmHFJRzyw7aJ2LHBE5yh9XnZ4miudVRULjyp5o4CmZ8ztGbdEnFcJKZnT7o4dnXDmnCYeMAFt3dS0dIm0OYDkgy4HXlJPCi1XO4o4OGXNG3Vn20AlStFzh6RBMOcYmB5YaEqKbZL8bXXPr6IewZr8HWcYFvBfNyyq7VDJM/wCMT8qy+9gtzcpYhOKqpdvZ6x/abCcNubsvDyhVttTPxiRlyN2jok4pvThtoRZdWar+bEjyp2+ZNsl2tVoVPVHD5cHYSojDWIJhVVS1dM++AZk3ztZ4PFWDKaJu7JcxBEzXKOEnZ6ZdZeKUYJpQMhq5YvV09kIkyRtTgSAubUyTflKLW0BTaXKG3ZgySZfkWjCpltltXZaRj8uXg6ZwES51q9p0arl3xJg4ysi4smTgto+TDd1fkiKVIumnbExMSykc4vBEuVya6lVYdwZhtyVwUuAZhx+h11uIcu6OE5pUR+RlZptx6X6T2E2v3daRNFykGmlabKRNZkw1TeERRb844fN6YfFyVlWnAwnSFBPDVdPNHD2ITjlstLOCKEuS255RJtS77pSSSGIKA+VCW/p64kzacMVcmjB0CmSMqbWRBS0dMoyUHmTy60WOF2+DWiNxzhR4Fw1RFAelUrHCcqsiTLAuhsO2qiUActdemJgyAVIAmrVVNNo4k5qfLCl3ODBbbcLS6tVHwhhDFW6qZCKpoKkqp8yj79WXhq2tKp79JilXUCxF7PxAGWEtbBKJ81J+RCfkQkVgJgXto9rDps06uuHlVtbGitrXVcvXDlw7YW5CV1btImFmRUAbbFba1+lDqkG02N1EJCqkTPkrXW270RV1T+kjaQ7sG6xFSkOIOw4BN1oSFkpQz5bAEnKEeWlF64cVXOUN3ILZ5bS9XVBbNXUNAsFa1XvjDIDaMHARaKmdfugkbbqKVSt3SnXEupM1de0QSyjcW/Gwrf67M/nhOJGxmFSXT5NM+67qh4CL4xy9MtNPVBibiXEqKig3bbTSHuUuYmKIito0pSvrh0TcGppTYatpDpEWTjWHTx9cLiu1JWrKoPbB3ODU7N1uiJaVYZWtMM7v4Q4iFRFPEFLd0oWtSdQ0NMIEGnmhx11SSpgqXJrb2QLxuIVqrTYoXnWGauXI1W3Z6IJ6hCAjRK9Jdfh88J79FvGirRFr08aEKoSL0p72oqhJ2Qg1RCXRPfW1S7WnzkkF3RwKCTDfJ5sSbQMLMNlVQq9OkSp8vK9ZtErZn8bSJ1hicZaSVlwdqbVblzr5solZkPISxygvGTbOLaXala2w/Oq80cuMtiAiDRa9fnjgSRcVPwdopt+vWiU/mNfCB28VmYYecaMpfDTZGqKOdad8cFcqeZmG+EWSWwW7cNUCvnhqasBCGXJywEtTLsjgflc0y6zPNuOmgtW20CusSwGpTEvNA4QLgYdbc0szr4xNG03McHkChmdtS2uiiw3IBNAIBKi84WDme3Re6OCZeSNmW5UszcqNZJaXVHBQPYWPdNtK7hdI5VTqiWm3JjHAZnytw/4d6ivriYfdVMInyGXT8wcvuWOCUWaaT3SBynkPi7OnXOJKWB5uXecB0nHsKt1h25JEo61lXFxjYaRxdkqIqCq6Q6/LKy4qcCk+LyNUVSu8adkSDc2+1MNz0uTiILduHSn8M4WRkZkGG+Q49ytX530iTCVBQM5RH3FbbQ6rWmiqmWUcFuuO8nxJQicZRKpVFGvzcnFLCDKIkt8V+bD7HJxwXyucDoVYedmWxebIGwAF+TbXp88AUxLAagNqdGz1d0HcFl6AhKPSIrVB7odmVqTjjYtrXS1K+uD5OwLTlhgB/RuSkNq20GOLSNk5TX1QzhMimCCg32CusSc1KADAsYl4IO/clIB2XlhBwK2r1Vg2pgEcbNKEK9MC6y3aYtYSLX5HVDCtsoisXYX5t29DbgMohtkZCvUpb0TMtwfhyvKa4qqFyZ65ViTBG0Xkg0aVdUypErhMIPJbsH8y7WAZclxVsCUh/NVdc4abclgsaSgIOzanmh8WQFl05UpYTRN0OqkeTYDFJtAM6awLjLIgYM4IqnQHVDLJyw4bKUDsTqiWImRrLfE0ys/LfMVjdKN0o0KN0o0KN0o3SjQo3SjQo0KNCjdKNCjdKN0o0KNCjQo0KNCjQo3SjQo3SjdKN0o3SjdKN0o3SjdKN0o3SjdKN0o3SjdKN0o3SjQo0KNCjdKNCjdKN0o3SjQo3SjdKN0o3SjdKN0o3SjRY3VjdWN1Y3VjdWNFjRYyGKr/AOyUe73lVySLgJCTrT5+X3o93GTLLdzg9K6R5ZxVTq6Iqw4oQLc03muSEPz6vvR7uN/v+7ixX9iXHVeuB5NXCxUtrxhyty0nNwBFSIvMkY0m7ihWldKL1cTr7y2ttipEvZAOtrUDG4V7OIGCNEecRVEetEi9Acb2lGjg2rksS8u6dHpm7CSmtNfgBlFL8IIFNBp8mJeWcOj0xdhJTW1KrxS7LxWuPla2lNViWZcFw3pkqNg2Fy9q+9MG0deJt4WTQG1W1V+73uLMmjbdUSqwUohfhAt4ijT5PGyy64guv1wx+lTWHaA4GG4obY0r2p2cQLMuI2hmgDXpJeiHmbHEVq3aIdkq9S9P4ovvR7uO8kuEqFSAmmywgT40IwJbYlh6umGBT6VeNrhKYacOUKUwL2wvsK6ucSxsyLkm27wo3Wmybg/TXqiaaVXWWgBtJG1pxxe2yha1644X90gmnX1lR5EoCVNzb0y1hnlam20ki0kv5Fw6FTOlqpQ++JtJ3lDihwYCouY1coueXTH9nJufacIylkEnFQvjMraxJsTLJqDk0+pGaOKI55VEda9Ef2aV4HVVo5pFVUzROiGQFp1+4TxXiFxsw/WIuyvmiYEWTFxqXqydHCvX8y3Ie9YVx5HCcCQZcbqqoON1xJkbjwzFD5UOAef6ZEVO6kfhCkMpybyS4RuJiV6LVTahG59Jh0U4HRalUKuIXT2xwYxNsOXcjUkdcFwqnpbaPyu1Y4Jc4YbmXGE4PJHlRC6/lUzj+zqqDuIIzdmImYpbsXQwTbjwzuG5ygcA96mV5EVNdKRwGotTfKhdPliuiW9Tt+6OBXTaI8nbiz+SlRiVoE0nDXL/AMJJbrcKq/u20pDk08LnKVccCpquQ3aUiYqE17tcv8gSIVuDXwtpWJ6cQX+VtcLLhLUt25OiJlQBzPhllck+TbE9OIL/ACtrhZcJalu3J0ROK8463NY6clUGHDWzKlq3IPfWJZsmlNtx3bPbtDvQc1iWceGYJqV4WXRsqi1T6OtI4YcOXeJPdBHW0IVut2c6d1YfsbcWVHgoVZpcmedI4KXhFTSU5DqbRn5XtQVRa064lGeEeUute5e0p1bqt60rRdY/sxNcItPGg4gPkqEqpnsVibxwf5J7tOLMIF1Va9UC3JsTaybk5RFmMS0EprQdpQ7ITlLTrgSvCn0D2Wcq0HWkf2h9zxfw1CVssRaqFu1b5o4X9xQmB4PUGLUVD+MvSttezWOEsIHuRpLA6qJcdSz07YEkrQkrn+Ir70e7j2PjQzGDbW4Ogk4sZ5KOn0dSfPq+9Hu955YNr6SaxcA3H9Is/n5fej+Qa+9tLT8g7Az6/fbKqndG+XjG+XjG+XjG+XjG+XjG+XjG+XjG+XjG+XjG+XjG+XjG+XjG+XjG+XjG+XjG+XjG+XjG+XjG+XjG+XjG+XjG+XjG+XjG+XjG+XjG+XjG+XjG+XjG+XjG+XjG+XjG+XjG+XjG+XjG+XjG+XjG+XjG+XjG+XjG+XjG+XjG+XjG+XjG+XjG+XjG+XjG+XjG+XjG+XjG+XjG+XjG+XjG+XjG+XjG+XjG+XjG+XjG+XjG+XjG+XjG+XjG+XjG+XjG+XjG0qr5/wD+ps5+34LHP2/BY5+34LHP2/BY5+34LHP2/BY5+34LHP2/BY5+34LHP2/BY5+34LHP2/BY5+34LHP2/BY5+34LHP2/BY5+34LHP2/BY5+34LHP2/BY5+34LHP2/BY5+34LHP2/BY5+34LHP2/BY5+34LHP2/BY5+34LHP2/BY5+34LHP2/BY5+34LHP2/BY5+34LHP2/BY5+34LHP2/BY5+34LHP2/BY5+34LHP2/BY5+34LHP2/BY5+34LHP2/BY5+34LHP2/BY5+34LHP2/BY5+34LHP2/BY5+34LHP2/BY5+34LHP2/BY5+34LHP2/BY5+34LHP2/BY5+34LHP2/BY5+34LHP2/BY5+34LHP2/BY5+34LHP2/BY5+34LHP2/BY5+34LHP2/BfyjMGTFoG0qZrHPg+rjnwfVxz4Pq458H1cc+D6uOfB9XHPg+rjnwfVxz4Pq458H1cc+D6uOfB9XHPg+rjnwfVxz4Pq458H1cc+D6uOfB9XAA8Yug4lQNPnVXZF1WjVKLHPV+rD1Rz1fqw9Uc9X6sPVHPV+rD1Rz1fqw9Uc9X6sPVHPV+rD1Rz1fqw9Uc9X6sPVHPV+rD1Rz1fqw9Uc9X6sPVHPV+rD1Rz1fqw9Uc9X6sPVHPV+rD1Rz1fqw9Uc9X6sPVCOzzqumiUT8o//EAC4QAQABAwEFCQEBAQEBAQEAAAERACExQRBRYXHwIDCBkaGxweHx0UBQYHCAsP/aAAgBAQABPyH/AOtgUFSEAImVYzV/k1YX3xragXttpeN9D5qY9bBmDKrYL5oghXMP4b9HY0zEyCTAGvNpSmsSi7m3HlQCRGmp4Jj0dkEogBgmMWycrmKudQxOKLaeL8ZqcSr1EB8v/HweUwSvKluQBzxvNxnca3pwIbctpgjwZoZCc4U1epsjHG8x8zWdiaPAtwBTDpqZqyrlNF5N9abzgF1aBxoBiRCVqY9GpDN7ht3ZeJYoLTuGmri/D3MuvISnqv5SKFzwLdpzeLcaAvbGWILMrnw3Ukxg0xxym/fwqSwRgi2zDdf02FRCh1LIRyVQMyF/xHg8WafhpTJQ8vfYEKglh441KWGSRdtY307YlrIzjdb/AJD7wgHXnV4kbcm7m6eLRC4AaFEo3GiFBP7onwEOWwz4MshLLOCayOJp8lUvMRyTE0v9yDfM+RgjWmkELyB8VPkfnRGmLNp89KjiyvhMZbAICHvEEhuVEY2FaCLVC12dZ3ZpPxyEpzlDyoEgnKrKt679k1PQisImDlQ5SyYXGI+ClxSLTE1Xw/5AMEjTg6th1aEfiFYhzpOxCgkJ4UwrM0IMZ2N5FWAszvSZUSW3InE8OPYGA4GMf/FokpH/AIeJIT/+O3xk4Liz5vKh868E82jkXMsDnUzeGRLExRC1gAJwHO1AZstFPlsnzjAwLrVhwouvgnCmbkJH/YvhvJtuV88mls69J8JndQcbsmX4Xzwa3mNP93Xd9F5pLEiRaF9azsDmMh8X2NXzYbvPXCWO63IM29YqEwmej3U+opEeMuQAcLdG12ARINgiW/0VarOJzxPma6RcsrLUQJ43ywjgq2aucQoToPE35g3HPMyYzUFFHeRkTM33GvD/AFtZogEgxdE31a5p2rz3qFZogMkzdV3/AO8gDMoyeP8ASkxmKYmMgN2+tXmq3Vjiyp08pZBOVCCV707NGGODMZn0v51kzfgGi+bSoYkLtaCgGhNGVnfo2ilhABuwXnBEpvS1MIBFKRkycGWau9AFCQ5Mhgp7VLkImcxrUZSBcdcJ2MYHCMWq5I53MjJ4Q5vd/rdolgTYjebjWL4tw2dZ6/i1XqlgRZncbzSbZv8A/iQyGXfXWiutFdaK60V1orrRXWiutFdaK60V1orrRXWiutFdaK60V1orrRXWiutFdaK60V1orrRXWiutFdaK60V1orrRXWiutFdaK60V1orrRXWiutFdaK60V1orrRXWiutFdaK60V1orrRXWiutFdaK60V1orrRXWiutFdaK60V1orrRXWiutFdaK60V1orrRXWiutFdaK60UZDDv2RUVFRUVFRUVFRUVFRUVFRUVFRUVFRUVFRUVFRUVFRUVFRUVFRUVFRUVFRUVFRUVFRUVFRUVFRUVFRUVFRUVFRUVFRUVFR/wCMCk2JV1krpJXSSusldRK6iV1ErpNdJK6SV1krrJXSa6TXSa6TXSa6TXSa6bXSa6bXTa6TXSa6TXTa6bXTa6bXTa6bU7/zqd/51O/86hz6yukldZK6yV1ErqJXEeZXEeZXUSuI8yuI8yuI8yuI8yuoldZK6yV1krrJXWSusldZK6yV1krpNdJqP7FQfYqf6Kn+ipRezzoOwgob1uqZ72f87nZjbM1z7Zl7zWnbMa1jhjPYDs0og3PbtO3T/XpTT3h2Ta0Y267dacSqIXUpqNuDXWcOxr/wF/xm1o7OlFLEZ1qY8msXLbg16c9thTTETC4RFHkclHcnRJHwZ3hTG8aiAzhPrq7qkZoXshTMMX5Zr8Y/lC/wP5R9Afytz6MJjVbU8QjhaPFL1mHXEBA4sVEzW4c/GOuNDmmuJRPAvzKRKQwD2uoaDDE1C/pX4x/KR/kfyvyj+UM482Lcbf4HPfGzTbptexr2JlTh5Vi5bcGvQvbYUgxAzkndUgJQZMWeGTDvDSasYRFCbaeHR8cSUKwHrELD7ehSEktWkt0mecUOQFwo4xK2vRKrC33ExcWpcW5A0A0inj16xjx640oCC2LJeOX3oFMRzN/WiOZ4hGYZxl8qAMBLDDNvA+k1NgSVapydeVRVEyYR3RpUwweZ+Oayq7n92KZShFseAGXlN+8hdSzeBakO/MSYc6gcUAFoYPZo7AW7dN80kG24ODvyX8N9Z7Uyg68s72rRVpjCIV8SjWiXnAGs6caGBItButxhv/OznutO4dihRnZg8qxctuDXpWwrKd7Y+FB1W0mzRQXIcEr+EJNw4hUgoZWIQsxquHcnGothgKcUlIeur1uQBtOYKjNRoWhfHx4UgSgXqFijRFPM/lQss17hjxc+9MbEOro+FOdvJjdvok4qgXrMQkFqvsFObPxWWR5D2KsiWDBBZt4lSAuk87/PeQdnGwiUUDhE5LmM1K5gCJZlQ9H9VMRbt0Xw0ASLzBMjfCQfqgyl4CAIoCJOtojWjwK13QflFQeUQrkExoyaz5VHy1hROYJu2sRxrf3R2NNr2NaW9RSuGxWeVYuW3Br0baAMJIyhON9IgGfL4onYt2VnIzoiSOiFRYIJEkplL2mzAEMusCtQxCBtZd1mZohuXOFKCSqBvUbUBdSBazLbzrC45liaEGhds+FKAoGAYV5lTNJu3Hrmm2x0Bq4Z3UF3QPIqagXOVRTZJKddyXz78Kj3GJlsIRu797Lijude9c1MTwpLdsweVYuW3Br0L22wYYEGUTG6jtYKplI8MUhq8mp4UWLluQxc0xM0kjlgduLvut7eJUfrLNjyLvi+FIExTC32RUg0qSWdC0vGoMppmDSxBHcE240RcVUYQJoxpypdYDaRQNWDNIZ9AAnddSDMzwtSKCSRJJOlpotsneyixvGHn4UDnVmYXpaUh3z9hHggo4EapjdwrAAgCxEEcqSbTbvDbOK0DNDV0NrICCueNM8W2o3AAY5SpsEl5waBJxJcnzQRviaRJAXQhU4atLU3CQZXIQSwXlN1s0AliGiDTWnc69w0bHZFKOJ24PKsXLbg16F7bbGpJaUTBdq4jkJ707apUSToXxXAx1r1ZkvAgi4VQ5a0x4UMypwIXNUma37N7FN40ZkS6vzpbYl1ikoAB1aUoiTo0BYKUUTgyxgT3aAhl1JBUWtScqwwFZOXjQGdsrUWsJF8qDRcrMDyK+lWC7BiDF0yxu7xyYGYkyCzp70ITB6KCJWyG5TUaSNXiMb1qQIKB4FRa5I4t9L0KjgCki1mWm6qW9rMiXu1q2NKziIIoBI5FuNqdmZSOYCfSte/07lzA02uXKsXLbg16N7bShhiIucVDS/KrNNmHXYVur04091oVAE3hGfMqHMqyoYVkwFTQQF74pFCoEcn285qZAkV0dYOe4qIDgNDGASUAJlxlsedWouRlaY1jOKgu6YxcIcedAu7xHyaQ3hhWeOh50IFBtBkIzMa7pv/AI9KN/fm3TsqBpztsXKsXLbg16Nt0ovghMYmlkkkmf5VmfLPavhNe1N34XytT282e81Ph9N9HVIgAzjNg7ql2Xc4QwlKU0EoAN2IpGg3HomIigvCOeVqOylolpGfCb0oSS+jZA63lsYDWtVSOU92iWCDdQmpL9zvcdrSjH+Jo7C0PGnTbg8qxctuDXo20lXB/FLlM6MXKGJq2idbloNlEmOIMBrS1D6RDdSY4+lCUrE2UsCKaEqCRIiZP0ViIRMNhmYYktYYmV1taxIra0Uur3GlQZtFYMAljnq3gTyqYIecmG4FZC9jh3uadk06bI7udmm02ux2TF6UvCnarNYuW3Br0Ztgmrk232pJ0hBKCfGTOeFQ6NuVWRsgwwXGtI2kQNLUnGiaHgiLIZebB60UIYmVTmJx6U92Asb2n7q1Rb2MeFCkgb2i1BLQU4T65oQNhEBE8ObSyvw3VKDZuPNr4Dzo1FS4I8uvitWDxOCOIxR6sDl4p/anvHY4/wA+nYfm7GKw8KxctuDXo2xpJAc/xUXJg141JxISs2irck3RR3Hl/aBJiU8wn4psizN2eNKdLjzNQjyJCJ420inuxsEvE64TV8Lw357qFIKuAsj1xjrhQEljCYjRily7wsW1jFSSbENx5Waj+HEw+Tenxw1qZMCsIuigGu4cz3hSByOApeWQML5yWveK0dZN2nKpY2utO6pI5bI3sC3NKjN9wnTlUsbXWnvJ51ERNgZrQjPAtmBFJi+/yrREXNFX1prtxoYCpEs1OpwXJuVKgpmYXopDMSaxVjPUxtblnJEpRkgPJl41zT/fN5QifasGhhhm9Gam5Njs0rDwrFy24Nehe2215fhSwLo0ErsBvJnrhWqCmZ1nFGAMoo5Kj0qQpMxNPxh0thoE8BEJmNaAwkEhvAlyZKDiiJE5tPCPKoszioAvF+Kv3kVMOs45B40VB0Bl56+NDUgkkSDdDDUAGAJqbEItz31LCRCGfW1XEKVdGYDNl05d5DldrfFBQDAgZyVyliW7jUaIbrVLfBFgmhaKmkFc8XN4K8maGxgo3GmimMZN0E1KKBb3AjeEIhmMOZuUyrJFd81J+e8awaBMqoKEahFAEggKr6Tes8wTJZxJvYuWbcKI1cu6lnEAck+ljJjA4hcE1CdGM4qFJMVQJASrBYBfCLEaLsmlY8IxV4ErzKaKtiL54l6AM6NyEob8akKPkHOJJri3KlqJyiQvN7f1UoLWdjtw8KxctuDXoXttUbltM7qIIC0vD7pBX1yTI/dCSpJ9dznuoZy8sL6CfO/tUCbSTRUhmaUNg2G+owCR0aTL6vrSWCQGbxakKipFsT+0Z7c2mik+lvGowSxnfWhSh6UyurSRjaCck/tC5MJiNN1RlWPXNpnu5jY1P+DXs6diI2aG12NYeFYuW3BpeUe2yKgjXjOpZbxqVZrLGm6KEVxC9WiyRhqOf7SsyIn54nxifGoEvkGlKI1aOO8YbygSlcs8EJqSBItlGLbqQBMp7UrXWLe/xSO5LSQEyFAQQkcUL3X2hOjFJpBK63j+vocaUAplXByx3gMIgymQHXSiKKwWErkboGM411oh4GywpEwH21obsUMofPoEe9GKcUMliFmHvhGkYMWExztVkN7CMPCbiyLjajzzKZwzVQDAa1I3GR6kSmVpeGL0aLdMn1AvNmMREvFJCIAuC0FHO6aDwSRC+W7GSBjSjXJywQmVqk3ZEbU2GtoAYtSyuHXdU8B+5mC+t72xuqmM0p2PYxeVYuW3Br0ZtmRiAHF+tSu3HNQNgs0dxpZ3TUoXWUjDEfFSguMTSyol30gZkTTdQI7OZi39VqZtUDLwjyrj3W68aibG6ktBuq1Y3HOmLsSTMQEmdM0sG7FQ+R8xU+4RvO/upppCEQ4DALrrR3mNjHgRiETdmbU72gIgbVOYwiDlUMkhmEyqQZR64qZ8pQi7Lb8EW3vfKLIwJuInneoIsViotFZhN1ZsUtNorFuSAgSZxVize7LCQojbiOlPloiZxLSmseFTFPqcLoNCU1ef7R7RGshiYkSrG21MVuDI3k0goL1ggObYqQRaAFBBYGZRdIWIJddb04seNabHOx2YPKsXLbg16d7bUG5ahLelPOozFSypKtinN2ABDjP9paNd9JMCzHCgjN7WtPOtcCY3p9VCDDV41PJiSLRpVz7cuigZaeFZBpwpQ3CCdVn4rf8AAJ3qhykMAwH9/wAD/jOy52mna5cqxctuDXo3ttULd1Q4vgpKylKSyxkEWhtBbwC3w+dTzZpuLJ0KikbuMVLLoeOEP9pc4tiA+WXwxQE2J8lihUpJGd8XPBalJb7quTetyo5bRqUpJgA+GajJhCnOswLvY17WlTsdrn/OoxrT2HO32KxctuDXo3ttnh13aFLMc6kVZxeLUK0HJHF6TYhSlQSQR3rUMG5RDxKwBiHwGPmkRL1VBhxypYScWoZ9CkmeEXxb0ZyU5mmRG9MoWqECETF7RHvQjAFDAvgO5xT2eP8Ak02GxTydmZ2+xWLltwa9G9tqHU1c4eDztUeI1f7ilRR5D3pk5mq0tRMSZKAC+GKkjCcP7UHrejfWRiSj0NaYsA7qkbpQR1rfKrq71b6enyv70HKjH6VMym1qDMAJUfTFGjFv03wpJeIvEYxMHczT2V0/yabClG1jYsdjB5Vi5bcGvRvbvDuDuWns61r30dkrWtaUvLsu7sYPKsXLbg16N7d5r3JWnbdsG2YlEwTE+FS+c1p6Vlj3VfXIqykSedT2FsXaDJuoqwhQtkS+p51Bii+pRokucS1Tv6SZN5Jc4nDvNe2oKnY9tWeVYuW3Br0b22zUxsmpqampqSp2JKkqampqdk9rGydq1BN29EpRq1dC91UAnL5aSX+eFLMBV7yp9ONHDyKxGVuF/IacR3RIBMRYg9t1xIkp8lFgwLc8d7I4hhvD2lLGm12u3ShZ5Vi5bcGvRvbYtN0XNEz2Kjv81R3+ao7/ADVHf5qjv81R3+ao7/NUd/mqO/zVDf5qhv8ANUN/mqG/zVHf5qjv81SyuUNT2Ipp7Olbtkd9vBQIxb+FT8+RGRKyZLRM63pdRwJL0LYBcsvGnW8RAKXj9acRDvC4C+FODilFMbJ8Ls54Q02K17LsiNuTlWLltwa9GVNKKEp61IHCUZURbl2IYYbuJxkgM8tuXEWmBUfjbDCeT6xsTr9IqVOEgQin07MMMMLzYSN0k0os5Gh7L2V+BPlBI0s4zi3BRR1jCaVKLv2syQI8Zo0y2Hms0pCd5LUIghyGYWjBCbkzQzlhIisiXdRpa92MXGQJXRFYM3Zcr1O+8sSmHlTfhcq4ZRZT4ccUaB4d9lgu3ixoSuJwBIJCGSGYON18aQEjZjikW6JnDexPaJoJESZmnWAiqBuJwcCmCQdYsuyF7Fi2KyOVAmsvnUVgZGimU3TrSA96GVubwaeFKeR3Dnbk5Vi5bcGvRvasKUTXqX3oCSSUpYAhuIUwcVfif5XAbcjdGTioyBkCAC1QzhExuTPg0I+QXchT0KBxZtCQGdL0du3ucWY5tDzkaBsYt4lPoOJjCmJ3JV88pvrTbiVP+RFfif5TnAQAFCcxupAaCFdyV1ndr1j3oqew1O3SmhHSLHMSUBYiPCEhYuSaRliJazSD1pOC5ZWdzmV1QEsIzcBgzOCIopWFREuikmCYSfCjT1aRN4K3M1AqgQRIuvRiYpgATo2hhazfPhSlygbmVEtJmM0SunMXESRM5GpK5dATKAaM44VfA34jLxC+qtrJLPax807G4uvhhKU4iDi4hwn4rK0JW/uxhqWYwx38nGCkdpmzORpa2+jOqUNG8XWPynfP6oh8CG7O17DtycqxctuDXo3tWFYV699+2dhl5MG4kFDhSL8FpGkaEZDS9ym6j1+uzNFx0jPocvThwwASbh5NMYbjHX13f2LJXrO7XrHvRjbipqaiNudmu3XvpZRJLc76m2SRJGuJ9t5wq8aT31ceR7U+X9UExyV+QphZwmgS1WQTE3JUgwoojaSblhVvQBzZPNA34s51ejwAkbU72NdrU7XTbk5Vi5bcGvRvbYwr1777Drn7MsQHFhp+rRxcf2Z8h+OxyYMNAiFdcbzFk2pPeN7M+Q/FF8E4SC310r9Wh07ricKQLCK6KfzX6tCHkJTCjU2K9Z3a6zjRija1HYNamnO3Xv3RTNQ91HSksEB4bFHPtPYcbcnKsXLbg16N7U4rCvVvvV/AMAD+52BQoVF8IGy7zX12ME8o3GBYbpB40/PVJEu6JtHfSMZBaeSgKEg2H4IkxpBSPra7gm5uDypCWmsxcY8fWl6EyKJb5F2ihUwTBDBOLFL8ZDRBNeue9FGxqexpTRTnbr32tZorFLL2nYbHa5cqxctuDXo3tTisGvVvvSww6BJCIlu31H3BlTImGnC1cLVEt7JljPioVuKohJmFIm4aqUmYaQM6tLAmNydg8HwNCP4KJKUtRiRMODwqIvMGTMw/quFq4WpjmXwUsxHdsMV6170Y2vaminT/ACKKNezp2NKduTlWLltwa9G9qcVhXv8A3qBOSzlTZDYa0LezZrIapsIulrwuycDyq4DKMwgiHCpuXmi2/M95YZQ02VycnBEreULIsseFD+p374JxTpT5q6/lrZlwdSz+1O7AniQxg6DeKs+bMsYyw3OlakAPahEyJw1k8psS3XvzOyuMt7xkbleue9GO3NabCnT/ACLLOzTud+3B5Vi5bcGvRvbYwr1b70ykhYUjCJupG9cKoUBrhWuY416rpIiISg7p9nERskCcE22MD0jFFATKMLSsjhKIAgVuordRUcMQG9SRyp3qHU130rDHMqA8zBII1G13Sp47FCZK3ANaX/InKV3juoD6kMuNAaNGt8zDadRpelkDcEV6570bJ7OtOyKy928JPalSGemiL8UmXvFrnByVGIEmMtNe+Nji2zf2XPZduTlWLltwa9G9qcVhXq332u2a7FBslJsp37GA9GTJH0sm2b8p2MH3KShAhoO5sWO2swZlmRuYpgbp2YghA0zeitZQQHcKRSO2QnBQ7ukLeQh0TauobqM/YrTCbpO6jbOUQg4hRivXPeinstabc2Hi3Jf3oiMMy2IFu3zjyqQXc4Qtzp7cUx0cCLNZUeLfmta97Fa1ilv2HttO3JyrFy24NejKwrCvd+9XQwU4Uwn6RTaoIF+JbnV+lBCElEAD0Vo4OqO+FGNaEQNRnev0izegzyCJhyDe5S7dDCJ4l5NF2chbbSktzvpjm8KcVk4l4UcrzslJi6dLnBrcbWivaNpbqBUIAhiI08KLFIUK+6ENKgNZ4wkMHCl/dA/R3GtMeeJGeFlEMjcUNibc69c96Hs42Z2la7de8zs1pWqe8duTlWLltwa9G9qwrCvVvvsO+KTIiBElPgLeT00ZRmukM29M8mK0ts2wc8Tj12SvwVEpMy/W2JrpuBgI/g2aHhLhNpE+t6ZWp8RWkR7gEYlmjFeue9GOzpWnYZTEVCYiSmFLBmmJjAZwVgGnDUaNlUo6tJrUIB94jcsZBV6pT+sTYm1A5N7RPOWjWpcRTes41pUYmJMsqlgWbBvGKKEsVSB4JF5JNBowsiEgACwq4d4GKneNIwBFfjgZlosdKLSUJFhfE5ho5QBSIJZjsla1isH/AAZOVYuW3Br0ZWFYV6t963mmgtjLqOyseFwWkEQ5NNlaJi8l0lzOl170ca6hBbRvcvSx8E8AWsin5U8G71mTsQjEMm+Sj99ZYInD3lB7hgKQlI3BvqU/2GgIJgtoeVKVllWW3KoYZz8IdnrONGKey57DsmEEkXJLltzQAxApN080prkwgyANxkkBA1YToAtxaEhIi0Va3wMLMSy20vbSisAvJgErATYdeNTQcjjBaeaGmLUKkB+cjYWMVDrkYjFNizg0tT1Uyr3vJeNHGo+cRjPEYQ4lGUEABERi3YjbM1p3D3GDyrFy24Neje1YVhXu/ehsxZHY2DBghqSVdAy8bUq4IpkhoNyhMjbIxaE02a6tqAgMvEkQiVjVffQfEGyyZlblJ6JuBJtdrv2M5d0/IUauAlat5CVlLWg61Gn/AE+Oy4bfXPetO6Kc7de7KzU7N3cT2HPYycqxctuDXp3tWFYV7/32HXVjcOzdNlC2WdrkwfFC8gENzRItjRcMvE8XjVgY3yOWZDco0HmKJksblBhWFSIMoarZ6w/SqkDMGiUyzym1Atv+NUeLHpt9Y9+09kpzt17oxsxte8c7HY5cqxctuDXo3tWFYNe599h0lxQxBkg6vXSnxXhS3C7PM89nIATuIscnOm9HaE0i2d4KEUxZA2hhVk0h5yH4ROCo9sovYCT3E1K4FyUQFicXtDi/ARummtCgIvueDRN0h3c7F5r3o7GO0YadNuvdGyZ2ue+dmTlWLltwa9GU1hTEhotWdmwb4p4mjiaOJogrU9NzifGhW4KiQiJUibjqoCIkpfM4t5OKWM7DGeMlTExmOVcL26+PCvvWm3jS9opzt17kvsew9042OdjsycqxctuDXoymjU2T1OFRJHIqEvy1+Ir8RX4ipsgRpIQ+jREiJMsLx6tMWJswyvHoVB1y6CQzwgqG6obqhu7R6720IKNk6VPbKc7d3cZ2T3Tna9hz2MnKsXLbg0vKKamqaiS8kUqKeKeKeKeKeKeKeKeKeOn+aininininlyTmaixQitKmNi9spzt3dxG1xt39rd2Ha7HZk5Vi5bcGvRvbYlM6jurkrl2YbtiO7bx2CsNSo7NtEajbPajZaS4YIZqWS1eRET1TOLaUQezgnB4eiXhaZqc+VQVoCU74tG/wAPZwOg8PRLwtNEcXJFZzQutrDLrQcl27TXkaE1DjVjG22sFg2ysM71hshIhSmgtwDghxm9rN2NpEXmD6VOhXEuCWXNpnOaIeTVCg5mX068L7Y24dmK3Vv2tPY12ZOVYuW3Br07tp2gZWrNxkcVFRUbYqKioKio242cO4QgJEvbJU3Ny1FxgzpUUBcUuPdHpm9WWKicVPzaCiF9zd0emb5p6lHaxHIiXLvRQczGiqMQ3TJB5VcjMJDI4RN9M01FCAtGLgwvHhwKLyVQSI5KDFMsd3EmMVB+eUtzP9edY252wZBDRFDU66LgiAUMZmbTx0qIghLpekgvlZedQBILXEJbBDG6TO68gJLMsSJBDZvM1eetDRCJIhDfiZvardmmLwqTxILak6xRhWKYbJJ4396I2AkhKibZjMa76QYUINRtkISXuUbtrXHuouJJBEIQmM6NrXuSGnJOQUheF3jZtiZeYTtQDcgIcz4dnJyrFy24Nendl3e3BlpG2Uj3n+VaD9YprGkjG7W+46PaOYlw4WqbvWTu1GLnbmtO1MdyJ4ZXAfynstv4xsWu3MZml2cxpl0RuRxpW5qp3kj4Go6y6HVnwILVnTaHJEyLJ1JocngJhcgYhTUKh0RZ4l4XJM8Ku3AKm/AoiWkxWdhUz2HYm6MQYskNI5ZreCRTB3AnEJ4/1VqAAFZbLYLwBLPqyw94preTx8GWm6W/QDfYJxrWsAGSRAziMy0cJZoTBEEkRBF5s8qTG51S/Dhpp8WpgGAdzBEOVnrergmfNSWpExO505za+F+C2m6TeLk34Sy8JLzOFA+DY7cnKsXLbg16d2CZYBdmovqzoE8N7mdFjBUFy6lMKvCraEBbdS3b5nmd1XrTg+UR71g0E91M1OzXuTZ/AiDk2aT5upZKZsOb6Xobl3ijeUGuqNW4ICdGRmScHxo3kgUsLuRiPQrNmJ8QbAYtbuF6n5jKQHPbmfGkCZ1gEtOObKti16dw0nuI7xBEJxeIpLNAs5h3bJ7Ftp5quoA4uCnAsXIDfbT+1k3ojTbmGzSWrgFPchjFYKWm80GTxoZJBKAx3xMxXBnNuzlmg1ZcAW8JlxTmjswvcDdpI1wAl3A5zR7l8Qpu67dqzEXNrtycqxctuDXo3t2FiGCQJssnBpcsNQlGHfEBUJyC+c7AHyCjsMcSCKknkXr50AyCoEswHU+vGpAcUzpTUww2kuXpnx/0h3it4BjOls1NrBLMuciLsaxpQJxIrakRhU8BaEeGwjgohbyXm0xXnlLjeKLVFhv8A0oYatXee3Wsp12HGThSsVvrcd0U6VgtMKYZh532F6wMuwgV5QbAJkzraoqC05MbMVntk5S0Icm1B2mossTRc3IF4qRLIDVcYE0RuZu0IB19TJVhotE5UfK3+7N10pLKWmKRYQuZgzY1ZFhup0PzLhSREbkzu60Z6ZSbVywwWvETGWgwEgA1UM5CTOhF0J7yykl8kFcQTdbUhhs0DYF8GWIi5UiqOdzZ9RjhG125OVYuW3Br0T27DT2NcvyoyAlsDoRYjieOdD6QONxdNigkiBvoG2LgxJzMhOuOHGgaakKg83TeTEyR5s1oFesjK1lRRdLRRhTE5TaGYh5lGjVpY8aYiCVeJQDtQg0TZGMt3x30jvS4+iHLGm/Myw+th9I8aijMAWAuV9BmiR5BfKBat1YqZ7op0267Sta17iaLE8YCbo1Khk1lDCIjEVxnN45ihAZegeBe9SuImjvuXvWdNhJTneqWe7nWN9kzxmma4IoU4ieV7VCYKyu2hbl71ZgM8DMSjX4g7EzRtjABERi2125OVYuW3Br0T27BSMjEMeJ8XheplgSLOnhFFZOsTE4zPpFao8XsnLrPGgZXsC0+03+aAAgDZjtN9k1nuynO3XsY7OOyNe+37cnKsXLbg16c9uygEgiXKltDqbjiFXLObypKAmhtkcuW6g4tAbJis9me/Kc7de7abVE1inPZdr2J7GTlWLltwa9O7J/rKc7YnvNKiNjnsNabXuMnKsXLbg16J7dox3Wn+Ap02Z2z3rtmmnG17Ljbg8qxctuDXpz27WO60/wABWtROyKx3WaisdrStDa9xg8qxctuDXpz2qSpRDO5r9lT9tT9tT9FT9lT9NT9FT9lT9lT9lT9lT9lT9lT9lR+xU/ZU/RU/ZU/ZU/ZU/RU/ZU/ZU/ZU/RU/ZU/ZU/ZU/ZU/VU/RU/ZUg/qp+ypF/dT9tT9lT9tT9tT9tT9tSD+qn7Kn6an7Kn7Kn6Kn7KmT3VP3VP1VD7FT9VT9VT91T9VT9VT9VT91T9VT9VT9VR+1U/VUlCUsXQsvKsnKsXLbg16J7d/OzHflcaz3rja9hz3Tnbk5Vi5bcGvRvbutOzm/+GNmKnuJnsO2zuXs67MVg8qxctuDXpz277NY/wAAb9mO5xUVmo2Z7hx7h7GDyrFy24NenbMZcjq23FctgOvAuBUHzO4nZp/gRUd3r2XYs9nf3mHhWLltwa9E9tlk2IYC1iZ3NbeVCF40MILb5M8RMEzecpRySDEoJm2C170nRIzS8McY9DtzRsnvgqO7xsduKNjntO12TtnsYPKsXLbg16J7bIH3gAnjFWSo2DBu5fyr/spKWXxQZFuAwiDHaxWb7J74tUa7J7njWax3jtzT2XGydmDyrFy24NenPbYYSSpCLhvgWODV9CWQTzda9MFWiresRInJu1uLZ4VfJuQ0L1AS58M1p/3KSGI8Sl+iIV3kgLWlvVk8ADeZISwwsWmJKFKAHGQltM2M1AYxJ5XCvYuXqKLEa5LMNLkzN4ZbJDxMNJqQMdLSP1XqZ1QUsUegjNpmImY1POgGRYXj0XukluXdRUbHupmjFa9jNZ2LaU1r2Ha7HsZOVYuW3Br06pUihvks06TthhNLUKS2QoXmncMILwnSBlW9oxmoyGAndEWKIuEXN1B0MBYgPIxjVvWkcnLmJzGXChKIbkgZaWHlUQczXZuMO615rEl4avRRCSMEIW1W1iQ4AgpmTlzLjTEAknhBz74zFCyzVUxKYzJQXS1SCtGzWnNDyodYIoQL05RE4oajVxUyyIMLnGlFH4iStAoWYzejdaQXDz4ZxPHuQio/zPYajsa9l7GTlWLltwa9O2SHskjObhP97M1A2WxhPJmljAyhk3wEVl756k7zY372IqNk/wCFxRt1eznuXsexWLltwa9O7OaxWdpip072Khc1jvHul7WO417ODyrFy24Nene3ZxUz/giojY945o71pTnsaU9jSsdhrB5Vi5bcGvSHtsISQjACJTi+i3huqL0wyEAyuhxiNc2q4UYucAW6C82hscbPXZpNdU5E6R/qVFiYywzcRe98UvSow0arZcWvfwposWLv3KuuHfBH+Zx2G/Y1rXuNOzrWLyrFy24NekPaidYRMo35YpjcZ82kN3CCpjtuGzncTJP7SYNoi2jBjTdobqEAyArCh7ApmgEycXsKqZ0oE0YklmYyki+uvGmZMIyJc2Vx3maio71xsz3U52me707LWHhWLltwa9Ie1LBe0ZohonJG0CJ08KnYSQGCpEQgbScYJxttduQTfRhwo8KozliXGNM7BtWVGQCwME66VFQE1XGppZNsoKkSDcVCCjkjISJv4lDoGzMT7gdivAsQVhTdZpwCBFgZYJY4tEr8jIN5FDnYrXGQd2VsaiJKQWkF5OlKKjOwUS1nGyPu2ZDcM7vN8Kkblxw7DwnKIDxpuvcXCLTrkp0g2oTMrB40iuEnBFhC0txtQkhwqiBWAWIiWLTRTfJyBwjqVz7tdzPa17DWDWLltwa9Ee1I8F9qDXBwYykberpjJ8KBiLsTCLkWL3qGJdbAL7G8ceRFgjHYiCja4DhbDFKIpsMgm4Mt1GIkN46DUQNo1t8EW31EKNMiixrfSpWcrhphmxEiW6xag6OVLQgWDZgslqYzUHXZNsYxL61gEw3ykWOFyYLWqeFDpKchuZAhmDdri0Ld5vYsnje7VxzPI9xFw1TNqkMF4KxbXlLBiAJq9Rvk0OIybKze1rasRcplaFulg4XakiAiiCxKVoYwZjLQK5SANOOLuRuQNESEQLI4gQnY4poLogJb5xEvOjMu6RhRAkmTewxSipbLF7iwGDecVHKAzi4BKdx0gq8DcRgQJrg73XA2zBARqA65TFuFWRscRElM+Lduq2uN20IQcwbtYafJIvF/Cbm42qfiKSqR0CxYuXSobtQWAoFNnBcvNLKeMZpMbqANdZEYDCwfCCjskazabyTvJ2a9vXtT2GsPCsXLbg0vKPbbBu8dkTktsn9VSxhk9TbAFrGyKickxSytWY2aKRi8E8jZE8zDUYm9QLMYxUa6lJOYYqJhSYxw2RGkctkDm6Y2wYMVESlpylWTpLd5zresbQOb8yajt6djHdT2XsOzDwrFy24NelPbv431FRU1NRUdqKxU9nOe4xUbV7nTtOOxrsweVYuW3Br0p7d8Fc6mp7E/5XFG12abHY47nXtOPCsXLbg16U9qQywDNGJABYi4SUXQ5nOkWqcfmY5ewD3Me9XSyiNdRFnfa8eULZkLy5ZQ64DTFWQix5JGTXfzImoez7ZcupxUnreo3XVxM6KF/EPeijLcRZZ8GbcqVpAbZEjQmSprhttMMysojJ7lX0gAZBJGEZvbDuqFpDQbmY+DyqV2ThmRIGQUt6xQ7zMBgTMuPWrgYORq3nlPtIqP8zt02a9009px4Vi5bcGvSntWaapRBiSbXuTExaaRVaYF5Zvm/ioSUHQTmy63JZeUVOcqyHOhC+ozOPAsTWUAJ3Sy77xbBTOAaBgm4elqGIAcGcpiXxNb1edIYohtLma00nGZuI9atsugJBdjUdTi76UGoMxLWlchZlW74WWErG54BnnZpkipE3BsOSMEGCZrMxx2MiAb5N/pTbJwhF4jfRRPHh2p7ie71rG1e09y9vB5Vi5bcGvSntsEcXOG3NQ1w/8Am+EDvkqKjM4rFjJJE51J2zV6st1al2mNy74Vns8JmW8b4/xT2H3/AMjtweVYuW3Br0p7V637U4DmoS6F03GNONS3+bSSjMy3v4Rint0xFFikhN2Ymh9TDEt23BDITxtRjEJ0it04sA9aMjTXPMclNJHcSAsGKSI05E3U0b06BZnLDMR6U0NuFRkwDGPWgyyUFsyTILuMcbQW/pMAkmhHdzI7lUPIwICJ4zLj3pvhJCggCS4jfFWRj9ZSEMHtdlnWYNbNMIDZZWkGHlUjEtcK+3WFutARgoasUESl3FVeVSI5VfMTGyaHANzqxkOR2MZgnLnhVgmBMGCCzhWJbRSYzssFqyJkzc1OBQmZeZZWt1xWGPlPdLmSN+ttQRQq/LjZsyy5ji2RY1tlmWZkh0jjWKz3enZXbG17D3TtweVYuW3Br0p7UgIkiXKRMykW+IfRS85rnzMuZmJtcm0UTI4WQd9KMJHdeakJg7+RzwYoAFQZNx6LsxGajGEIIVWtqtb0OPiEuYgXHDGcUr0WURAm0pJLxmjhD2zawvoxS7smjgiZsEsHFgvVuFrW0QhLjcYJbFafSg0IiNNKBkud96XZ7QtymHOir8dZyRzpPZcxiKIiB6hpYPF2WR8da4KOrZ6sm+aELqyimY5Eqze9L/unN4Cyzqa0qHSUNNmEDenKULRiFy6wLdCrysEZZ9d6WrgYotmUzDqUOHkT5BGlscCrVnu87DZp3TT3Tjbg1i5bcaQk3VitakM0xxUr2J7c9u+29Rv/AMEzPZe7nuCg34rE2zDTZC1AxzpTpeQf2pP4H9re+Uf2vxCvzvuvwD+1+If2vwj+1+If2vzvuvyivyitz5B/a/O+6/EP7X4h/a/O+6/KK/KK/O+6/O+6/KP7X4n3X533Vy/kn9r8kr8kr8kr8kr8kr8kr8kr8kr8kr8kr8E/tfkfdfkfdfkfdfmn9rceV91+Uf2vzvuvxD+1+Uf2vyD+1+If2vxD+1+d91+IV+Ibcz8Q/tfiH9r8Q/tfln9qT+J/a/B+6/B+6/B+6/JP7X5Z/aj9Z/aZZvG1AVmoDak0DpV2lRqNRqNRqNRqNRqNRqNRqNRqNRqNRqNRqNRqNRqNRqNRqNRqNRqNRqNRqNRqNRqNRqNRqNRqNRqNRqNRqNRqNRqNRqNRqNRqNR3UJpQR/wCMAAAAAAAAAAAndUOrUcajjUcajjUcajjUcajjUcajjUcajjUcajjUcajjUcajjUcajjUcajjUcajjUcajjUcajjUcajjUcajjUcajjUcajjUcajjUcajjUcajjUcajjUcajjUcajjUcajjUcajjUcajjUcajjUcajjUcajjUcajjUcajjXjQ7+woq6W//AMHuNKmNqgr0jsOVALq0DU8LJ/3vRUpHLbg16BtNoysJjzc8KSO6ew8P7epHLUMPg2pbmZgZbXKP+56BrFy24NegbfSvZsZKZbMcfI3tW+xUn2nE3iJ2wllJAhmAWo1pbAoMobjwdlnm7rAJWoLVQIlEmzXmheBL605O3VuBMbmLcKc8wS23N2lnXuHHkttwws4y1r/vbvhgg37JYZSjESk6W304LDJIjBgBv2dforR5eAbp2XgUjFKwerSpUEjZMDOMm15kBswTDkNROfme3vc3WdifPPkA40B5VLSDPKReMf5PQNYuW3Br0DbKb/8AghaPT1rcwcgLGu6o4eKAj8/rwMDBfIZ+NqqvSGrQXBNTVqbfsKgImAz38JmorRD8jIQa98zuoiM2WLsGk1DxidRt6ndnJpI1aUPKvmHuhRF0vdpvfwSAxcMrmzLOKi3MR9trG9kmKbBzshROZjcTV4gGilSQysBLjUHiJvuNiGNZNLRSzZlkJRaKOjvaKpJs1Q5hXuj5VLePNpMI0IhZIp/ByasFjvyitMKboTAQ0DLafM0+CdnHyXjC61DMnbSkBPhHCjZKcKUso4KNQLnozfhWyfZm6UKEIqwQki2V51mMSOa8u7iPShSD+psCtEk41pOCbhohn5zfRn8XWnPE4SFoBET63yPL0oz+LrTnicJC1ytEdIgmYDfvogd4kohhjm4iQmKkftFyN5TdcSpi7RhAJYYHViVmSWblsQsS4K3WQ0d96hSgQsnfQihUZ1rRF9sUTSBLLoLSYzFhFEF4nFudXEWRWU3XZxMeFNhDYRwXhFlF14UtLkCBXIKOC6b80hgsslsSvOD40EXKKN/N8G4yU26kCWV0rD7oIWAII+X+H0DWLltwa9A22yy4rbidbqSpky0m8333oJSCVxxp3DEGrd88eX/d9A1i5bcGvQOwTMBIHgeNA3lhZH/e9A1i5bcGkKG6P/BuFdBrFtNmhnYbZ3UIkmP/AAMxmkcDVQsbZCtwosB9ySo+3qPt6j7eo+3qPt6j7eo+3qPt6j7eo+3qPt6j7eo+3qPt6j7eo+3qPt6j7eo+3qPt6j7eo+3qPt6j7eo+3qPt6j7eo+3qPt6j7eo+3qPt6j7eo+3qPt6j7eo+3qPt6j7eo+3qPt6j7eo+3qPt6j7eo+3qPt6j7eo+3qPt6j7eo+3qPt6j7eo+3qPt6j7eo+3qPt6j7eo+3qPt6j7eo+3qxc2TUPZANcn/AIH/AP8A/wD/AP8A/wD/AP8A5KA//kR9N/FdN/FdN/FdN/FdN/FdN/FdN/FdN/FdN/FdN/FdN/FdN/FdN/FdN/FdN/FdN/FdN/FdN/FdN/FdN/FdN/FdN/FdN/FdN/FdN/FdN/FdN/FdN/FdN/FdN/FdN/FdN/FdN/FdN/FdN/FdN/FdN/FdN/FdN/FdN/FdN/FdN/FdN/FdN/FdN/FdN/FdN/FdN/FdN/FdN/FdN/FdN/FdN/FdN/FdN/FdN/FdN/FdN/FdN/FdN/FdN/FdN/FdN/FdN/FdN/FdN/FdN/FdN/FdN/FdN/FdN/FdN/H/AKM1AZFicAGW3o1+/wD7X7/+1+//ALX7/wDtfv8A+1+//tfv/wC1+/8A7X7/APtfv/7X7/8Atfv/AO1+/wD7X7/+1+//ALX7/wDtfv8A+1+//tOoDIkxkRw39T/qzoUADJxG3+NKlSpUqVKlSpUqVKlSpUqWdCgQIOAW/wDR/wD/2gAMAwEAAgADAAAAEAAAAAAAAAAAAAAAAAAAAAAAAAAAAAAAAAAAAABDDAABCAAAAAAAAAAAAAAAAAAAABABBCCAAAAEHAEABAAAAAAAAAAAAAAAAAAAFLEAOACAAAAAAAAAAAAAAAAAAAAAAAAAAAAAAAAAAAAAAAAAAAAAAAAAAAAAAAAAAAAAAAAAAAAAAAAAAAAAAAAAAAAAAAAAAAAAAAAAAAAAAAAAAAAAAAAAAAAAAAAAAACBCBACAAAAAAAAAAAAABDAAAAAAAAAAAAAAAAAOOENCAAAAAAAAAAAAALAAAAAAAAAAAAAAAAAAAAAAAAAAAAAAAAAAAAAAAAAAAAAAAAAAAAAAAAAAAAAAAAAAAAAAAAAAPPPPPPPPPPPPPPPPPPPPPPPPPPPPPPPPPPPPBBAAABAADDDDDDDDDDDDAAAAAAAAAAADDAiCDAAAIICABAAAAAAIAAAABBEAAAKIAABIPPFRKHACGCDDhAQCYICEAAAAECAAAAKAAAAEPAD/KCGGOMLbElGKUAAAIGaSKMIEAAKBAAAHOH1PKMNCHEEOy9IIQAAAECAACEAAAAKAAAAALFxPKGEOLMHL1GPAAAAAABDAEEAAKAKAKAAEBGFPKKBCH1zWFJrKAAAAAEAHCAAAIAKIAAABAaFPKKFLAOjhgBRKQAAAACEAAAAAAAIBDBCGI4APKAMrd/WIcvFSYAAAFNGIAAAAKBOMMMNLAAIPKKIIRKHFDiBIUAAAOERAAAAAIABLPCEO0PXPKCAnEDMXOSGfQAAAJHAAAAAAKAKAAACINCHPKOAQwydXTdYHQEAEEIELAAAAAAKJIABYEIFPKKFAAAMCABCEABMKKCEIAAAAKAKAAAPQIAEPKKEOMMJHMMMLIBHNAAAGAAFAAANBCMVELCEPKPPFNFLOFMNMKBKKABCOTENAIAFVodVEKKAPKKFEEKDHFKNBOLFAAFAKAAAAIAMZVfVFOKAPKLCLDCBBJLAFKOIICEQKCEAACAKCEEEAIIAPKOEGEGECDFGHJNIAFCBKAAAAIBIGKBEOFAAPKOACLAHGDOBGAKBAAFAKAAAACGEBNFFAEEAPKLABDICFGMEFPABCAAaJIGEABACAFFEABIAPKMBIACEFEACECAECAFQKAAAAKBDMAFBBAFAPKKECAMBECEEAAFAAABAKAAEBAOPFLHFNEFAPKPIKAAEAAAAOABAAANAAAAAOHGEQOFIEBPAPKOIDDTDDDDAIHEAAIJCGfHBADGDKIBMRXHCPKKIE4cDgDABABAAAAPCOQEIIPPNHDINNBAAPKKMKRZMMdJAYAAAAAAAKJGABLBJPKTT8xAAPKKAD+QoiAAAAAAAAAFAKGGABBFPBAEAAEAAPKKAECBAAAAAAAAAAAEQFMAABLGNFACACBLAPKKEEJAAAIBCCDDDDDAPJLDCFDOFAINCJPLAPKKAACDAKCOQAAAAABFBIAAHCNAAUCLCAPLAPKKALAAAAEKAAAAAAABIAAAFPGDAAEIOCIAAPKKMDACKAGIAAAAAAIAAAADPAGDKNBEANBAFPKLKBAIPKNYQAABBJAAAABOIAOBCIFBBFHAIPKKAABBCIAKAAABIIAAABDAAEIGBIBCEFNCPPKABBCCMAAKABMKAAAAAEMAAPAGIAKAIACMFPKEMJHJQCBLAOMCBCCCFAAABEGAHFJICKLABPKAADEUOREODLJFEHGILAAAEPOAMFAAKIIEKPKKBECAFDNPPLAEFEODIAAAHCDBIGBIFPABKPKOAIJGCKBMBNONCFDIAAADKJCBAKIEHEEHCPKKCOFfHAaLCAAJDDIAAAELOCFAFEAILLAFBPKMFAcUEOOIATGNHKAAAANODILIOBBAEIBOGPEOHPDLLPDPHLDLPPPPPLDDHHLPHPLDDPPHBAAIDDDDDDDDDDDDDDDDDDDDDDDDDDDDDDDDGABIAMgAAAAAAAAAAAAAAAAAAAAAAAAAAAAABJKKGsNhCBABAAABABAAAABCAABAAAAAAAAAAPKKFr0AAMAEAIAMIMMEEMMEAIEAIAAAAAAAAPKKABwAAAAAAAAAAAAAAAAAAAAAAAAAAAAABPMJAAAAAAAAAAAAAAAAAAAAAAAAAAAAAAAAKEEEAAAAAAAAAAAAAAAAAAAAAAAAAAAAAAAAIIAAAAAAAAAAAAAAAAAAAAAAAAAAAAAAAAAAAAAAAAAAAAAAAAAAAAAAAAAAAAAAAAAAAAAAAAAAAAAAAAAAAAAAAAAAAAAAAAAAAAAAAAAAAAAAAAAAAAAAAAAAAAAAAAAAAAAAAAAAAAAAAAAAAAAAAAAAAAAAAAAAAAAAAAAAAAAAAAAAAAAAAAAAAAAAAAAAAAAAAAAAAAAAAAAAAAAAAAAAAAAAAAAAAAAAAAAAAAAAAAAAAAAAAAAAAAAAAAAAAAAAAAAAAAAAAAAAAAAAAAAAAAAAAAAAAAAAAAAAAAAAAAAAAAAAAAAAAAAAAAAAAAAAAAAAAAAAAAAAAAAAAAAAAAAAAAAAAAAAAAAAAAAAAAAAAAAAAAAAAAAAAAAAAAAAAAAAAAAAAAAAAAAAAAAAAAAAAAAAAAAAAAAAAAAAAAAAAAAAAAAAAAAAAAAAAAAAAAAAAAAAAAAAAAAAAAAAAAAAAAAAAAAAAAAAAAAAAAAAAAAAAAAAAAAAAAAAAAAAAAAAAAAAAAAAAAAAAAAAAAAAAAAAAAAAAAAAAAAAAAAAAAAAAAAAAAAAAAAAAAAAAAAAAAAAAAAAAAAAAAAAAAAAAAAAAAAAAAAAAAAAAAAAAAAAAAAAAAAAAAAAAAAAAAAAAAAAAAAAAAABDDDDDDDDCAAAAAAAAAAAAAAAAAAAAAAAAAAEMMMMMMMMIAAAAAAAAAAAAAP/EACkRAAIBAwQBAwMFAAAAAAAAAAABERAwQCAhMVBBUWBhocHwgIGQkeH/2gAIAQMBAT8Q/VbHStWUiqWs8nRzAWJd4ovMG9dFMKYaq7TwmTR5jgROMhIY8Van80mBeuFPXOGPEBoXLGOcJoOAj0N+UMKQHlriZ8OrhCeYnsGDcKEegSBVASlg+jIeIkkkkms2X0h69/KmVlFR62RaNrEhLKPMVh2FiKw+i85ysHrWKrD1q7BBBBBBBFl4pKdlfeIeCjJM+JHoX1+wy9pEtjf9/wA5Qxm3KuvCVJMV8PupCaR1v9QvzyfCtCVl6lSCKIskdj6DNi37wv7H/pBGS3+bz1LEVo9aw1gr3+TgL3WrqIIIqi1Gte1pJJJ1pJ7wSTUJJJJJJJJJJ0ySSSSST7VKqqmVFCtp+OidGjaEB+956Pwm/wDJz//EACcRAAMAAAUEAQUBAQAAAAAAAAABERAhMUBQIDBBUXFhgIGR0ZDh/9oACAECAQE/EPutvC3qIQSC4GShBwngDRYreLi2KgybFb0ngUWSYq3iIEBwLUb0jNHiW1fUwmUDET3qHkj2MPPM+oT3ha6fTBhrsZmYcp7uUhLw4VEuomPHdvZjMzrEmfQFKEItm+NhCEwhNo+yucIBdxnLubFwi7L3a7L3a4Rdl7tdl7ylKUpSl3zdT04P0rTwvoRclqer5f8A35KhMfeT+vfsEprR8CtYaeFv6ae2pknTL+Pf5Ms4b/XJmncvgzPXsj6bgb7FiHTSNPytBGbFFV+BfwWlVP5GQloX2wLZ3g7wNxnAzdUvAwhCEIQhCEIQnVCEIQhCE4+qq5zg0Btq8Fl5E4JkNSzwXAudb4Nsy/8Apy//xAAuEAACAQMEAAYCAgMBAQEBAAABEQAQITEgQVFhMHGBkcHwofGx0UBQ4WBwgLD/2gAIAQEAAT8Q/wDrYQBqXNDRwOYXHZCGCWVy+Igcii5kIZAz05gGzd3NgDQNuRE6c0RsNiCAuCxoPzBXuzxPYORMAlWyUGQhHkgHvEa9mORbY0GCgfl5KYEeRlBYRwWyF7mi+QWgNzcMYYW92W2/04TZB8Ew0G5gmTfxrCkQgwkJFug2+K68PwI797K6O9froZyI5XzZuQYMY3oeWWEgGGU24HhFW0FDMzwDPJMMmArjaWC3I2j1ICYSSBZomVbMso3ku6sE2rjvByTAFAx+dQ4N4Jz5gKDs8rbcYrVfAzq+BWP4S2xSAWivWZJ7wAiemDAvJBYboGQ3QWmIhuEA70GLiBypRz1V7O5vstXAgX4sP5GEZ8UDoq6FuXzjH9VSud/J7QkZ2lGRe/4rf6gIJ+BHgOP+uUMWUMei+zogSUsKCWLNxpavW8BQ/Zjc7PdBkv1XS+C2As2QapIAC6MC2zdzGuvBggLd4bgi5fLGLfvJuNoAVkznDHcWDZCDLvbg20Cm7QGPEOggmQYEKwUfcvqHJvgxIBoA7PZfIzHYgApE/PnfFzQdLcvsumUEOTmQNox5sD0gH8j3KjMmz/UAhjoghgiFswgLzXPkB5ARBK2RbgEKcIKiuYBBFsyDuSUlQHnqyk68sJ3gc0Rm3aSDnozJdmPk/wDixBqDi/8A4ch1Azf/APHZwZAYwv8Avyg7AqB/ggCABlHucAWIjFczBjHoDDiJ6cRY+iry9jgMdZbGgRxeyKpsL2AMJg52jRcYBRGChiRtwcH/ADACiEgmHaFsVrBLx7cXxPjsu4EVQYD8iFMVpJCP+gDQnTxISgQBlvCIN98R6ckiMO1cwAMDBARWrIRxiWwzLcZIepEB0OWbYbcbAMIbm2bZULxsrhkYI7BzPM7wigRZeXqMKHkquSs9iNivGDQNgvothLiJza9zCwyYR3AOCAfUV7gWLC4XgaGiY5Gq3mf5RV7gUxd80+p2Yn4pB4vklviFXuBRFnxT6FZD/PMFPNcAlZ3KBEvni3h+FMFoQ4MFyBdLTgBA5V6svyDciEBvouzBaYwH5AQbkGeb9hwQDxAwOaliArhiFCzyAvOy+ZLAbACYEFReW9vYFBHIh8yKEChW44Fa6onKxP8A6ervvDuPv8JyTvb24EeFTS1TnFB2rGf8o7G9yU7dFZuIoIe/2h7d9UocyOyU6dh5uAsP/wASgaIrJvH+75j/AHfMf7vmP93zH+75j/d8x/u+Y/3fMf7vmP8Ad8x/u+Y/3fMf7vmP93zH+75j/d8x/u+Y/wB3zH+75j/d8x/u+Y/3fMf7vmP93zH+75j/AHfMf7vmP93zH+75j/d8x/u+Y/3fMf7vmP8Ad8x/u+Y/3fMf7vmP93zH+75j/d8x/u+Y/wB3zH+75j/d8x/u+Y/3fMf7vmP93zH+75j/AHfMf7vmP93zH+75j/d8x/u+Y/3fMf7vmP8Ad8x/u+Y/3fMf7vmP93zH+75j/d8x/u+Y/wB3zH+75j/d8x/u+Y/3fMLTFZtohxE4icROInETiJxE4icROInETiJxE4icROInETiJxE4icROInETiJxE4icROInETiJxE4icROInETiJxE4icROInETiJxE4icROInETiJxE4icROInETiJxE4icROInETiJxE4icROInETiJxE4icROInEQ4/wDFEqZgxRmD2nch3Yd2Hch3IdyHch3fZO7Duw7kO5Du+yd32Tu+yd32Tu+yd32Tu+ydz2Tu+ydz2Tueyd32Tu+yd32Tueydz2Tueydz2Tueydz2T9Yn6xP1iHMId2Hch3IdyHcqMMdzSMMMMdyHch3IdyHch3IdyHch3IdyHd9k7vsh3iB3SHah2oC6JDEGAuqcbxmh+YWaTQah4weGGqxB4KbeAaGiYIICBK4O3kcxYUNK84rwQQdI/wAgGh8HLxAMGGCH0bYi/wAUhGBDRfi4GofH2oNI12qnwx4YM3hqYkFg0KGBDVWb0N4176Pu9h0ZbVKmsHMgLV2mt37RsYGe6PCIDUBAKAFCZaiPkg2H/JjlItAdRchAlGO7GgNk6nyAp/aT/ezBqsEbELtAMCxAMDMPAerUPjB8LLxAYNWWtUMCHSjH15UEwhL+dM0gAEMffeUBwB00rkoH7S89FBme/wCGYEjktfHBH23z8JkKyTtc8kBeKAQA9/KLtG0HxMABlaeVj6EDhaYEOY3+9ZkOvPNwFyDD8UGWqoAGsUHGLwYIY+rQ/dQmhgEOO5soEaIBeNR+4h6AkzfN9s5l4Zqwt7gkeyssIhsXusz5LBYEYLdoSCNjtQ53oXalvW2TpmZlBjnLkLALWO5TeGo0hpGoZvWyaBqGBDRfbcUym2EIIGIeoGcGOpNB+o1wsL0EABHW+Ggk0WVG0B6WNeIhhnQh2P8AsE7eEEBfpsv5YOpl/QEeJmkWAgWT0gBytaYvIBIEGixHxGQY+BIAMa2vBY0Ka0yxGI8z9rXEp4ejaBQqmza1nt/igLt6ldDbCj1DSZK4ftRZBc3oIWueiUBh259pDWO7EfLSRMbh2RS4ch91xQesTfwQq21m02hjFmE6bopQwIaL67iGbwsmUTEHB+SFoogOIGwEAGxHEWnGDDrz3THyIgo2gCT4BzYL9IAF1QIMz6tCq+UVBYoCDdbS3GVMjSebdGT2rilD0IXxkB4fADRnpxTF+CPEGmUQIjoJQwIdKM5x+QdsGocmeKA692lejYPvACBxLLCy9wEAxBJgNz6/yPgB1v1H94TjUAduUJAP5zdxOGYFNjvcGBiLp/3mTulyTC7GRIB4fgDFI0b/ANRxqjAwIXigFB5cNDpBvEjApW0ZkfQRl+ALcIkB9hI+Iax7EMMtSJK9vC3SAyG07FdPUVUxS3R9561QUvityAcBfuTJlRrVuxk4TBhUcebQOr0DwQ8QDDZ3LdA6GoYENUYKecVgiyHaUDen32vQEH53AWDXtMLqEB2puRIB0eUPT5vlDWBgwZGgAr6gtPoBePuiZQERhHQc9ydRjUWO8il8omRgZRxT/OYv1peil8RkOgePHiABsMYgld89S8SaLctCTcbYJfDuzFGIrPwAs+UOVtfgI+mXg1rre4xaPGqxC1xBAJvSGQUbPE9dRyEgAIcibZd0Dp20DQYNQ14cg6CoYEOlGW2IAERwoCEdBAQttwxndlA23cCEADiqMAADcoRh6MK6u5YhiTa05IDu+0mf5z1AD3DGDj+whTKA2DHrAOImbq3ICT/lYNIeKBDDoOtDQNB0DpMUxaZUMCGi+u4rsgR3s2OqdviggHr+RLvAIz+aIgUR+H57oulehNjYh5R1Vz1oQCNU+LEtglphDCXc3B2wrfWG6RGMdIo46SIKw1j8iDQP4wMINmg0MZtQ0Cm3hh1JnpdQwIaL67jRsnYUohqq1+zDIaWgKRpG+dzQgoERNCheMlCot8zhepL9y9azkAAG1kCBdcZiT2IBmPttnYg+NCm5vxZiBqZTKN4fDC7wwEKIfnUnQwIaL67ivlA1wgKY9uokBegEMJggDJOGPW5pUGZGALUgH/VAQJ/2ZCDu7FY8kAvFgiBxvOlBegF1MA+A6hPvDgemWKkMzf6IDO4/K5f8fT/OAeAahEJQd6stFDAhovruKh85bHgEXQdlINzFPLCe6L6bPzCBkfECXGskHDoFrzRGC1qbrg57QtyLAeIH/pREwxkC4OZyA9BR4PB8ks6Es+Af0MhAi+B/nQ98UeIAbFkmgLkmWsmNKYAuIQIK0/k0naAHJIJRdyNvObfpEb/dIiagBdwMBxACLtm3qPEAoJdxondoLJJO7EsILCQj5RoN7LMeTxLtTDACKZ4ggo0BvAAmAujsRNB5hAUluOLbOENrxV7uRHxBC6gG/VRW80eoaYZoS7djZDrCrtOBoW3ajfQxlooYEOhGCXuMqSHlgxd8gf7dkQaAdBG3II5iAg5uLxARxXEo7uxnoLWkHlBZLFrSvBzJptHlgHuLWS7JU9+2DgEZYykAPOVkNVckNoCQWD7tvuQdcaePYFlA8EQ5AbO2sB6hT7rbP/N4taBT5lwyC1fvToYpcKICJ59KgtDTdHArBXbHAC0UdJClsEOggBF2z7qyuun4AaGI/wDQSANzLiqnLugACwXuA0sslaFHLLZKMuSb9IItLiBX9zGyK8xDHBCoNCa5BqG4BaIG7twm6+qPIoQnvM8ztmjyBJ+HOy7RKxHDnBkAoeLf3nlBJszqcxZKneGbDc9AzLRQwIdKMYK+4hGpGhSRFcREBtxnfcaHDk9RHejGXwIIel7KbJS1tl/QNh8WOAERedMLM0fYHkNugbA/QHE2oHH8vZxgQRgCrfzq9TwzUnDxBUQaQ0BAS6No1GWihgQ6UUHFhzo/vihD4h0ZiKI4EkPNPOIEIk3FM0jpMgenfyA0NvokOT6PRBeUPwgMdin3ZOyjZpF8M1mzkYDik5cAYFBrEMJ6rsRxIIR7CIxWAyAh2YGQQknZpt4NhySVBxIIP0k5utTXV0mI6eeozZscEFHwhoNTetG09rPWJWLqSJxw7BGQMCLWlxSpC8Az3WMNkfiAbh1rooAi1gECqUEKs2/CDmBAOvWkQBSbmywiiG42mGA882AM5fIs+uKMjpYmRniLmtO2quwHAwLpXDnDk3a9x2HsjJNMoYdCUMCGi+u4r6xJ3K/KA352gK/uk63xoXNQYAA3d0HiLyD8JAM+f/Y/KJmTZLAWshid30/hDb6ktOpPO+6RmItgYDP8yHlSE4AwPBwoIq7sRzIBR7AY+MH3tMC03AUBA2FiKMdZJq94FwFfFYLq2iyICa45QmYomw+seMSu9KNp6XekHS2sTrwNfoEEvvC/h9bBY+paMxQzZeKHELKS75MXBPURnEYPYHBE8OZL7c9FFRY/Ysy9EBBiBFf/ALv8sf2DkiBUWeCfseg2HI4erog59iEiVpDUGZQ1ChgQ6V4EgTX3jGagNUQE3hzCBgEUFwi9AIFdcAXN4fLxfQ4xJTsgtXjeQz0v0/lGqFZ5oG4rfoSyH+tGUeE5ZBgeCamuQ8IaB4R0aGZalUMCHUjIAfWa5CguBEDMJAxwIBImNAABZBLG89Rh0SGAJxuYrP5voLiBkpEJVwD84Q/EOqEWkwApN8kGB4IwbJtMPF9tA8ARdZaAzFQzJRQwIaow0BtTD6daBFl8ojtxL7+0Uz0InHgKyj1IX3qPAoaOCAnm7kAwJdF4PAGeeaCBBYc78o5/3IF+6nEE7kGBoGg0DHob+MKbUOkbQamFlclFDAh0ozPoCpZVgJcilDV5QzvlgQi6FgT2ZIcBCPlCyMOgv5+XI2CuAs/aeBCERbK76x9C61ixKkahgnlPQylglsqIO7gdFgv8ZFBWz9UiD3RAcWYOS7/kEsHwDqLUCDxRU0FR9DoKamoYEOlGDWYPCBpEEOtMDwg0DUChZ9oNTrgoYEOlGHwRpGHQNQqaN6EHpkzJ4A7nfJgUjSbctZLh0N+Lx1ukv01MXlBciW4ErYwBMToRt6mKIDtkuHMNSYLMuvvXBfl4G2gazuZQ6BydRqGBDpRhonr+CV01rMo4I30myGGpzivoLj6vH4o5Jg7sFfaJzYEM9Q4DTqNgSKhR+rYze1+s0+w22MGC/wDJS5WxM38yBzy5OSKWtv6OF9G2sQPvYNhpFVDQYdA1EoYEOlGZyA27TID8exjGMZznGMYxnDIBvex0FQgqjoMbUDWOsYCBkyRX27QHfR9q6E5ic9wsJxgx8JjFtHujMeT2Fjl0ezMWX04uNDr45mv+fSr5S/YIDfDQdEws0hQwIaL67iGEpvENDyEMi3BfyYaNVVWy0MRiFmRHrG4EbgQiFxwLQejVVUJWfJPmgvhZPUnhjfTqqqqECGmbENB7wjbQ0wpOjMprsoEQPNcB42RgDee4CHKmcphTAEKvDcQDGHoKAU33QDEycoNWu0YF9IwYlS4HNcfVeVCInMYl0qOAXVQFkGTT6vEDDj38gzp5gxaQ15lkokcQNhcgjuhE5q8VjAYgMgGnDIeSJEA8VUDQivl4GQI4g290e7+djALCFBIvH7LAYuDsFoeqlzCARsWRgwZY4q2ABq4bM7wcSWgF08U+6CPKBoabQ0xaSoYEOhGCEXfZugmRAEHeBFMfZXLgpwRh+wwnyStM5pEAGwjKeN5Hs7liJ4vFw7YnC6jZHBuUu4rzSpL/ACQKgetIT3yKMrncSye7/qc2h9YyAZN6MQ5DNCCQB8VBcVthgGlrM7pStVTCYUENBqMC2leCNEZA/MGJ7OrX2LmwYA1b8wCs3lvQIIgHkzeTBe8JGDeIfXA4VvhTDZBA5AjYpEyDit14DuZeOTAwLTutoVx69iSAlsgwKm6L2I4k97EJv8FAyT94RMKGk3BRORLJhDIl4dEAvOdoawTAkkgDcYTbn3qBAe/pHKAU2N2djB5ycD+AJIUBhEIAUTfabC2HUQIuJCgfOcht4YkIl+Ebdomct2wflDOg3UQbASFBqOuVDAh0IwyT6HloPWvyaiDSVce9QZvQ4VGgIFvAsLYcMjbZ9PiPWBh4WtGOBProaCRTybIEMgQEPAc6iKqpCCgwdANBqHhNtB3jBcwEQJAzxGBLFxlNoQUcYjsBiHoYBiLcauV23wIZgkCg2yGhRgk4fgsQQbnCaosZMH5+I4v+23MEsd7BkJ70A1DDM9IqGBDoRjJPoeVDxWbePUTjY+xpQDD+RUjqdBBp8oDFjAdt+QsU4SvyfkdTDIZ23bsBwOlAzow8CQJiGduCSeqKGCdSojSN6xVfytUENGWjGBGKo8Y1B7HQKx6hF9HCfLBBEIM3hoaNodYVDAhqjMUyT7HlBCJRh2LzH5NCpUq9K1xBsFG0uWBNLQNjbpBw3ERMuqCVk7GRTcuf8QGuwSp7M+a2gbcCUmLHOHHEdpXlbMIL4pEJmN2UJqqVFjtFn2NlvAGU9RGgProUhSaDQ0MZiqNIeCNANIaGhqw16oYEOlGQ+x5QdHE/Muyv80IKjfvj9dLeu2xXh4nvMizzQg40H/im62hh4YA/+abreEZ7KCmPImKNaLZAnkfdmoa0qn9GrlBRkrL9LXVW2w1Pwq71PVTB5aLDbUEN0xmdW9D4A0Cgikx0joHUFQwIdCMsk+l2nJDTPHygbCBiWkEjgcNu9EgHkPU5OCwZVzQrVtlAIwG7D4WEbhDs3anBUkWfnRMo4QWKRC8n73n5MXrT7nYn40CsbxzBqSikp60cGE82cObRcoz7gJHx3zNl+SLMpA+3LFYKPDpWUgsxG+DoUDDDUwYFGdW/hDQNEhDoGGbUMOk1DAh0Ixkn2PKJFeNQsWA2ilkCMi3fhuEtgANy2iziCm6z5/iBbkAsAO+EoGTTSojf31NZwoYPzdGoLA7w3A/xr1u+EgRUpbsw9ocg5SI9o6XOXgQ55/QztlBbRnPgNFLvsIYO6RkO5I3N4Jh1GDmyockImyQgfdqKYw0HQIzhmNT3YfZF77yk4oEtKBhPSQu4sU/3WP8AG0HihUpQKjUNTN+kKGBDoRlkn2PKv1UKJ/ljeDA7UjXFVFpGDdsDFi1Gl79+ueGe3sc0tF21V8Om128Kqh1hqf30rzD7VywxAW4O/MFsChtg4KIAbzbbXHrOaRwRMHsg7QWC2gjXaQTfPmDy0KB0jU9bb8bJIBUEwFMyQdAuPoh/woNPmP5J5MiypfAFnI3g8UIEYGOeghmyGh0ZUHQVDAhovruKGSfmfyQT/asTIAxmY/yiNYHbeDvW3yz5p4AEKYXuKLfDLoYqBAOkLMGZM2XLuQs8CQcmEssdiAeHgsMJQGrHRjA/+q11SKndaJJwtPQPrwvNAjGtIHe6GsWgCFTFuAhe7I54mftSeybeB+VJgzYqu20P/VO7ELk2l+1jAi8nqr8xTR2nIiTNBYo677nYbrUEtU38AxhqHhNqCgReUGhoaHwhUMCHQjDJPseVDxA31suuW9oDD8AuWV/yw4iM7GTI/wC2XP5GPKg8UW/8V3VRL0MAHoH3Zqlnuxp2HUiH66n8j+6fwE+yjYPKqgdB0mezqIBkEAjIiGBNUdsk7PgCYoAp4AduyZur4iy+u/AHZ7mGBEGN4fs94IwGxHA++58fuVa6CBHYi05QKW1ZyXwM1pntjGWA1BY49o5WkK9Sh2Lb0uJmuA3XkzqDEQI8FLIEEgD5rPiAGhodJ0lQwIaL67ihkn2PKElhPgGPsRgumcUSu97zQiL2pnChWLjfQZvDkPMHl5d8RephccQipgno2yW8wTdfbaSgnuyFQHQ8X4LeLf5g3wTXAkDGJgO0KjYQljCGQH0htnoYWSi64A34tP5Wgy0bzFoPixTrmYuMgliaIndgH2AgaEy5P+xS4IIdl2oS8Ui9JQxAiGiWB0F+VtyIYP5FK4IlCYAAF3KBTp3ErhAxY/gEw7uAwGIYgy4Fi/hMRQ3hvEuChCNVoPF7Wc75XigZV01bCc0Xg08HANAVFkOgaHV31NQwIdCMMk/M/khlyTmSItHbt2HNlmRdIABY2BHE66r4Y6W1zBa0N8KBe3bF5AKndc2UxH+BDnbD+jNslvDhZwHgdveqVR7sJ72IPEcK2AhU1jElm9JOLiuvlTE4Ox76FBoH8zbUxVHhBUNBxB3h0Gh1DfQVDAh0LwyT6Xah4hBQ1S/f5eU21K0Gk4KOWX6VxjtzCqvTcpYpbhBM/BFytI5XgTsBJALbQGZvlRDR0Vj/AMqUH8xH6TsHczcBv9xgEipXZjQUGnGDRjMVR4gwhh1zQ0Ogy0VQwIdKMF+V/NQ8kfIuuwSUyL9KfQ4Mnk5ShqgQEATQoJ7Eh2W7gOIHgJGxE2GEUObOUyb2ihUdzbT+q+sFtzP9uDclqtCMd1cs754Xp2rb1hY5BkRMW+C+5OdzygJMUBE+dVGY1MOtM6hrbaVybwzFTeGpoYYab0y0FQwIaL67inJMxgh938zEDdKuC0WWWCRP0t5g1Y0PSEHGg/8AVN3vDDwwB/8AdN3tGCJ4D2HRbnagXvz9fbjKeBtesigaDa1sVR4LeqFN5lQQwQw0OoMtBUMCGi+u4ptGfLRvMB/TDiAHw/c0fffH8ffSKj2QesCO04zEH4fuQo7TjMCfh+xBoIOB901l5TpTpTpagxID2tCGY0MCg8DiqM+AECjajoamCgZtVtUMOgqGBDRfStphTcWG4Dn7TP2mftM/aZ+0z9pn7TP2mftM/aY/aZ+0z9pn7TMHiBkFii0FRe14zFUZ8AKDQFDoCm8HUyhmWgqGBDVECOpjoABAnGgFjETioF6JBQwoMKCDWJ2xqbnDrPpL2ayXza3A5OEe5aqYF2ySV0Dg/GGrWCj+ouoa5SKgXbJJXXISedEkRhmzNLobX7g1jww77g9C4EMAT+N/ObdggFkYsOKCpxuJB+O4YG/sTF4CpCMaEzEj0uUUm1TCvEeidtAbqb1BQQxvBzG0Og3octBUMCGi+840KKKCE+VECABcENHUUSlIIHQGyCHPgAblwFhAylcIssntkLLQf9S2Abv/ACIAbrgWPeeYrHpNie4P5N3gB803+TUxxsd1wnQ9CYXvYyIO2iYnVCp2uZoObQUctCOAHms6MVTpRCQ2lrIuQ+ipscwTQvN7ZYNAhjehGGYMde5AiMt8OpPztaFqVfjtnrNgzAKJFM+3FvJXQ3u4GHxUYjyIJe6ebQsD4wdgfKfcpfmUgG20GUk4XQIL0qsSsP8AoYi23DqBCuAC7n2QdY5LhMBY5JmW0EQAF51hBmYRvDDN6lQwIaL77igqYsh5p4EIIASDu/K/RDThgaNUuADO8smMEpig/kzxKxvCMMBogWzeessazA1D4Icg0ZHGSSbBBF5NhdpirthwKBtM7M8FAgoBYgwDdE0n15EfWDlIh9o25hQHmRD/ACqalhgDGsrjmPRmP8n9wJF+IAnJngGLMoCQw3AwDb2Da0ECg0NoJlDHqPdAUju8VStM/wAhLTPBQhxx8OFmFrHvCwBdSAFlukoQ44eHEG1cZLLnjwbfkmADBMtzfWCO4w2TC02QH4AN8XV7wkuCGG7ghot/OgbtVDpNO1aA9llCPDGAgCwojbKda4VDAhovvuNA97oiADkws/fKd8p17hAW0ChwCbM/GYbdHL6Dd1lyy3nlcbp/W0GuAIBQMA1Tg7j0LE3IrtDoMDIblQ+C6mkuMNgh6fXTgQF6KCZc3n1WjO43jBgCqU249gmcSLrsRl4JiAtoCqLpMHGhWNsxuIAJg3InlFh5kpYDgVfF86A2ACCrLeRlxk4RZjZawRcegsmGH8KGraCFDH3ZCe+IHnTLrtFyECI1yAO7uaXE9yl/BOwK93xOSR/1okd8MqolSIKte5LiexGOgW+RODEFBWfVSAEZCh1CoYEOhOGCJORPHuAEEXaih2TsS5QCSMAWu39lQEZKRCkWJE80Gu9/goE/mAQNRGFGAChHlFqCdGMmC22YXFgAfd7WUV0dkBKQbIbDcBu4Z3cISdK0HJ43tdrpLgGD1kl7tcaxxZsSf1xT8y5icIOhe1K4nQD3i/vvWAJt89CxAum8HwxnBgzGxhQ+jUth3zf30hBRqIPYsjDAcQcibw6DepwYu2bNqvcS9shzgjcG0DHCXlR7lwmvuywfxQKimuf912Kv7ovJruAMzqS5su5SQj3OboAhGF2jYBUAzqy4VfCYMRAuwRD4H473D4kWwYAMD+QHIqDonl7oMGH0QjDa7N7wABUMCHUgBvAQWz2v5Z6uPhRgAGgeuIuhBDpo+nM5hxMzPO16DJjnllCEgAGE3ds0PiHBp/xg9TXsQbxxYChCWRSFwCYQztt2DWxZDwXBDEsS6XuEtq3CaQLiiruaxM5YJ5MEJdkh4CUwSMrS2EhwZ9o/UFoumdajCUcqCaLlxZIMwfEDOoVZThDoCbw0MHDtHAnBEihsNFfWRsSyxDxF7fY5hxIx2ToiREIzTEJu4UH3N7uhcvOGSFcgxzxG8EYiDfaOGBNA65cjoFBOPP8Aw5pF1etBwDYKHUKhgQ6kAhBtmGkzbAvvwYNjBTN45gQF4GL3+I0YCUxwxfo7AOIB4QUSXyf2vRLOpgOB4SF0J8QxVFQmUPgDQHA51HUYdIKGBDqVgLFoJtMIGCIVwoA9Z3AvnNobHqkQ4Ugu2G0TbBc5gTfW+96mWk+OxmKooFDpNMqVyjFTfwwcHSFDAhovvONOX+XjMVRIQQ6zQwIGYqb+GDpKhgQ+GgA6z/gMZnQBQJhrEMM3rlTeHUDapoDQ1DAh0qwU2g8AaH/BDAZBhQXUHUeINQNTDBg6tqGGHS1DAhqrLZsAgx2Dx48+fXrx48+vHj168daHHjw4YeHThw4cOHDDw4cMSHegxAcUnx58COHDhw4eHr3ocyuFQ4pHrnRDg8aGaQ8ZpjxmQzWHDhmkPG9QeOyi2QVAKGBD4yANTG0w8fGCBQdZqNBjUVDqMMxaSoYEPgIQ0M2goNDMoPj7wQIIOsKBrlWxo3oYYdAwwwdBKGBDqVm/hGMIf8KD4LKGBZQ3V4ahoYanWShgQ0X3nFH7TtHMUTgGgxZDdfv7EHgGgwPGG6ZUHwjAhm1MoY54A0OvNRQwIdCAsje3ohIJsbFCHt7GEAdjS9evwxuRk4Q1n+YjZGk3oahgeNZeIEy0MKm9BDoGoxtQ2agoYEOhABkGNBwKdRjs4sEAwG+ZsBC7Db+QB5DaooKMqD4y9BQPhBuoFTRw7zepoNDoNvAAUMCHQrL7Ey8DgX3Z5EEiQp+sBoGEu9x9H2MhiBCCkDoeXda610MgxRgMU25NibLpZmm26A8tkEXYl9huPCAW6SCZ2Aox9Rqz4EfQXMO4CScX9ZAXLgbCAR8AMAG6PQuJ75EQ/wDsIksoLRHZUDIvJMy2AAs77CGeJsbXL3uTEn1GgLuEgXSH3uIIQflkL38IIHiFigNDKqxXCgwdTDTNQoYENF95xDVhff8AAIc+Zfme1RiakxHHOnMFrGpNgIBxnQ/B+0zPYQCgGECpngXjoQAku+kWjSjFJOonQuN44GHEUCd5ZzLiYcoGjL4bPJe00cPNkRW17oLaTFxxF+9V/Ajsfy+Kas2IgBEDZOTuhsvlDwjvLALgZodsLZlHocFZnnsi+IiVCN2vcBuJlIC1un9BHgDSCg+EYNQ0dtA2Q0NBoYZlqKhgQ0X3nFP5NqNkjfSMATFAV5JCHhIdqsUzWEsazutiIRZ3WqHhQoP+EMNQdY0MMyqZkooYENF95xqGMqOgdIPAFsY8QEym2o8VtVGhvDpNG8NDUKGBDrVB3aTaDSNQgQHisUyg07QV2TeGCoNDhRtUwbKGDQChgQ6EIBwcFvRIZjZPQAEbRjH7fCTx28x7qs6/nSXWSG46ftyINjeBHCi9cbtcCROQmw5QY5DfD2/tZ0csdCjt5O0y89/AGlRSh/xQVvaDQOswdZKGBDVCNXeEg7QOG0kLGDO72oYOlgQRWBXIK9+UDuwAC0C3qy/4CMZ+89l7e3EU7mWdiOG2cy+NdeW3flg3OUG7ln9ySciz28DfQLoKG3+KDxNqYaAabQ0OgwwdLLRQwIaoQRzYugyHJ4sR5tbYXhuoBQ3xdfKf7YE2m0sG34wDWRbNoYaShbYrQm66zaiV6ahW0YF1t0GHcZPAgCzYR2NQkuPUDZbHkmA6FDT4YAjJCEsuMgXKXBcUDSXYkqctBFR6M5lnX4Rg9NBbhpnQwTIRni2Lg/kH6UBscGKEQgXYN2VmEIzHchIB9QojEqMNkgFtkYMAAE2BQkxoyOMklgRkKH7ciBDzAtebNPEJ/LMLQrn3yhRJYSQbS68Cr2qyIrBDgCZ18aCA1hU6AQ0NDDsoaGhg6ioYEOhCAhRUrAURh8oBbI0jkvz2atfscMLNNibWEKRPlAeuFIShX5a/IQ5DVr3jllLqLwn6JKpyLgBvqYGOTMh8ReK7koTE7BOCEMKij7QIS2Nywt+HUJBKamPMnyNKJdkDPKCsHt+RnZJEg8sIDYux03N/ztWBBRJyB+H2CcggvOKHgq0B2gYlpfyE9pIVo8+gJ3TA7BWBW+LzGGDfxM/wli3gBBZofycXuJyABMAtsxdq8WMkLLghGqUMFiCZAgHJKGsHIGl8+1GSD0WWS/mXLYQEtsh/mLfRjGYjK5+xUg7RCLgX7+HtvoONxYgK/wAWr6MrkGuIgxtCieTDiTlsB2Ta9YAvTyNirLmYDDqAI/YQPSGoUDR8PRTkW0PYnM0IOrRe9xsQiJIYRB7iLWjPRFB/nGBzkYiQN6dwdl+u/AM2ghhuq2hoamg0NDUZgJlooYEOlVLjRxvCAKgWm3idYrbJtUIgHAKZPeEMDJeGHDJQtuQ9SvAoQFwwoQ8kN1kBKuReECAFQAMA3UEgEBUACACgaAWexY8xIrkWJO5MNQcAQHhAM3hu1nSPgBmWihgQ60odW1RBfAg+AAaAw4KjwAwLK2tBqaGDUw6QwapQwIdKUNTp3hm0tQQLqNopeNqvXehg8Iwm1MoYI21A6DDDoGGZ6KGBDVKZ3cgeW/3xGPQDEBsXIe5W4A/A0jGBIkwwF+ogLtq7Y4hq7Oy9Rz3IoeDaHDzDQMWLadC7gPRiyTAdxPjcHr6kCQhWj6pughh7oXgHzu4Is7QfDSl2XfRUExe4gcRK/Nss1mPdmYhWhMJ2XUBv9pFb4KDX6QdkqIbtwM/2hGiBylX/APgsRVMFBhRaDUeEKGY1GgNDXehoypvTameihgQ1ShsUPMeVuwIAD+Q61SSiBPmUD+iN1MHIzBxAgnToYcjvXJwMAiq3LMywTosQvqINOD/UwEqqKokysYHsDm0/ElkOsXPfQFtrPxe3vqJgdfPBy3XcrdmCwomR+wIxZ2hn98hzITtoe4OY0kXPlHlsrGRsQsIwa4nzy6F+E4P5YPIbdWa21HMKuOohgeCIYNV6bVNR1GHSMMNUoYEOhKCASHJQoKAWCM9D+0YCyxMYLIB4lYnmgEJlRAMeAKlgUbjsES/yBCE5W5antVnOvIe9FqHgiow6LfQaGpoaHSOhKGBDoSiwlAzt8XfIAkBJWsRutbR+OI5haNeOstslMzu9t7M65yGRa/0XD4pcAy14A3bxBaU7qOYTwyMwvBSbEMhi3qyQZhQg0j+uNwsxAU7DkYbWRdlzdkYGSWYgng6CEFABnl2QOQJ5N4STFlkuFwb4QWwhQJn3PHZ3bgEDhWsUfKECYLhLqSUAXBeAt4IBdTUWJ5+h1A6Ou+2QIEbgYIHJRYQpqTybhAmnfi1shtjAWYOmtTHbdQADK82uTVpWqkEYYC0MqqDIBdV0S3DA45WBkolxgEtsgv2RNNBbN8EbG1ReG3hm1L1RdoHWMMMOgdAUMCGqUtpmheDfdhmF7xhfnShxOSjlBxaLc9TjXECvQmhSCyLBOPOvpBXD9LkgQYAAkjwrMF2ycDdkQmhxLVI8cUPM+rC4whDCaDGMwm4y4FW3ieEFro5+TDojNzUWXQhYhon40nOCcC+iDDC9eg2KbhMn+9LAu070+odDed539vQ3Xr/EBQmh7KW2C8Wh5DtXF24+68IGaEMWEl4AksglRMI4qBIu/BkHKIrQ2N0SniqNBSGtlvOOoGQWyHA4CcuAFJPWnOxvZ7h4TcNyBbvBRh0JMTCAw9vjsQwPCChTKhg03oaGHwIw6Q6FQwIZnm622oLSHoJmdY0GptHGeYO0vDPNBLbwjxBDTeFlQhqNTQ6DZoMNDOVLaEMCuhx5DifwmacgyAEEPoHzP1SBogaKGj9cj7R8z7R80wP1yrRo/XI+0fM+0fM/XI/XKOH6BH65AmQ+8fM+8fM+8fM+8fM+8fM+8fM+8fM+8fM+8fM+8fNGH69H69H69RwP9SQZQ/XKNAlA1gaNH6pH0D5n0D5n6Af3P0A/vRAgQDPBkR+tR+tR+tUSDQQoNusgVvhE9VKKIlHVOqdU6p1TqnVOqdU6p1TqnVOqdU6p1TqnVOqdU6p1TqnVOqdU6p1TqnVOqdU6p1TqnVOqdU6p1TqnVOqdU6p1TqnVOqdU6p1TqnVOqdU6p1TqnVOqdU6oGUCW0EOJEiRIkSJEiRIkSJEiRIkSJEiRIkSJEiRIkSJEiRIkSJEiRIkSJEiRIkSJEiRIkSJEiRIkSJEiRIkSALSb1cY34I/KPyj8o/KPyj8o/KPyj8o/KPyj8o/KPyj8o/KPyj8o/KPyj8o/KPyj8o/KPyj8o/KPyj8o/KPyj8o/KPyj8o/KPyj8o/KPyj8o/KPyj8o/KPyj8o/KPyj8o/KPyj8o/KPyj8o/KPyj8o/KPyj8o/KIjHul1CjoXmZzfoIgH++C45XRNV7DZPotDBokgA85j9WJ/Uf778jRIQ0X3nFP4gWqAHo4CEBEcyjHt0besOY7n37z1gwQyxiAG48wfSXAIL/fWoYENF95xTa1U96vMGsAfoewAEjuGdn5IACr7AUEm5FJc3AANziC5VwRiOA2LAyOaEpBqd5AXNhgS+pbCURG4sRQh9OPGLyT3mZvQzcfuFuQguzDbhtglBkG/AsyRqg7XsLNw/NMnbBi4u4PahnI6Md4C9BA7M8G44sDSXDOxWh+ZikYBbwBaA0tv30g47cgEtSxek7XuLN1IPRMg4vQAwzk9+xHc+iUaPRDjmWm5GOs4JYAFt6iED/GtQwIaL7ziqWwWCBAZkeeFxgFML6JOCL2N4Mfp497kbcRBa/erd/EAX9KHwIjYdqzYoAbghNIl9yU6ZEmzYl87oq9vc2UjzYwK+IgMgp+NwIFmpyKmAYkYbQLk0ky7ufkLxBM2hC4LNz1t15AmY4g+mNtmg2Y3PqmYHCpvgOCQIF34F7IQeS4Zuq43azGc5ItOiBw3XLwZBNpzXOAorbp4jCTwhll6ZpEBQQomHA+GRFziAi4Ydhwb7YBhALYROIgckWtzsAKHtbW8TiWzcBBKSMtycTfTwBBB1NMTSR8kdwSCtGVjzZIl+yLgRwm4Hc+pQXY6TOBtO5mQwvdddQ6HEKEb+HiyN3miICr1orytlXAyhEzwfqS2L8zCICr1orytlXAyhCvYVa2B/8AXEk4XgzXqiUis3gOJgEj6AAThnMIAl/zpK9BmACBYAQWVzdOG/sOWufz6qOnx4UXEHYCRA1U1yuncJgV8VoU7jbMlBb01MkFTZG8iBdx4+Q9jCoHmr3RYJU3cNFWwYGPmSBnA3gmOQkAb+FTG0eF/wAQQjaQRh9wDcV42CHcrg9H/DtQwIaL7zijsIK2FlIJ5eih6h3DIAmbFYHhBhjWACAaB526bdsuE7juR/vrUMCGi+840fYEBYfVwgrn6U7ADzT/APAWoYENFwsfZbRZQpf74GMfwqEYENKIbhufweoJFBLBH/gSh2CAZbtvHkKEMCjaXf8A4JRxN9999999999999999999999999999999999999999999999999999999999999997EfiZY2iwqQ6ARheIvEXiLxF4i8ReIvEXiLxF4i8ReIvEXiLxF4i8ReIvEXiLxF4i8ReIvEXiLxF4i8ReIvEXiLxF4i8ReIvEXiLxF4i8ReIvEXiLxF4i8ReIvEXiLxF4i8ReIvEXiLxF4i8ReIvEXiLxAMbBAF//LMr169evXr169evXr169evXr169evXr169evXr169evXr169evXr169evXr169evXr169evXr169evXr169evXEOsXLi8iNwFcwD/hI0aNGjRo0aNGjRo0aNGjRiHWLhxeQE5CuZA/2ilf/AO9oMljj/DiRIkSJEiRIkSJEiRIkSJEUr/8A3tBgM8f+j//Z;" vertex="1" parent="1">
          <mxGeometry x="430" y="50" width="189" height="420" as="geometry" />
        </mxCell>
        <mxCell id="9vBlSOGnF3i_3enI5a85-3" value="" style="shape=image;verticalLabelPosition=bottom;labelBackgroundColor=default;verticalAlign=top;aspect=fixed;imageAspect=0;image=data:image/jpeg,/9j/4AAQSkZJRgABAQEASABIAAD/4gIYSUNDX1BST0ZJTEUAAQEAAAIIAAAAAAQwAABtbnRyUkdCIFhZWiAH4AABAAEAAAAAAABhY3NwAAAAAAAAAAAAAAAAAAAAAAAAAAAAAAAAAAAAAQAA9tYAAQAAAADTLQAAAAAAAAAAAAAAAAAAAAAAAAAAAAAAAAAAAAAAAAAAAAAAAAAAAAAAAAAAAAAAAAAAAAlkZXNjAAAA8AAAAGRyWFlaAAABVAAAABRnWFlaAAABaAAAABRiWFlaAAABfAAAABR3dHB0AAABkAAAABRyVFJDAAABpAAAAChnVFJDAAABpAAAAChiVFJDAAABpAAAAChjcHJ0AAABzAAAADxtbHVjAAAAAAAAAAEAAAAMZW5VUwAAAEYAAAAcAEQAaQBzAHAAbABhAHkAIABQADMAIABHAGEAbQB1AHQAIAB3AGkAdABoACAAcwBSAEcAQgAgAFQAcgBhAG4AcwBmAGUAcgAAWFlaIAAAAAAAAIPdAAA9vv///7tYWVogAAAAAAAASr8AALE3AAAKuVhZWiAAAAAAAAAoOwAAEQsAAMjLWFlaIAAAAAAAAPbWAAEAAAAA0y1wYXJhAAAAAAAEAAAAAmZmAADypwAADVkAABPQAAAKWwAAAAAAAAAAbWx1YwAAAAAAAAABAAAADGVuVVMAAAAgAAAAHABHAG8AbwBnAGwAZQAgAEkAbgBjAC4AIAAyADAAMQA2/9sAQwAEAwMEAwMEBAMEBQQEBQYKBwYGBgYNCQoICg8NEBAPDQ8OERMYFBESFxIODxUcFRcZGRsbGxAUHR8dGh8YGhsa/9sAQwEEBQUGBQYMBwcMGhEPERoaGhoaGhoaGhoaGhoaGhoaGhoaGhoaGhoaGhoaGhoaGhoaGhoaGhoaGhoaGhoaGhoa/8IAEQgFAAJAAwEiAAIRAQMRAf/EABwAAQABBQEBAAAAAAAAAAAAAAABAgMEBQYHCP/EABoBAQEBAQEBAQAAAAAAAAAAAAABAgMEBQb/2gAMAwEAAhADEAAAAffwAAAAAAAAAAAAAAAAAAAAAAAAAAAAAAAAAAAADVm0aaTcNTWbM5o6VzOabk4E755x1JvgAAAAAAAAAAAAAAAAAAFrhD0B531JuzjjsTz49Bc1tzOaOg37VbUAAAcz0w5nnfSBx+V0kk8p1fNmu2FzaGbyvVaE0OfkbU2AAAAAAAAAAAAAAAAAAAHl3qNB4L7tjXDh9xj7I6Lyr1XmjW5Ox3px9XXDg+8t3AAAAAAAAAAAAAAAAAAAAAAAAAAAAAAAAAAAAAAAAAAAAAAAAAAAAAAAAAAAAAAAAAAAAAAAAAAAABE2IvKed5dOjczuM6z3G9iTNi934ywYrParYF1a15tWquGxWroAAAAAAAAAAAAAABRREc9VKUtU0C+or6YptRRz3UxtVy676vEvbxlrV3tykUABTwHf+d/N+huLmu3fLpb0uN0HPpRRXoUu99x/Q+jj876zY6z6fzreu+lcEw/J979DHxFu9tqT6d6XmulAAAAAAAAAAAAAAALETHPphabpeY8fp6aqJ9fmuV0V9OeNYv6bzd9bkTHh9tHRaXO9HDZ3rN73eORqAARw/cU8O3Oct6ZqfJ6cPmOk22OnO6/o95rPAdzfr9Pn+Y9Z9P0+rzaF1Y+V7v0rJ8r7P6lwTV9LaugAAAAAAAAAAAAAAFiJjn0jTblzsjcuV0V9OeNbvW+XXnLm+x/L30/QS7c7t+1d9HnDQAAAAAAAAAAAAAAAAAAAAAAAAAACmi5MWl1Lam4Ik1KbV5FhkM3HquqkagGCui0ui0ui0ui0ui0ui0ui0ui0ui0ui0ui0ui0ui0ui0ui0ui0ui0ui0ui0ui0ui0ui0ui0ui0ui0ui0ui0ui0ui0ui0ui0ui0ui0ui0ui0uiSBFNsvKBWoFagVqBWoFagVqBWpFSkVKRUpFSkVKRUpFSkVKRUokqUwVqBWoFa2Li2Li2Li2LigVqBWoFagVqBWoFa2Li0W7OPdS4iRRXaLGbgbGWUSAIkRMCqIkJgAkAAEomggQSAABMCaJgQSoSARJYhMsSCYICpiQEIlZiYKYmCE2Yt26rJnV2ru8rV20Yuy1uylWrvMried7jzmz2+PIvQI6DF5vx+u4yPJet6zvt75Ur13a+edF5+m+yNHr7PVMrzT0tkcqdU0+CdO5eo6Zziujc90IEESIQEJUTAhUBYiYJiYlSgmYICpiQEBZiYKJUlOPMY1FjIx7nNu2rvTK1dtGLstbs5Y4ztOCXUaba4Rp+25vKs2vj3rHn83Gp7bf8ALt47oPS+d689h6NyXYTFriez0a9P6n5J63czj39QjI2AxMHZUpjNlK63ZAAiaRExKQCYokgEJESSgJggKmJASJiVmEpTjV2pqImJqLF6xc5121d3hau2jF2Wt2Us8T23By8Dzvc455r3uTxGs+q6Pmdzjre6TbaLz+vV3d7BpI5vbejx2egxKK3vpfjPs1y+f/oCynklv1m+eN1exUJw3De48vXZomUQQQBKAFkSCJAgmJSxMSAgKmJAQSq1VjkRMZ1TEwsWL9i5zrtq7vC1dtGLstbspXE9tza8xtqbVxk2ZvWYmJvstfMLmj3Hn99WPVxcms3dncdfNRjbjPXM9n809KuCYsATEgCYkiECCWUSQiqokRCREiEwCZYkExKQFTEglIicYQTcRMRSFixfsM5t21d6YWrtoxdlrdlK5zo+ajT2Zxt5y73nmi9Ho9n0fnmJq7jnOt6753bzF6Tyemm6LB7Ppz1/b4WVnlst1y/UXEzTKTEwEiKoE0zSCFkIpRKrorIksRIARMEkSpgTMEBUgLIoqpmoBFFdEJQsWMjHZzbtq70wtXbRi7LW7KVy3U8rmaDhtpovZ7LNvA3ffrlc71FmTzr0rEy+eczzno72ZQz7ffpR2PB7LE9D73yz1PxeOExMSgTMSCkQKTCImlQlVU1oiViJCJEJESSgJgiUrBaFFVM0iYEBFNURESWMfIx2c27au9MLV20Yuy1uyleZ+m+b76cZjrnu9ug6DT7MyZtXkxs7VbMtRJFvJx2tbViZJ1vsXj/sHk8jQ77m+PHaYmTWXLOssG7zua6ZYTShNMsxMAKrorQLIkESBATEsokJCFsmmqlVNVMs01UkAiJiIC02MjHYzbtq70ytXbRi7LW7KV5v6R5x068BZyue9vryNvwXbSZsY2bda+9Zts5mZoBvp0W0a5fouT3+cdr6/wCOexebzyeHcePuTyywesPLLp6dHAc0exuStL2LziI9Jjzj0cBVdFaRJYhIiRCYAlTIFsgKgFMpVMwQCImIpTBONkY7ObdtXemVq7aMXZa3ZStPuJPm/iPsTC69vkvrfoivd+f8v3abrwPC+iSfN1X0ePAdf9HUy/Kmy+mL8xy3XHHlPK9Sy46rr1nH09lBydjs6VwNF1iXitj0g5XqphAVXRWkSWIkAImFmSJpCmJgiJLCYiCFRMEAgggQxsnGuc27au7ytXbRi7LW7GWRAAUEAABamECBJZCYCKZUiggKTCAqqmtAsRICWKikBExMU0oWZgIIiKqVgEAggiJiJxsjHuc27au7ytXbRi7LW7KUYMuc1WsTqGn3JABJABFEgUiaZWYmmAUAACYmEBVdFaRKLBVLEosAImVSikEqJEAgiWaZggERMRSkrGycZjNu2rvTK1dtGLstbspVm7Mumr2AwdpalLi3TV5rcgyowazLm3WCkmCaTAAAAAAmJhAVXBEzFgAAKRMU01iKaoKUwoECWkEAiJiKUws42RjsZt21d6ZWrtoxdlrdlKxskcO7hLw7t5OHxfQqLPK+Z9f2R5hr/TLpou2xckmmaZZCgAAAAATEykTMkTCwAAFiSITFExEUzCpiECWmULETAIETTAhZxsjHYzbtq70ytXbRi7LW7KWEhEhAAACAQoSgAAAACopmqUgWAAAAImJUliEyomghMKiqkRMSikRTr9Z2Ua3ZctxTVTqTArHv2Gc27au9MLV20Yux12xlTALF8EExCVVTIim0XpFAAAAFRTVJEwsNReNi1mQZbBzCoBEqEBYIJRMsUVUgKgIErCy/POnPBrxvU/J6OGv9V5veXqMWL+9xEtSLF+wzm3bV3phau2jE2Ou2MqYHH3t9K6Kno7UanXdbYXn8jb1mt1vVWDR9PZvAABMpEyAsAA56vdjlsvoRynSXwhKxIAgESSoUkBUTAIliUEcR2+Inn/pHnnLb5+x+Y6HsvZ4+2zEfN+miYsizds6znXbV3eFq7aMTYa/OmpmJl5KzTz6dVa5fcGbcx9Wbq7xu4rZRzlB62prlpmqUiQCwAAAQvlWRvrHyvFsNN33E/V9trR7fJTUeoef+gAACJhUoiIgoEAUylUzAjhefT1TjrM6md1XkPWanZx4P7jy3eIlizes6znXbV3eFq7aMTPwM+aTEyomS1cmS1NyBMUJcimVmq2S4okqQBIgCYJiYJiYJRNAgAAAiWSBRMCJhZgETEqmqkRMGj0fcJOVnpxwW76GF5PrEQpmGlm7auM67au9MLV20Ymw1+fLUiCumEIkQlSYAAAEoEoEoFdMCqaYK5ti4ti4ti4ti4ti5FAuLclVKCEgmCElompFEXBaXRai8izRkCxGQMeMkYjLhcS1sMG5zLtq7qLV20Y221O2BSS5jB8/PtVq736SKAAAAAAAAAAAAAAAAAAAAAAt3MTLAAAAAGp22pMm7aui1dtGNttTtiOV6rnuGPINrs7HxvFtPS/PfQvqerUZnG53s7bjL0WuOst8ptDfYnNWTrasfXm/u8zmm0xuavHQZXK4Z3ODjaQ67H5rEO1zuL7QAAAAAAAAAAAAxMvEywAc+dA58dAABqdtqTJu2rotXbRjbbU7YU1DyzU+0PB58LNPd3kWgAAAAAAAYdOcAAAAAAAAAAAAAMTLxMsAAAAAanbakybtq6LV22YG01+IdE0lRuWmG5aYblphuWmG5aYblphuWmG5aYblphuWmG5aYblphuWmG5aYblphuWmG5aYblphuWmG5aYblphuWmG5aYblphuWmG5aYblphuWmG5aYblphuWmpNpq7GWZV23cESLFrLtmMyBjsgY7IGOyBjsgY7IGOyBjsgY7IGOyBjsgY7IGOyBjsgY7IGOyBjsgY7IGOyBjsgY7IGOyBjsgY7IGOyBjsgY7IGOyBjsgY7IGOyBjsgWbtVwSCJoIqsZhCpLSqFCsUTIhUKVQpVCFQpVClUKVYoVqoVopVQQqFKoUTUKaa4KYriWIqFE1QUqpsoVpaFUlMzKUTJYTKUqhSmVpVwlFNcLSmmW3VZizKmivWVu5aMbY63ZSpjVLeweO8YT6ljzHdnaRx3AV6vHy70O30TlfO++r2nJ8w2/G9xc4GK9Ocz0wNWm0mzhGza2sz2JWZDGyQQSAUgiUBESSLBBJEsokBAVMSAgLMTBSiSMWu3mxZvWEzrlq70ytXbRi7LW7OWON7Ljl5Lnuz055/6rrtjZrPE/f/Nprjd16ThOnD6LoOR6ce97ziPQuerPJdnyEvU+t+Ney3LR7wnLZHQjn8Hrhy9HVzXK9UQFCIUzEogRVSKoVIRTIJiWYkJggKmJAQiVmBFi5jSxEpuMe/js5121d6YWrtoxdnrNlLPn3oPCS8DGTzVXt3yWVZ6Hye+o59Oa67c3uHr86u91Qcvm1WfR48PMwNpW59I8s9TuXlnqfnKbiMG4RjZl5N1y+w4G329EwIEBEJliQCyJBEwTEwJRLKJBJCYExICRKVQx0ppmJuIRLFi/Yuc67au7wtXbRi7LW7KVxPbcfLor13Z6zqOd7yE8xyfSYa57QaPO8/u6CzoddHKdLznU9/Hu9LOxlue8eaelXIWJgSiQBMSKZpJhEsokKarACBIEBMJlgkEpAVMSAiVgigzuIkUwLTZv2Gc27au9MLV20Yuy1uylc/0HORq8Sujearug1/Tfc5XAajrdbR0Fz5/q5nU+hc5Zr9pHeufLdHtN7rGs7PRb3XOZpkJgmAkAgUpUERESq6KwibAABBJEsokBAVICgWaqZYCxTNMJQsWL9hnNu2rvTC1dtGLstbspXL9RymZp+Zy+Q9Ppq11vZer03OR77GzjjfV+G23DPc+davX5ddTi3/Vvp+p8o3PHPoPbedei+TyQmLmZpkSBNIhCyiEqhSoSq6K7AQQSQTTISiUkJgglSaCLc0xNMw0gIpqiICxj5GOzm3bV3phau2jF2Wt2Urh+48y1vlsK7Hu9vO7/AFe5tu25umLm6/ZJj260kUZFi61t21crq/YfIPX/AB+RjZPH8ePW4+vg3lXO4p1dPKdWqJIhEs0zACq6K0CyJiQQTTVBJEsokEiVsUzSImmammqkgERMRESWMfIx2M27au9MrV20Yuy1uylecej+a9OvB1Vaj2+ydrynTyZNVm7bhZmFUzm3NTmLnWcLYLyW85bpJnrvYPG/ZPL5mFm8bx49c1FhNnax8tbuXgas6OnW6BexjBS58aDfoCq6K0CwiQBASiZYTImKKUks01UimYlRMECIiYIQJxsnGZzbtq70ytXbRi7LW7KVxPbRb84aD2/lPR6fJuz7DaVwWZ297W/NcX1OzZ5VY9avR5hd9NwF8c3Pf5GcR6pZvefhPiftjOfFZ9nJ4tY9xHkGm93heUx+yR4hsfXh5Z6nMAKrorQibCJAACUopFM0iJhSYIIlmkIBESikEY+TjM5t21d6ZWrtoxdlrdjLIgAAAmAALQgBEiExZMKVCUACYmEBVdFaRJYAIJJlQiyUJYhCghEy0xMKgIBETBBETjZGPc5t21d3lau2jF2Wt2UsSsy3mPYTPWbwAJIAIqYmBKCVJaohEBQAAJiYQFV0VoQslTVKlFTAgKhEUxJUTAEQmFpVUkAiJiIhKxj5OMxm3bV3plau2jF2Wt2UrBzkvNWOsg5vpRAACJqJgSiCaSVMFAAAAAmJhAVXRWiJmyAACFSRFFSoiqIpmCgQJaQQCImIpCzjZOMxm3bV3plau2jF2Wt2UrGyJOHdml4yeyJxtjuseuKqjAM1TZOr33NdKKZplkKAAAAABMSSJmSKoUCAARJLEwpMIUTCiUpEtMxK0kACmaYRMKx8nGYzbtq70ytXbRi7LW7KUBEVBAmAAEEwKiJlAAAAAAKpSmosAAAEEiVEqIElMUphUTAIlEERMBDJTNNTAsWMjHZzbtq70wtXbRi7LW7GVMCYACJiFmaZgUkhQAAAACqUiZipimpAAABBIlCwAiZVFVACoIgKpnkN4zOf5b0rlvG2em5/h09NimrviCKWL9hnNu2rvTC1dtGJsddsZUxJoczWQbGrGw12+OwI2NesyDM1+wwDL2ul3SgACSJmUiSwADma9ndOc2WZBqOixM8qIVIAgCJhZhERAqYgEQIWOI7flLnW935V1uufT8E4/px9ezqZ8fuRMbkWb1jWc67au7wtXbRibHXZ8siaR5xiJ6hX5DtD0qjzK8vpTxbfp6U8sxT11TKymSmZlIkoEAAA4+7zFr5fk9Ai95p9T2esaLynMT1Xb+E+7AAAhZIhRMKiRNIKZSqaqQ1tJgeRezSvk3rWs2vt8eyjkOu8HrmJpWLN+xrOddtXd4WrtoxM/Az5pMTLptH2sHNx0w0et68cvHVQnEXeypKpoqJmAkEJAIkAALC+kiTQAAAFiSIhFREpUTAIliVJMIPPuD99J5q9Kpjw/sO+L4f7VeiFNVKrN6zrOddtXd4WrtoxM/X5kt2bES5M4gymKTIiwXIiyLyyLyxJfiwsyFgZE4wyGOMmMcuTGPUX5sQmQsC+sC+sC+x5L7HlbywMimxBeWYi/NiC8tC4sovU24W4ti5FtFcU0lyKC1xTESiCbVdGs5121d3lau2jG22p2wARbLoAAAAAAAAAAAAAAAAAAAAAAADGyQAAAABqdtqTJu2rotXbRjbbU7YjT7jluOPPsS/0HxfDv+v819K+t7JeedF6uvQuRpOwcbfOrcdjHcxztJ0zltibhyVk7KeNHZNNpTs3K4h2rkeuAAAAAAAAAAAAMTLxMsAGjN40Um8AA1O21Jk3bV0WrtoxttqdsRhZqTx7SezYPy/Lb6g+j6dZjb101q6NuNFkbUabH6EYmFuBr2wGmr2w1VvcjBw90OdxOtGr2gAAAAAAAAAAAAYmXiZYAs3hZXgAA1O21Jk3bV0Wrtow9xpIN6whmsIZrCGawhmsIZrCGawhmsIZrCGawhmsIZrCGawhmsIZrCGawhmsIZrCGawhmsIZrCGawhmsIZrCGawhmsIZF3CGawhmsIZrCGawhmsIZmntyZ921dFu5SYODtrBqmyGtbIa1shrWyGtbIa1shrWyGtbIa1shrWyGtbIa1shrWyGtbIa1shrWyGtbIa1shrWyGtbIa1shrWyGtbIa1shrWyGtbIa1shrWyGtbIa1shrWyGtbIYedN8uXKahEwRbrulichLjsgY7IgsL8mOyYMdkDHZAx2SrGZIxmSMZlExmSMVlDGZKXGZIxmSMZkymLTmULjsiCwvxLYZCzHX5MdkRLYX5LC/KY6/bLbTanyevr3EXOPTs3OdB6vNcZMd+ONGRC2F4WblquyuYmxTVbKMrAz5UxBU1dmt00qty4HjI9xn55xa+kY8L9QOkaWDeNHWblau5AJgSBEgAAAQICCJUxBULBEJQsokGvyt8Xj2/z36CtQ8nqrUCuq0Trul8s6v7HyeoiX1vmRZrx82Ji2mbVbudMrV20Yuy1uylaXdcfWdMNycHNxI+eNZvek59vPHqGFz6+fdPh6Tv5vqKrkeu1kDI3vL9PmzyvVY+Wvwc7IrUVbrBjGbBZg9DrdkoESiEIUIQEVUzUhEBMJlRIjzzsPOfj/VuLb4/17i2LjoOb6cri259bk2h6Vm8f1P6j81TEx25se/YZzbtq70wtXbRi7PWbKWeO7HjqzaqJ3J0u5xI8I7Xk8vy+7rmpwuHo2HnPTWO/n9P6vW7L1+ECjp+Y6fNYWb8+5fQbyDEPUdz4/hV6lufBLUntTjOLr3Gvxq9HreLxPKntWV4fsl9W1PlmMew7vzj0gIkEEgESzCDl+M6vkvzf6GpS8PuruXuv9fkvcJ6bp/pfN4eneaH4/wBmpS5dNp3nnnoH3vh3oR9L58WL9i5zrtq7vC1dtGLstbspZ43seOrNmmrcanbarOvPLW02Ph+jpIyaMdbDd6vWeq6Xnug9vzZg6c6On5jqM2MTL0GW55mvGTqKtfqzoeY30mfa11sya8ag21PB79d64LoZd3PL9BZmXeQ2punLc8elOY2Bt457NNqhKiRy/DeneX/A+7UofM+rWoHovnuRienx1qHm9lagbbvOU6z9H+buxL2+SmxkWLnNu2ru8LV20Yuy1uylcd2PHVmVUzuTEjm+f73zPye3Gt59rl6cno+K9J6+faTaq9fhuRAo6nluozavBfedLl57uvQ4PJcD2nBPMnrknj9r2Wk8hyO73BwGq9WHkVz1nBOG0frtk8vueryeOR7JhnmeT6ePJMT2aBJKpmTH4D0PW+ft5czMD8v+rrUMarUCtQK71jr/AGePa7PHyv0n5qom2mxfsM5t21d6YWrtoxdlrdlK43suNrLmircuKbudWfK/V+Q8/p45m2OHqx/SeO9F68aJu0erxJoazV1HK9XmxMMqoCUSAKULMCSiBBNK6KrJISSCSCYCYTLCRGPk0ppON9FwfP6PK49C1HyPsco31zh353N6TZe3x6/d1Zn1fkrlUayiYVj5GOzm3bV3phau2jF2Wt2Uri+044v5FdU1MJzuzqN3j5157r/UOS4erL6bWbjt5qpNYtY+ZFmD1vMdPvmidCb1gYhu5w7JsqcDOUEmILNMxAKrorQLCJBBICEsgBItX4XBw9rbNS2kTWBfyhbrqERMRAWMe/YYzbtq70ytXbRi7LW7KWeR63kJdpRVbx0uzFWkKoLNNV3OqZkimu2k01WZY6Tmul6cnN9Is1tewHNWOqHM9MgmkWaSWYmEBVdFaETYIJIJgJglTEkgi2E0zCxFVMs01UkAiJiIQGPk4zObdtXemVu4MTNpFWg3qXT07pLrZ2Kte2A1dzYMtZVsVa2naDWYPQpdLvKWs1+YemLOOxu6HF3+tHL6nvhotb15eYtdYjhe6ABVSKlKypSKlIqUlqUoqmgV0BCRCRTFYoi4W2uC1F5FhfFizmrLdwspZQxWUMVlDFZQxWUMVlDFZQxWUMVlDFZQxWUMVlDFZQxWUMVlDFZQxWUMVlDFZQxWUMVlDFZQxWUMVlDFZQxWUMVlDFZQxWUMVlDFZQxWUMVlDFZQxWUMVlAAAABE2Ivsdm5DHGQxxfWbtlQ0AAAAAAAAAAAAAAAAAAAAAAAAAAAAAApxcnG57EY2schpfmfR9Ra3ZfQ+evWb3TF4duYAAAAAABxGxOmc/pTugAAAAAAAADEMtyw6lh5gAAAAAAAABRjZONz2xcpz35Vn52++B97S9pz/AEH1vlL1m96/JeHbmAAAAAABgaTI0xt9nqM03YAAAAAAAAI4ztNMV5FGAWem5/oAAAAAAAAACjGy8bnqkY6AALtrI1m4OvMAAAAAADn9zfFrRdEAAAAAAAAAANPTugAAAAAAAAAABQwqeWti11C7Nr7lznDpAAAAAAABaLrn842TXWzaqKwAAAAAAAYBntTBt2jyjZNfJngAAAAOJHbOJHbOJHbOJHbOJHRYWpcOubOCxrOzNKs7dxL08e2cSO2cSO2cSO2cSO2cSO2cSO2cSO2tccMq9rxez9UOry+JHbOJHbOJHbOJHbOJHbOJHbOJHbOJHbavnRsLeGMyvAG61+LaO7cSO2cSO2cSO2cSO2cSPjYAAAAAAAAAAAAB13fniT20eJPbR4k9tHiT20eJPbR4k9tHiT20eJPbR4k9t4A5EAAAAAAAAAAAAAAAAAAAAAAAAAG36Lhh3Lhh3Lhh3Lhh3Lhh3Lhh3Lhh3Lhh3Lhh3PO6gAAAAAAAAAAAAAf/xAA3EAABBAECAwYEBAYDAQEAAAACAAEDBAUREhATFAYWIDIzUCEiMEAVMTVgFyM0QUJDByQlcID/2gAIAQEAAQUC/wDrdm0UDx5GE4r2QioBZuNXKrbG0yuWz5gUSMKVk5XVrN2orL568sXdO/B7MZbRLIPPHBailLHXHuwqzlCK0pnu5CXGWLBS2bIVYSycIUpMkLDHcGaX6GVyTUmpyRhVyY29ssnTZLHlz7aGAZ547djHRRfzMwqcLyTT2ZobGBfdX9n7Q4nR8XjTyViKIII8lmOfZvQR140fMnbC2GtXMgNorNFyLAvHC+L58mOL6x46U7XS3SatWjqxKTFQyyfg0LKrVjqR+zu2rVqsVOOxD1EQ9maYuOHhGRfg8W/H4uHGtxcWd/8A8tu61Wq1Wq3cXfRbnW51udbnW/6TygJO7C0uWAHjy4u8zvLXpXnjNDKBupbcEDncrxt+JVEJibGYgP4lUX4lUR3a8aEmMfv38Q8C/NDKBPFdIz5oOaB/ouT2cjl7DiqlGIIZqMNiOnbKpLkafNHGXXNSbqFwSYx/5EJ2zXaon6Sl2Oyl+qbZjsxYqXy7U9nP4f5hZTGWcNa7Sk+7Afov378LJyBFIdqqLPuZDwL85NNteCCSs81eSOSGKGwyD6MJcjJ5oXGUNuQoVrJ46e/Ta3FiDl2yfy8pnFQfWp/yJ+tdq/6Tst+hdsawWMF/xvK/NXbwmLPdpxcZOz/6L9+/FxO9c4DwL87lcpnJ+ppTWwngmfRVIngrh9HMVHY67fiNCOWXFWrdYMjXqZCSi82cj2YusdmxliKa5DHyov8AkRv/AGu1Tf8AU7L/AKF2p/QuytuXHVD7d5YwxGDvdoL/AG9i5eW7P/ovsVXq+fwHgX5u3wgC3EHWnJHy7BzoPo6apm0V+iNyPE1JqjT0obKDD1QcWYW2s7qalXslJQrStHGMQSRjKA4+qAhj6saYWFTUa1ggAYx+/fxDwP8APgMEQnwD8veXbVbVtW1bVt8GxbHWx1sdbP2bvNbzW81vNbzW81vNbzW81vNbzW81vNbzW81vNbzW81vNbzW81vNbzW81vNbzW81vNbzW81vNbzW81vNbzW81vNbzW81vNbzW81vNbzW81vNbzW81vNbzW81vNbzW81vNbzW81vNbzW81vNbzW81vNbzW81vNbzW81vNbzW81otFotFotFotFotFotFotFotFotFotFotFotFotFotFotFotFotFotFotFotFotFotFotFotFotFotFotFotFotFotFotFotFotFotFotFotP2W7rXVbSW0ltJbSW0ltJbSW0ltJbSW0ltJbSW0ltJbSW0ltJbSWwlsJbCWwlsJbCWwlsJbCWwlsJbCWwlsJbCWwltJbSW0ltJbSW0ltJbSW0ltJbSW0ltJbSW0ltJbSW0ltJbSW0ltJbSW0ltJbSWhLQloS1TP4HROhba37AL5kLpuJJvU/YBPwbzDxJN6vA5BiC7kZZoMV2vsSSdfYXX2F11hWctJVhn7V5Eih7R5R2DtDkEGZsWIKWSuyrr7C/ELCjycwqCcLAe2k+nFvMPEk3qcMrO4vNK9Yu0tLbJisvIMcMk8k02SeGXNZaXIWK/mh1dSfIo7wgYZLlqCzHYZ3Ul2vGsRkebc4UPneK2RhjpDMnnkgvhaKOuF2aw0WQN2q3ynl9if4J+LeceJJvU4Zb+pMGMNnPDC4p6IV5eVM5lunoNfy0+AYWOGWBSHq0hOz9mQ5xtBCxHXryLLVxglwJ7+MMTQRx4+OI4agV3aAGMcdHGENSOFBSjBoarQl7ET6+BvMPEk3qcM1ZjittcrupeTO9ybkKK7DKO8HVGMgykt25Cq5wXI8xUhkKPAnr2crvBVU1iOBrER5JsNXkrWeEmTqw3eEhtFHDK08XshP4W8w8STepwzAsVi/VGFdfUVy0BT4zpLEf9ghbrfw2yZ0qo11LiuaNfHnE+NEYlPGZRY0YzZ1j/wCt4XDt3Szdtpp8jcnAqVi1OqMZ5LI4DJlLgq1mN4fYSfxN5h4km9ThmQcrZ02lX4RWT4aq6epdxtlsxfjaldKxJEbGI5MIpqFjqQtzaCWegrKqb5SCOlBVe08LBhrFbrOAxAAFVgISACflAmhjEhhjBDgnex7A76eNvMPEk3qcMucrWo2sSO1Gzp0U7J6s66WRWaJnH+JPDHXOWR+rmqvfsbo7Zs704ChiM5TXQMa7P4yGO57Q/wAPoN5h4km9XhfDdYmiAUxumldNMSaY03N0tFFXvNX+EoRVo7lolSg5Cc3lKOLRMzMsQ07W/Z3T/QbzDxJN6vDIfCQtdG+K/uzLfHEr2YA61GqNvF2sdciKnipZD5LS5DY+tau2waZmqFOKCEfhc9nf6LeYeJJvU4ZF/wCb/axONcLFuaZAZG/xFHkYKgY2zHI3K3o4XZOH80TVPK1BAZ4ZkJvGNWbmn7M/0m8w8STepwyXryytEDzOaGTc8IfzWBts+MGUxxukuJnegM/aGmcZZK1PbGxzxcXCOGV1WyPMaoRNN7K/02848STerwybPzrx82SSPajblzxN8Rb5jbVALbXBnFqAmNeqMCEW1MfgHySN8GxtlprPuDeceJJvU4Z6VwyDfEZPgpwUbbow9SUdWH4g35R+X+4J1P8ABRR7liG/9Dh1shqCZ5CknsBZaxHsG9AZ9XCUv3X5fWbzjxJN6vDP/wBXrtIvIWiYtH/Jau7GfKQl8o+Rf2kb4zzaSxDq2Hf/ANDg1WeFV4pGkOFytgHMydeOaaCKicZ/cv8AXbzjxJN6nDtB/V/EHMtU+jkvhp82jv8AGN/gBuIinkZnf8rzs1mm4vFij/8AQ9wbzjxJN6vDtGOk5ntGcjkDHkc0m7cwPpwd2ZjN2j1+TqDBgNydpmYbwc6at/LHDtrkuFDKWatL8anp4qbMX7d+tlzjaXtJZgUWbtgN3Oz3MLn7c1PDwYTobHeKQMkPaG0MMdnIlmvsn+wbzjxJN6vDI0Rv18lXnpTXrcjLHjtGEvg35sturSB8nKLljVN00TRMZ6q9vcaJS2zwuJ6EeD4CoWM7uxCXd+uMb9nq3Lbs7W0t4CvbkPs5BLFbpw3asGCCKeLs3DEgwlYatbBhBZ9ibzjxJN6nEhYm6Gsmp12XSwLpoV00K6eFdPEumhXTxLp4V0kC6SugjCNvcW848STep+wm848STep+wm848STep+wm848STepwuG8dSxKYMdqxsitc+1743nHiSb1OEgNLGFOTcNPa8dNornvjeceJJvU4iYmwmJsJibCYmhMTTSC7Q5CpYM54ozluV4DntQVREmMfdG848STepwnj5sOLwZ4+LF4KTHxYvBnj4sXgzx8WLwZ4+KnhSxlHHuWItPkq9rJlBUsICnt2eyhB+De6N5x4km9T6DixNTw9ChLLXinK3hqF6a5iqeQUFeKrF7o3nHiSb1P2E3mHiSb1PeSIQZshW2tcDm+JvMPEk3qe8WbIVIJsiOUjgqNchmtdIGNt9M3hbzDxJN6nF5QY/GxMTc0N/wBgdqTmjcjefroOXFYjmYrcAC3x+27WvMVbs5j/AJWZhaeAJwljLqYi3ReBvMPEl/s46B+HTWJykllnN5bE8kjSyPO8spMxyso5ZrBY53fHOEP4RNJMzfXtxHIfLsBLHWnORhmAunmCvExNH9r2ktTUocddbqVYnGvHBm+puVo+TB4G8w8SX+ziVaEpJK8MrvGDo60Mq2DrHWhiT1ICA68UjCIg3TQ83lg/2BEwMJMbfc2K8dqLIV2hKznrVZV8nNdkxONYp/C3mHiS/wBnGrnY7NyrnnmsWc5DVlr5qSWSvm5pMlJm9jx9oIWr08081mvn3lmsZ960n2GRexdsUz/DrWf6hsUWRPI5Wr2jeXI4zJPy5Mzctt9rJEEwz9l6U8tTs5Spn4m8w8SX+zjskj7R467Lfyz1Zslgq80mUzOLEmVezYxfZwah3sGEsmWy9K9LkMvmzs3jbXT69zFTPYx2EKCZ21bE9nI8XHS7NHVs1uzgwND2cli+07U5K1i6mY7VarI3L1jMY69chyWKy9ue9FenLtP+PZCOrCbyRcW8w8SX+zwiLAKcWJmbRvbsljmyKn7L1DjyeGa9PjsMNEu7ss0wYtgzGNwFWh4W8w8SX+zw6LTjr7y3mHiS/wBnHVblr9pr7SPmHiS01k5QrkiuQK5ArkiuSK5IrkiuSK5IrkiuSK5IrkiuSK5IrkiuSK5IrkiuSK5IrkiuSK5IrkiuUK5QrlCuUK5QrlCuUK5QrlCuUK5QrlCuUK5QrkiuSK5IrkiuSK5IrkiuSK5IrkiuSK5ArkCuQK5ArkCuQK5ALkAuQC5ALkAuQC5ALpwXTgtNpjxJD6vupEwt9QvVHiSH1eNrN1q6r9oYpFHIEo+32PS+oXqjxJD6vDP/ANAqVA7r9nfhbRXwG+diGIuvheeKZpAK3XB2uwPbCxDJJNkIYiv3Bo12uRDGdiKMpJAiDqIdh3YmhG2DB1ETRBIEoBdjJuoi5RWwcOqgeT7mx6X1C9UeJIfV4ZmLnY+lBUuwXr4mPZuJ9UVW5LA5CEkgkNqWtOMeRGRMJjboQPvaN+myYPJUl0guY6ocVi+L83p3lkmgPm1qxdUdeYRxse2PlGFjkmSdnmudK7UPubHpeCpUnhs06k8NilUngm8JeqPEkPq8clhpITqYyxbOtWCrD9nPAFgIKsVZvurHpfUL1R4km9X3Wx6X1H9UeJI1HI0g/sCSRoxBDxJEy0cXaxKuolXUSrqJV1Eq6iVdRKuolXUSrqJV1Eq6iVdRKuolXUSrqJV1Eq6iVdRKuolXUSrqJV1Eq6iVdRKuolXUSrqJV1Eq6iVdRKuolXUSrqJV1Eq6iVdRKuolXUSrqJV1Eq6iVdRKuolXUSrqJV1Eq6iVdRKuolXUSrqJV1Eq6iVdRKuolXUSrqJV1Eq6iVdRKuolXUSp7Eq0cnFkPF07JxWxbFsWxbFsWxbFsWxbFsWxbFsWxbFsWxbFsWxbFsWxbFsWxbFsWxbFsWxbFsWxbFsWxbFsWxbFsWxbFsWxbFsWxbFsWxbFsWxbFsWxbFsWxMKZk37Md0w6rRloy0ZaMtGWjLRloy0ZaMtGWjLRloy0ZaMtGWjLRloy2strLRltZbWW1loy2strLay2strLRltZbWWjLRloy0ZaMtGWjLRloy0ZaMtGWjLRloy0ZaMtGWjLRloy0ZaMtGWjLRlotFoyf4Jn8Dr8y/YBPwF/i3Ek3qcbV2ClFWzNG5F19ddfXXXQLroFJ2jxkTh2lxhps/jyRZWqAR5anM/X1119dR3IZH9vf48Gf5h4km9XheneCLmETT87s9laORjujpwz+caqhtFMcRsK5uxVrjiNMo4eOqx1tz4w23nTSC6r2xsONuMrY2o3iKxEDDNGZBNHI/sZPxbzDxJN6nDL/wBRahaVsrUbKUMFVO2FKjW6ufGwnNfpmGQalNXKKRgUszuz2SFY6U8k9aKzEpHsK7fuVzwkO6zwo1OUFcJlQgkiI6hSTgFgIadUxeGpIMVKAhl9iN/A3nHiSb1OGVb/ALOikEq8zFFUf8nVJxlypvUlGXCcwb9Cek2w5S7KhpDrwzYsuzlkHP2t308LeYeJJvU4ZyOU7Ulm1BJ1syv5Rzlp9Xt0NQ1eVenevOsY0vLvNJMVYAkPC19oTWOQAy2LjRVo4HoE73eGQzFqLMX850d6zn4qkneCKzFFnzZqOQhv0Iu03M9id9E/hbzDxJN6nDMybLd7mWIxxuSVjF3pVisrJCbX6xKJx6sacWsI6kEQSKSOOAa47I5ZR0x0NiAJSMRxhm9/h3Ppy1b2BsXYbPZ3qFW7PdM9HB9Fex2Ilx9OCvOZewu+vibzDxJN6nDLlE1pmB1ylylZwNezIXZes6jxbY0YbIiDRPLYoGFWO/Y2hcaQSw9/k15MoGk2TsSBgCvnc9pd9fG3mHiSb1eGUhGWyMIwkx1nb/qOtlRcqqir1ZBlE90TwRIoxkV2y22KF7x7RiEY96CJlhhEZ/aCf6DeYeJJvV4XnYZpZt7arVaofirEwVakrz3Y37RvExZqa89iuctoW5bQQOa2bFUxcs4UsbXq3PZyf6LeYeJJvV4ZH1HLVvKp8lHE7Z34lnpHcrEttsYLRRWMXDOUNMKzNCw3GgFyqYs+U1MIlBKwRxnzLXszv9JvMPEk3qcMl67/AJWrvOH4EoR+d4twXStuqWZsQvir4X47PLiGa/DBYMXBQ25YRgy8roJglioyfP7K7/TbzDxJN6nDJ+vesuDauLjJtlhb+Y35myamO4d0SKXIONXFsZQ1uUxj8sL/ADQSnEdQxeb2R3+o3nHiSb1OGYtDHYkJ5Xkbc0/qAHyB55PlQ/AWUbDtZB+ZfkfyE0rmsQR9fwKaMGZ2Jnswi7fH75/qt5x4km9Xh2gj/wDQElIOoSNvaN9rC/zk7Ow/KLfkHl/uyL5Sm80R/DDt/wB/hXESOptG1NED5HnydQE0vKhsWJD+6d/rN5x4km9Th2g/qvO5yaMZO76fH823CzSfOgNRlqDcDb4XCcZ6w7wxIaZDgdWCQQAYx2s5BBpYgpRQrp4eZ9y7/XbzjxJN6nDtD/VkLOp7AxBDeaaV30QHuZaIT2BzNBGwG3nbi/NslITWqUhcnE6/iHCj2hr360WVrFTtZmpTuV8gxx9bXeOO5Xliu5mvVxty7FQpwZwistdrFONyscjZeudz7J/sG848STerw7Q1Skinl0VizFCOMfa0Z6s35s6dtWk12b/5eurxA6ORxa5I0aikZdnqxz2uDYe02Hkhs8mKnNEA0bADNjprBW6ktWxLSsnSz1OW7ia2YsXbIQ2pbMeJnlxNIBlzHsTeceJJvV4aaq/2Ur25J+wDznB2G5KDsk4puyq7suu7CLsq5N3TbaPZUWRdmndd0SdTdiecqPYuKsccQQh7g3nHiSb1P2E3nHiSb1P2E3nHiSb1P2E3nHiSb1OEkgxRlMAJ7kItzR5vvjeceJJvU4WweWq842X5PNas0o5D3xvOPEk3qfsJvOPEk3qcJ5OVDi83Lfhxeblvw4vOS3ocXnJb8OLzkt+KhnpbdXB5efIyWM5P+M2cpkZJbGclkfD3JchjvdG848STepxEBFCAihARQiIphYFJF/Jjx1+1ffsvYhVjHZGCWXBTV7GDoS42h7o3nHiSb1P2E3mHiSb1P2E3mHiSb1Peb+Resmv3yqtIcY0LrXq/hbzDxJN6nvHaK+VGhhWmuQVsWEKu4pyfnnBaEt4+BvMPEk3qcWnsyhJcCJ5L8URS3I4n6oOa98NjXR5b3Y9Kljn1epstAV+IT+vZg1ljP/svYnJV5DE+pnOvEW+P7XtDXrWGwoxV5k6KCIrFQnOv4G8w8SX+zjJRkKKbHPzHqEpceTmNUhOKhJzCoyOgqy13qQPDW6Ww8ElQyi+vJSgmIq8RnHTgiJ6MDiVKAhZmFvtc9jXyVMYpKD/j1SOOxnI7UeMx0r5Nm0bwN5h4kv8AZ4dW14atr9pkc10smOyxWlkchHjK1nIxVbQyARVMsF4bORhql9rfxzzrIYu91OLwt95qlEKY+FvMPEl/s406vT9pKlGKLN5GeQoxxsFDMYzG1nz9arDkabvNTwY048NnK9CGHMZ+kFN2+P2FuOKvcqPJfv36g36eCe3cmxTP+MY+vY5dSGBg+zuX69AbmQr48b+UqY1qOTqZIYu0OOsTNegK73nxTF4G8w8SX+ziWOjK3Q7NxY2Svh4gxVHCw0Za+OGlQnwEFjE18JFFBSwUFKSj2Yhx8kvZmnLL+X2EkQTNHEELfcdrafX18hjMrIOT343tBixO/mqU09OzDEffDHYnJ36cUbQxcW8w8SX+z6Wq193bzDxJf7PFqtfe28w8SWuh73W8lvJbzW4luJbiW4luJbyW8lvdb3W51vJbnW8lvdb3W91vdbyW8lvJbyW91zHXMJcx1zCXMJcwlzCXMJcwlzHXMdcx1zHW91zHW91vJbyW51vdbnW4luJbiW4luJbiW4lqS1JaktSXzL5l8y+ZfOvnXzr50PmHiSH1f2EXqjxJD6vgEhNvcJncQ+oXqjxJD6vDI3OhrWslYtqCzLWLEZWS8X0m+Pstj0vqF6o8SQ+rwz7a4/oZuQIR4aLs4zlZU1+NsmUtqeYin60cgVeC5fsVkE0zZCnkp5pZJ7NivmhMqDHZc696e7PbnkEyvWReaeYghsTbyykoxY+xJYjisSDP1thlLZm5nWW9n3Nj0vBWyA2bFXIjanqZEbcvhL1R4kh9XhagazBBbs4mU5CmPC0nqV01KIaZ40Dc6QFKWPhNp8bHYLowaaGgMB/hUOtiAbMc9EJpIqscMlisNlgx8YMVGIyjoxxSFj43CvByALHxEpqLBWq413Poo+R9zY9LwNGIuICLiAh4i9UeJIfV428fBdaphq9Q/cLHpfUL1R4ktdp+6mO9vqa7jHiSNR2eWuqhXVRLqol1US6qJdVEuqiXVRLqol1US6qJdVEuqiXVRLqol1US6qJdVEuqiXVRLqol1US6qJdVEuqiXVRLqol1US6qJdVEuqiXVRLqol1US6qJdVEuqiXVRLqol1US6qJdVEuqiXVRLqol1US6qJdVEuqiXVRLqol1US6qJdVEuqiXVRLqol1US6qJdVEuqiXVRLqol1UKks8xAh4kiZEK2LYti2LYti2LYti2LYti2LYti2LYti2LYti2LYti2LYti2LYti2LYti2LYti2LYti2LYti2LYti2LYti2LYti2LYti2LYti2LYti2LYti2IRQsh4unZOC2LYti2LYti2LYti2LYti2LYti2LYti2LYti2LYti2LYti2LYti2LYti2LYti2LYti2LYti2LYti2LYti2LYti2LYti2LYti2LYti2LYti2JgTMm8Wx1sdbHWx1sdbHWx1sdbHWx1sdbHWx1sdbHWx1sdbHWx1sdbHWx1sdbHWx1sdbHWx1sdbHWx1sdbHXLdct1sdbHWx1sdbHWx1sdbHWx1sdbXW11sdbHWx1sdbHW11sdbXWx1sdbHWx1sdbHW1bVt8bpm090I2BpcqAoslOS66dDkJxUeWdQ2Y528WvxZ/A61+b3O1cGsM1g5y8LE4vTyO7wk/AXTcSTepwd9GKy655rnmuoNXe0AU1L2ysan2tyTrvXlVQ7X2WOC/1EfUSLnyLqJENkmQGxt7BbstWiOR5C+hjru7iT6cWf5h4km9ThYsM8/G2bhBdld5fMtpLV1rqsLlDoWBLcPGGTlnwofO8VsjDHSGZPPJBfC0UdcLs1hosgbtVvlPL9tesc+f6LFterN1EL/BPxbzjxJN6nCX9a42TGOGQGuW4KkYI6oGz42NXKHKT/AJ9nJ3nx3H/LhDE0EcePjiOGoEDtADGOOjjCGpHCgpxg0NVoS+1vS8mt4amPCxW8OIm0J318DeYeJJvU4S/rXHK/HHUPWAVtTgpQZ2tx8qbs6GzFcf8ALhZtRU4uFjIwVrKPK1QFn1Y8lAF6hkYMnHFbinksWI6sFSyFyveyMGOavaitIzaMK9iO1BLmqcVZspXK59PMl/K8GwljdWobCT6t4KJ7bLeBvMPEk3qcJv1rjYDmQUYyBE9hnozzErpzFIMbK/Buix4NHS4/5cJ5Y58ZkJbEV/I2I2mp1wkzuHnbr6bx1sZkrbdDHjoJe0NDSDERC71rr/iuEaeLE5atCN97UTx4+/OMuTpSi6grxWcZi6UUfab6ea8FSZq9j8brqCyNiH8arrI3o7fgqf1I+BvMPEk3qcJv1rjkDIK8UOiKlqARbDeLWVqTaWYWeHEfKHH/AC4PWhInjBzyGHkvyRVooBCCKM+mh3XcC96TYO7p4nitUmnr1qMNSkcUciaCNk8MbsUMUhPXhIOTEmjFi+nmB1r+HF/p/hoDusD4G8w8STepwm/WuORDfWB/nZkcg80pAab+0pLExuEHH/LgWax4TZLO08cLdoqwS2MpTpxY3OwX0WSqCR5CrE8eWoy18hkgpxWMtSqSnmsfE/eqHr4s/QkoWe1cUNKpkuao+0VSa31tffJ2gqPOGWpSWqWahs16/afrFks3Uxw1r8VgCzmOBPkaow+C1FzoX+V/AFqaIPDjI9BHwN5h4km9XhN+teC9WCMDk2sRtKn/AJajn5gYuFibwf58LEctbDXKNsIqmNka1TpXMemoz0cE+Mslg5qNq5IdHJ2cdlqd/KPcjlq2MJRlfIR4+x1ccFuMGxlwsdkqsmRtQQS3M3g6U1t69O2UdWndgvYrEXsdfuVpamDuU7YCMF6nbwWIs18hco5AaXgJZStsk+jFG8pwBsFvA3mHiSb1eE3614JRY43PVcrcngJm3aKi2yr4P8uDYig1rjZqQXB8FrE0bsrNo3GKtDARCJjXrQ1IuM1aGx9F1PE0g2qpVj8Yi5vUrckQZN4G8w8STepwm/WvA/xaSNc2QEc8hIWVFtKng/z9gJlNCxtYxxAn+D+CKscqr1RiYATN4W8w8STepwn/AFrjt4ZGryjcG1eJ9Yq/MkEGAdi2u3H/AD9gdEKKNS1gkR4yNfhibGio6cYIY0AJh8TeceJJvV4WP1pkwL+z8J5edLcrPTk3PuxgBXkX9k4MnBN6nsTiiBPGuUuUmjTAmbxt5x4km9ThK2ub008GiGLarFULMNGpqmqiMjeF/Pw62Q1BM8hST2AstYj2DegM+rhKX7p060W1bVp9FvOPEk3q8JP1t03w8JfkEbC3B/y4v5uDVZ4VXikaQ4XK2AczJ145poIqJxn9y/12848STepwk/WWfVuDcX/P+3h1+P8Al7g3nHiTJgffwOqf4jyTTQya8olyyXLJcslyj1eIlyjXKJcs1yjXKNDBNu5B7uGNr5mCCN8tBQtFm5rsX4hWge1l2rwWMtyrzZi3isr1n4dXwb0rAzZVrQWcvvgHLy5P7HX6Oi0Wi0Wi2utrra62FuFv2VoS0JaEtCWhLQloS0JaEtCWhLQloS0JaEtCWhLQloS0JaEtCWhLQloS0JaEtCWhLQloS0JaEtCWhLQloS0JaEtCWhLQloS0JaEtCWhLQloS0JaEtCWhLQloS0JaEtCWhLQloS0JaEtCWhLQloS0JaEtCWhLQv8A405re63ut7re63ut7revz9/f8vBHNHN4A9/f8uDvo17I81QzHAdS4FoeAfY3Yd1yG4UQy3DI6kP/AGPs55wrxA964i6+mq84WYvs3/LhPANgRHedmjJVHEwDIXAPsbkfNrNHPI7xWIrFKAq1b7O7bgnsWZGOjVNpK9H+Ve+zf8uMWNsDNka8liLG1ZK7cA+xv2RKNnqbrI/z4LYM32c1CCSaC5DYaV6tE8bEf2j/AJfQD7GfHnJZiFwjNtRjx8g2PtJ8bXneHGV4H+1dtPoC2n/wm3M8EE0+yTrId/X12cbkJDFYCb7Ii2jWtTzp7sAyFdgjkkvwREz6t9hcmetWsWuUI3BYZsjFGEl2CJytwjJ1UWz7S9EU1YqQhM1afldLLyZqkkhVISaT7Etdo1pinCKxCrde1OnrycyuLhX+wvxlNUmxwMukl5T17RVTisCdWsUM8Me7I/S73YVd7sKu92FXe7CrvdhV3uwq73YVd7sKu92FXe7CrvdhV3twq724Vd7cKu9uFXe7CrvdhV3uwq73YVd7sKu92FXe7CrvdhV3uwq73YVd7sKu92FXe7CrvdhV3uwq73YVd7sKu92FXe7CrvdhV3uwq73YVd7sKu92FXe7CrvdhV3uwq73YVd7sKu92FXe7CrvdhV3uwq73YVd7sKu92FXe7CrvdhV3uwq73YVd7sKu92FXe7CrvdhV3uwq73YVD2rwYLvdhV3uwq73YVd7sKu92FXe7CrvdhV3uwq73YVd7sL+48FgZ87P/DqVfw6lX8OpV/DqVfw6lX8OpV/DqVfw6lX8OpV/DqVfw6lX8OpV/DqVfw6lX8OpV/DqVfw6lX8OpVncDPgp/dKGStYyXvhml3wzS74Zpd8M0u+GaXfDNLvhml3wzS74Zpd8M0u+GaXfDNLvhml3wzS74Zpd8M0u+GaXfDNK/krWTl/cX//xAA2EQABAwIEBQEFBwQDAAAAAAABAAIRAzEQEiAhBBNAQVBRIjAyYYEFFCNwcaHRYJGx8ELB8f/aAAgBAwEBPwH8t2Un1DDQnUXsMPEKrSdSMHpgFAUDABCmSsqI0cJZ5Hovh4dkbA3Ucv8ADqGWmxTWZg6i7eLFcR+JRZU+nTUCO4EC+BTACRK9px739bKpuwE/+/NG+ijVNF+YKlxDQ4tcPZKFanTmk72m9k6vRpsy0Rf1VSvnY1kW6YOgR64FCy5gdu4Jzi5G/WypKk4ArMVJ/qy6Ou2AwhW6g21s3IRYD2XKIKt1TrarKldBd136cYutqlZoKEFOIAPT30OtpuVyCe65LW3KgFZAVkIRVuodbTSYAJw2Ka0AIgk3ULKCngg9QbaKe7tIxrfF1BtopfErIGRgEMO5VW/UG2jeVzSRZCqALLnfJc75Lmj0XO+S5kGyJJMnqDbwht4Q28IbeENvAZgDEogtuMXW695IbsgygGTUp+2bqm6nSJdX3mAI7KxODrdf7UeyVyK3C0zVrOBBP1Mqlx1X7wGMEDvb/QnHMSfXB1uiyOzW+vvZTvbGU2TGtbYK+DrdfChRi62M4SpUqcZU+9nCVKlSpUqVmWZEzpztnwb92lZQBJVL4R4M0Wkz+RZ291CjqTbWNyEaYNispBQwPUG2unfDuu/T3xdbTKkJrg0obp2wKuo6l1tN1ynHshQJO6ywnNJCiFut+kGh1tNKn/ywcJCaCBdGZ2CuiwFOv0Y0m2hoBdCtoGNW/RDUbaKXxYbHAY3JVa/UG2hpgyjVBCa8AXXMb6rO31XMb6rmN9VnaCU52Yz1Bt4Q28IbeENvCG3hDbr3ODQT6JtClUaK5qETYR+/8KjNYnmnLERPc/7/AJVsHW687dpTH135jWbEfKBHYeiHFUH1RSLZ/wCk4guJwdb3E+6zuzX+nvqznV6IouOwVPhqdN2fF1ui297ChQrYOtq2W2jZbLZbe92WykKQpC2Wy2UhGCPEOkBAOmSfqqZJbPgzScdp2QEfkIzhKru390eBqfJPovp3Gi3WNaXGAqHDtoj5qFCiVxXChozsxNtdOkXr7sfVPYWHo+ApTL1ChMqB5IHa6hRKrU+VULcDbXSOVtlnMWVX222t0fBAckfXCtVqMdDGSFRq1WveQyZ/ZUy5zQXCD6YcftVH6fzg62pkZgsgIW0KAAqsZz0X2e+WFvof840aLqb3uJuceMfnrH5bYOtrovJBW6quMdHQrGg8O/v+iY4VAHNMyoUKFxVcUG/M2/lXOBtqglUoBhZSqsQB0lGu+gfZP07Jn2jTI9sEfuvv1AC/7FVftGR+GPqf4TnF5kmcTbRdRGA2TKoj9E7c4QCrdQbaO/uDfqDbRZZisxWYrOVmKzFZyr9HKlSVJUlX8XlKylZSiI8A3BnAucyTsewTmlhIIRt4BqBhP4oCo0AiO64p+eqTMhG3gG6DbwIYSuW/0WRw7eCbVc0QFz3I1nFuX+pf/8QAOBEAAQMCBAQDBAkEAwAAAAAAAQACEQMxEBIhQAQTIFFBUGEFFCIwIzJwcYGhsdHwM0JgwZHh8f/aAAgBAgEBPwH7N6lVlIS4ptZlQEs1VGs2s2Qr7XVarVDVEmUaoBus3qp06OMuwG0oQ/iH5tYGi/qDmUhDxcJz8hbXYL6FcP8AR1n0ttXBmQdbDAKoSAYC+Fo8Ldr+n/V1S0eQP/LaJtuivSFZmUqrwzi0OafiCNGpViq34XeKbw9ao/NWNuypUOXUc+b7UotkjXAI3XKc0Q0prAyULb6AoGBhZQso/wAtHyGgFOaI3RQv1nQFCoWrmghX3Qv1XT5hXAXgvDdC/VCySrIanCdrboF+iyGpXLKygBPlpKpTUJRpPCsr7gX6DZUmQMLo0wRZNp5cHMDgoIO4F+hmpHyKt9wL9FL6ysENR0i6q3G4F+jWUapIQqgCy5w7LnDsuaOy5w7Lm62RJJ3Av5IL+SC/kgv5IL+QBriNE1wdbwxF9/SaHvAd4+KL6/MfTo1vo2nTx9fyJ0vZVBUqZWUTEAuJNif4T6CU1wcAe+Avv4pn+o2R4juqdWjx72UuHplpA1B0Aj9f9ri/ZND3YurCXRprGv8AtNAaAO2AvsuXU5sx82ExxpuzsMFPqPqH4zKtgL7+VKlHAX3sKFChQsqhAdPPpgxPkdXWmUGADO4z6Dx/b1XC6URPkZ4NhdKAj7Chr8gNBRZA3RQv16AJtWLrOCNycBfrfZaQMBt7Yi/VqFBIUBaE7eyOLb9FsAwlZCnQCZCp/EdAtZshuRfoNlSZIk4HUJ1EOCp08iuE+kCNFbZnpF+hokhW66t9wL9FL6ystCOnxVX6w2pxF+hpgo1QQmvaBdcxvdcxvdcxvdcxvdcwSU92YzuBfyQX8kF/JBfyQX8hviL7+mw1HBg8U7iKtB7uH5YJadTP5eml1UPKyimMxOpj+0dv52stCMBffjUj4y31Fx/P0RZw0N93fnzfifv7/tZVvZ/ENourtqZCAfCSbfzuqbcrA3sBgL7LnVOZfxiPncJl4OtzWDU6endV+Mq1xlOn3I4C+ygT82VKlXwF+rXbaqFqtVqtVqtUJB8oqktYSEGvcczjHjK4dxfTBJ8iIlO4WoTlB0TWhjQ0fYHZP4yizxXv9Psf5+Kp16dX6p6L9MFQVCgqCoKg7Fzg0SVX4l1Yx4YgwuF4rN8D8RfoF8CnvDVzx2TXBwxN9h7QqkQwYvpuYAT44AwqFXm0g7AX6BfAqoJN1l1umfCb4nYcdPPP4YUqVJ7Ze+Cq1Kk5jAXwqjQ1xDTPrh7P1pH7/wDQwF+gXwfMFZiCtZUklMmBgdh7RYRUDu4/TGrVa9jGgWx4NhZRHrrgL9AvjVbBUiFSaJxOwr0hWYW/8J7DTJa4RHRwvDms70F/2VsBfoF8JAVSSpCpzKkHA7GtQZXHxD8U/wBnVAfhIP5L3GuTb8wqXs6D9IfwH7prQwQBGIv0WRccDJTmQUJAUqSFfcC/SemN0L9OUKMMoUBQsoVtrCgKAreV5gswWYKfIHYP49rXwBI8SmuDwCDKbfyByIBGqZwpNNxIMiy4VmSiBEd02/kDuht/IS9oMLmM7rO0+PkT6TXmSvd2/khQaHZv8l//xABQEAABAwEEBAkIBggEBQQDAQABAAIDEQQSITETIjJBBRAgNEJRYXGRFCMzUFKBktEwQHKTobFgYnSCssHh8CRzo/EGQ3CDohVTY9IlgOJE/9oACAEBAAY/Av8Aq2xscEk73bm/NRyEll+TRgOGN7qTTLUlxoA1MY2N00r9ljU+gcyRho9jsxxOgs7xCI23ppnY3B80JbPwhaauFWlzrw8FJDaQG2iI61Mj1EcUsUFjMojJbeFTisODn+Dk6SVmic19276nJoTTcEJ7TbRYoHHVjjxf70G2HhSYS+zaBUORc9l1zXXSQdU93FDFZBWLTtZJLu+yOKRzLS2yWeGZ0VWk3irRZrXcL7PdF5m+oTpZdlv4plqfeDH7LaYlRGOJ8pfHpaCmDUxkQLr0ekJ9kbvoWRghssuTnZN7VELAPK26Sj31p3uVrlms4IdRrH6Qarb3UobXaxoo5LPozvuurVWy0xjzMl1rHe1TfxcJ2Wb/AJt11eyn9FFZXWKSUtN0Oj2S3rU72HVjhbG77Va8VuImkj/xBwbTqCmj8oko04a0Y3BWgk1raHeqHWyztw/5rf5q4MI24vd1JscYusaKAKOw2R1GveGSSNP5Lg+OFt1jbUyg8eK0w2V5ZIy3FxwzqcPyXCEjcQdGK9dAcUHNs4mgjbVo0lNbrXnGXKQm7jWopmrK+aLSOETWsANKkjJPj81fF1zgRjKTub3fTyzttj4r4Aoxo3K663ADeWw0K0cIw/PifJelYX4m5IRijSW0CufnirkNaE1NTWp9UUKuWdtxta0Toy5zA7e3NAh0wIy1kx5lnfcdeF+WuPFaHRzTR+UekDSPl2qTQF5v53jyASMR/wDrTj9EGucATuVTkqRtvKkjbqOgOJGC0c5w7d3EQ1wJHFdmlYx3aU0yTMbeyqVziP4lVjg4diLnmjRvXOI/iXOI/iQvzMbXHNBzDUHf6qIa5pLc8VHeYBFISGmquXhf6q/R0/WTYm780JbRQ1xx3K9Z6A9i0U2z+S00Of5rQy57lngg4ZFQUP8A/nH5lcDYnm/yTLTA+G48VFZDVNLy+E9+q5TNhuttLm3Hd69LZ/vT8l5Pa3jSUrqOqrBieatVh/yh6irC2+5CSV4eN4QI5JvG6OtVnaKRki+OkE2OSF7Ydzi2gVmYAI27V7rWGP0Wt7SZJuKutONEWS7O8LSwbX5pzJQQBlVUj9tRHeoq9Sg/Zx/EVwN+z/JWP7CtF8VMYvBWyLokA8Wqa0jAVhBz8larD/lD1G5slRDEcuvlRloa64cWu3pwijuFrqGPuRiia50rhS5dyUMGibO+7v3JrH0qOr6LTx/vKk4x61dds/mhJDt7kY5QS3q6l5hhvLTybIxTYgMskxnUFB+zj+Irgb9n+Ssf2FbfsLhS0wDzkcQLa96IaI2k7w1Ca0B+jLqySuUbGDBsIAVh/wAoeo5fKaaLo8o0wKuRtYy7m4mt5RaK6JnmlDuUWla3zZ9IN46qfSYKmTxkU/THA5BedZj1qt0nvKo3AKtMeK9PCyRw3kJokgY4NwFRkgyMBrRuCLJGhzTmCnNZAwNdtCma1IIx+6tUUV6eFkjushBrBRoyHqu+1jQ/r/6L7luW5bluW5bluW5bluW5bluW5bluW5bluW5bluW5bluW5bluW5bluW5bluW5bluW5bluW5bluW5bluW5bluW5bluW5bluW5bluW5bluW5bluW5bluW5bluW7/ophxbluW5bluW5bluW5bluW5bluW5bluW5bluW5bluW5bluW5bluW5bluW5bluW5bluW7kbuTuW7i3Lcty3Lcty3Lct3Jxw5WH6EN/QM8lvGXyG61uJKeOD3iN5Go/aXkvCb9HOML10UPevSfgF6T8Atv8AAIySSAAdgXmLTdb/AJbVr2r/AE2/Ja01f3GomGdwmHRLGpzpZqt3agXpPwC9J+AWvR4V5nrE8lvGyMd5QEULbsm8e1/so7fZ9mTa7+tNBBlZuG8JjPJXNvdK9gnsfZ5NU0qvYiZsN/msalalW/uKt94TXVoWoOj1ondHqVYnV6x1cWvM33Gqayzse+N2D35AcYc5lpLr7tcyG7md1VYnUHn8+zVqo7zi7/CsOJ34q0PLibO26Hj2cNpN12VMsgq+p6RyG9Q6FjA6Rjyb1cLpAUb5mNbHJCZRdzFKfNMa5oo9tdUHV7PU55LeNv2EWPyKmstqyk/Pr/n4omehkvGia8jJEgkVKkOyC7GivQraI/dWsao5qV78WNwV4QsB7MFrwtd3ud80DCwMYW5dqsndx3GVpUlMcHPOjJuAuwahcJwjEePUFK7PSbVVG2F8kejrdIOOO5R3L2oHAVPtGv8AJQjEiKMxivV/YVRJI6go0OOA9Tnkt42NkcAdHv7ytsfEgQ+64frDFMlikBdk5ntKt4NPU5bQ8VbXHoYU71VkTJWKpaKq5ZIwX70NK/3BS13yU8OKsrgENTQsHSfmfcrOzStcwHK7xxWKSYNtUoqxnX/dONz3Vo0VNBVMlZW69t4VFPVR5LeNoe0HU3rTMGoNoAL0tP3Co5YptJTd1K/H5x/SB3Km7qVpDBdvhqjDpXhgOtTJye3M0zTywua/cWnJX5XudQU1sU9zrxBc/CvajoHubJuxTnyNraWGji7ihr18dv4UstjkmbHO19nm0jQGti7M8dZR2ltqa+zmxaRtn8qdZ3fbByJVlNnmmDeFLE2GMP2hJeGt33XHwVtZJO//APGWGSF+dTJV2t8LR4qw2a02i0aJ3AschuSubV1c1YtLNpLdJC8xhxxfdP8AsuBXx2+eS3y2xnlbDKe2tW7vVB5LeNhaaeb/AJled1+9ei/Er0Z+NyebHHX9e7mFr2O/24/JaSWEwOyz4pmPifUb6Jzw1zR+sijE6OQOZgcFfJfDG46ujdiR3qsDKHtcXfmi+0m61v65b+S4OdHPedK1zQ1z6njuNY1rPZAwTGvhjIZsgsyTS5oJacKjJP1G6+1hmgWxtBDboIG7qTbkbW3cG0GSiktNtltEcMmlYxzWjW7XUx9UHkt426NjHNubzRbFmHfM7/6rYh90v9F6Gvc4Lmsni35rGzSDwRLYX3m4jBNuCrjgnP8AJ5n3t5RGhczvoQsN6IYNc7RTXB7rzsc1QyvP7y85imSBus13rE8lvG37KBYeLNbRW0VevGidGTRhdquVWWx7B1BEmcv7ymhoJJywTnyDXJzzRpxsBs5YxwJq/VOHZ7/WJ5LeMU6lXMcjzsjW95U0VmvXi3B25RxTjEKkLyR3oOtTyQNytJLSXx0uU+yqXUF/7Y/FOLW0kPTOas+NaRSD8W+sTyW8Y+yhiqnE7gjfdTsQxVc2oeUE33Y0AQMDrzHduKrnxTSMzevO4FXdDo6ZkYrzT2uRp1b1A+ta1H9+HrE8lvGPsIl+CJlNSsV7ldK1ziMl+q7HDvVy0PrBSuO5akt2nZio3WNhEQGDT0lrROje3OqwTKd60cu2cAVY79KmUjD7LvWJ5LeMH9RNxq0KrcQo7uMbneCiPtNRVN+5A+5UwxwosqIU7gncX7n81XerI29VzZK/+J9Ynkt4ywHB0Df4isFVNPbVNqiu1B3WTX8OIcRRahTaoqyHDqUFMq8cAijbekL9p3slPjlZo5WZgGoTYmxxG/eLSXnd7u1Xi7p3P3slda/Gt3ZNK9VVcDtatMjSvf6pPJbxt/yx+ZXYjVY8RO/ij6i51fwQWHGCE7rQc7EqGjd/HZ3RtY90ZkqC6mZUk09NJJQUbkAP91DKKXWNcD76fJPuEOhZ5x3ZJs/khHdYItOXX72OD65Jgc281r717Tu/h9Unkt42f5f8yjexbxNBOJdx5oh2SzohXq4qcVK0q1VrUqDv9Ynkt44n7nMp/fiirrHFp61ee+t1dSpxS16whVO8FdXWsc1G89dFdUAHafw47YLbK50Fp04s8pOxIK6nyXBlx9mvusbJHG0Sm87DcBj71wA+w6OKC2Me4xvJxIGNf5KaGxWdhtM3CU0LA6R13DEuPyRgfZ4Tbo7XFBI0ONwh4qCCuEorbFZWWmx3De012Mh3aVwwwujbNZWxkTWdzqG8dye+zOuTOLGB/s3jSqgls1vtOGErZpDIJfkVFA/yR8Us+hpFKXPZ2nd7lwla5oIfJLFLJFg433uBwXBbOEWRw345nUhkJByz7R6jPJbxmM4OGLSrk0RYPa3FaNhoCurkPRp1IUwJPFieJujza68msZG50h9lGSbG0PFD+qOrjl4Pkvvgkc51SdYEmuCiMNptENyzNsxuluuwe78lwe2KWeN1grongiuOdcE9sck0bzanWpsjSLzHnqwyQ0ks0kvlLbS6UkXnubkDhkrTK98rZJzG6oI1SzZora20Wi0SutrWCV5Irq5UwT7NaW34nihChmntdqtmg9E2Z4Ib25Zqzt8ptJhs02miiq2jT4dqttmdfkitcj5JLx3u6lBaH2q02iWBpYzSOGyfd6jPJbyKOFQsbND8AXoIh+4F6GP4V6Fnwr0TPhXomfCvRM+FeiZ8K9Gz4V6Jnwr0Mfwhehj+EKkbGsHYPWR5Lf0DPJb+gZ5Lf0DPJbxzvYaObG4jwVmunbkaHJpiIc/ypzKHe0XsPwTdGfNOhvU7a+vTyW8bmP2XChUenn0jIjVguU8UzX2Z3S5ddcPxT7Qw4PbQt7ev16eS3kG4Q6hpgjcIdQ0wRukOoaYI3SHUNMEbrg6hoaJxD20bma5K5Z7VBK/qZICUyOSVjXv2Gl2Lu5Njnnije7Za54BKBtU0cLTve+6g5hDmnIj1qeS3jkjw1mkYq1sfaDNpqgX9amfzVrY+0GbTVAv61M/mrWx9oM2mqBf1qZ/NWtj7QZtPUAvq6mfzVrY+0GbT3gL9XUz+a4RE1rvaVj9eV1bgxxXBVnkbYp47RC4Nlgio4XW516SsXCFqe9s7rXRsZjd5qENd2Zk4r/iZ9vax8zHEa/QZc1adW9cDsijintreDb8jbVsXTTH7SjjZWsT3sf1B17GnZ61PJb9CQ4VBTpbHZmRSOwvBROlZedE68zsKbNa7KyWUbz/PrTPLIGyFmyciE2KzxtijZk1o9ankt/QM8lvrq88gDrKc7TNDW5l2Cjj6UjbwpiOWeS31y+aY0YwVKZKyoxoWV2VJBNG90R1qt3FeTQtdG1rLg6xhmmWWV7paYaR3KPJbyLhe2+ejXH6DVNQrl9t/2a4/UZGwQ6TRbevQ+5GHEPDQ41Uj2yBwYKmiYWHbbeATXOlaA7LFYY/VoYomOc1zqvLR1f7qTTjaOXctXAKkgBpki0DemmtcOSeS3kSSPjZJJedprzrpr39akazSs0cbTq3PxvK0ESui0UDXgNpSuPyUmj0jbkbXC5cpj13lK6SQxsiha+6MRvUkT3y0fZ3P17td3V3qzwsMxGhv3mXKnxUTJJTD5q+Sy7rY/wB+KYWkF2t+ZQe0DS3ah3S0vzqrVKJiNDIKNoKZN+oP/wANfd/ypWPukd6caX3PgDb24OF7PxVXtkHmHsrI5uZp1KyyaAktiMbm3hhl8lZ6Rv0zWEVje3Dsx3Jmkpfu40+rQyxNY5l66+8mSvoxj2+HEZH7vxWg0N28SL15MZ1Dknkt5GkdCwye1dxQMsbHke01O1RrChwzQ0kTH3cqtRNBUih7V5qJjO5qDDDGWNyF3JNEkbHBuVW5KjAGjqC0uiZpfau4pwLGkO2sM/qFXENHaqtIcOz60Ypmh7DuKGFCVoLK+4GZupVXbW++7cV5SYwB19fKPJbyJ4NDNGIotLfe2l5taYBWeOexT2WO1c3keRrYVxG5W4StOjscbHPc01Jc7JtPDxUlnmsEsFrEWljic5vnG96isVo4Pks8kjC+pla6jRvwVqu2V82inbZ49GamR9K+5W19tifZZbFTTxGjqVyoRnVeT22xy2KRzDJHfIN9vu39igE1hns8FpddgmfTWPaMxknufYbR5FFJo5LQaChrTZzI7fqMrmgujjfcDQcvcoYg8uke6koB1R2d6nksL3MnhGkbQ50zHguDI7FI5sPk/lcwHSb0R4qz2O0QRRutF+7o7SJHNu+2BkuBpLZJM9z2Wpzn6XDVO8b1wTKLM6yQWm1tuuEtbzKHBw3V+rXZWhwRkvTMruDh8lfAdK7dpDyzyW8i0WjRSOiFgAqGZm8cB2plp4SsFujeKtszTZyGQj2i7rKttqsw0s1ptXlEbetrXAAeDVDaxZLRZ7NZYHCszLpc51MKe5W3ha3sdFJLk14oY4W5D+aZaYLHJarZaXGW5G0u1n61SuEIobPa/L5Lksklqh0emcDWg+FWK1ix2mzxWKKQu0sd2rnCl0daZPwjYLfHdddssfkxuR/ruPX+SMbOD7Yy3RSDyemvA4V2j0Vjn9QNosEmje8awyQmtLmkt2WtWKtkemfKLTq9Vxm4DxXB8rrYHssN4MYIA2oLaY9qsDXz6RtlbM0i5t6RWNjuEZJLPY5g+GMxjAdRO/6pZZbBjI61NYWUrfFDqrg9vA0ldM9jpX0rdaej3/JM4L4NlZZPMaeScsvmlaUAVo4M4RkbapWQ6aKZrLl4Vpiom8J8KeSzufR1hfZLoPc5T2Mv/wAM2yiQMoNqqtdsPC0N6CdzG2N8TdcV8f8AZMe5twuaDd6uQeS3lBrAGgbhxEOFQdyoPV9jrJc8ntLJ8q1u7kWWb/D3rULQ4gVxG7uTLVZrRJYrbG242VmOHURvU00k77TbZhSS0PGPu6lD5fwnPa7LA8PjicwVvDrdvUnCOkJL4dFcopHGOOeV0pkEjoheFd1eSeS39AzyW/oGeS0LpfGV0viK6XxFdL4iul8RXS+IrpfEV0viK6XxFdL4iul8RXS+IrpfEV0viK6XxFdL4iul8RXS+IrpfEV0viK6XxFdL4iul8RXS+IrpfEV0viK6XxldL4yul8ZXS+MrpfGV0vjK6XxldL4yul8ZXS+MrpfGV0vjK6XxldL4yul8RXS+IrpfEV0viK6XxFdL4iul8RXS+IrpfEV0viK6XxFdL4iul8RXS+IrpfEV0viK6XxFdL4it/xFb/iK3/EVv8AiK3/ABFb/iK3/EVv+IpwHJb3+tqu+ld38lvfx4ohh0z+pvzVLQ0w9uYV6Nwe3rHrD3j8/pXd/Jb38eHtDidQhkbdp5yCmFai5/PibZCDeLa3t1ccPwKayWVjHuyBdSqmgY9pmjZepeCqS29dBcA6tEy/PE2/sVeNZOsukbpmgGlf76k6OOVj3tzaHYhBge18l9rCxrsRU0RmfTqaC6lSojaJYY3SDDzmB7utBr5WNcSMC6meSL5XtY0b3GiEmlZo3ZOvYFNlic2ZjpGsqx1czT+aLrQ+OHF2cgyBotKZWaL272CD43B7TkWmqnLyImwyXCXH++taXSM0Xt3sEHWd8ctXNykGRNEI9NHpDWjb+P1r3j8/pXd/Jb38ct3NushE86CZmJd7QQs1jFyzN/8AJTS7tkcUtqaWh7pdO2IxG/q5CteodW9WvyiyyzeUULPNVq26NXsxrn1q1+bf52zNDCG1xF7f7wrOIWO/xMDYJsNjt8L/AOCtcLYnNGiux6KC9pMPaT9V4dNZmNY+7gHC9n1Zqxsfpw+DMaANDcKbW/3Kw2fyaQ2iGdhkdozQa2Lq70WsaXm+zAD9YK1OtED5mzMaGXY72Hs9n9U02llXsscTL9N9XVFfBWSVzHSQxPJcGtrTDA0QeIXCF9tDw0s3XNqm7FWq5G66bXA8Ub9mpVmMkRo11qOLcqyYKJwD2RRWuVxDY71Aa0NP7zUrhpPOS3vOMudW5GaSJ7oWWtziLtegKOpvTp2wPMHlYl0V2hIuUrT7WKtZigcyslldS7jt50TvMnS+WX9nH02fh9a94/PkyySy3mO3VUr5pb7XbqqR00t9ruU7v5Le/kF9laXxHcM2qjWFjN7iE2KLJv1S5MKjPOidoW7Rq4k3ifefrfvH5/Su7+S31t7x+f0ruTVVH6A1KryqtNCtxXRXRXRXRXRXRXRXRXRXRXRXRXRXRXRXRXRXRXRXRXRXRXRXRXRXRXRXRXRXRXRXRXRXRXRXRXRXRXRXRXRXRXRXRXRXRXRXRXRXRXRXRXRXRXRXRXRXRXRXRXRXRW4KrjU/9F8VkslkslkslkslkslkslkslkslkslkslkslkslkslkslkslkslkFkFkFkslkslkslkslkslkslkslkslkslkslkslksllycOUB+hDeQ6W0vuMaKnCq0lmnEjD1Ar0n4Fek/Arb/Arb/BUfaqH7DvktW01/7bvksLR/4O+SvukIZ16NypHLX9wr0n4Fek/AqjZBX1keS3j1MHuyPUiLW6Mn80dA4iJ2I6i1Yasns8fk1nNZTtn2Qsce0rHNbLloZNaF2Y6kYifOV8eRopDX2ePVgfcqRfqE2jhrbOOabcBF6MSY9qfZsRI0V71pHuEbLxbV5pkaIF8rGtOIJci1kjXOGYBREcjXluYBy9Tnkt42djEHgVe3d1jeEbmtaIdZh9of3+S1qhjTi5RkR0p+sVK4OlY4u68FJCzzpvZrzjXBYlwWpXxWZw60IsiwbXYrs0sUjO81/JebjjPfIrkhZGaV1cVZp5ZXzPOIqcBhxhz9IJLzjTSGmZ3ZKwxuhc3QYPcT+qQozI2lLMxvvxVpdsGrXRP7QFBfiLTfkL7gDnNJdhSqs2ljwayUGtMKuCsjWt0bm2ZzHHqcbqiL2zjRx3da4B3YZ+pzyW8bfscQfG0kO6t3X/fX3oRhojjkxae1VHFNeGxeNVdkkaO9Vhf/ADWtdPvWqx1VO87V6nGx2FaEKyxl2v1esTyW8bTDKGebyLe0q4+6fcsmplnc0CPeSFRtAzcXrF4+D+qt5PSunBRh0Ej5HnULW4Ih+ApgnPtERliZjRqaGQGMUri2ikiawjzjzVX5GPDfcqw0gh9s4kqrRef7bsSoeqvG6SGQjg6xyRQ2lt3MvrjXs1U2xQ2Z1pn0WlIvtbq13VzKnZNE9ro7KLS0HNwyp31TRCx4c+xPtLqHGMDDxr+Sstms1knts77Cy0jzjakHrUdtjq2J7b2tuVlf5BOyzWudsUErnDWrvpu9UHkt42Ch9H/Mq5DHjuffukfgsbR+XyQvkyU7GhOgtzmiMbLnOAIWFoi+NPe0hzXgZK+Gp6LXCqNwUXVWp/FPY1hnO9jU8SsEbCahhfUt8FVkek/VDsfxVmD4zFeBdjj7uO0NtfnrXOXudPiNY77tdyiiktNnlDYNE7TWW9j7bTWoK4MHlLgLGA19W1MzatND72rhPz94WxpbGLnoWm8aeLlZ7Tp7+hsDbJduZ0O0rNY/KRLZo43skboqaSvvwXBVjifaZGWW1h+jlshj0bBXadkeynqg8lvG3SPa11zIuWDmn38bnuBqV0vwVYa3K4qr3UCmfFJKwO/WVyR7q1zcaoqR4me1hOAqgDCSK1Lq7S1Y3lObZ4Qw+1WqsLJboihLqmmJr6xPJbxtq0HUWvZ4iO2MLGyQ/Auat92C9C4d0rlsSfeuRZdfiPbK0T6+beqSQWhzuu8cU5whkhr7TigCckXPNyMYBBjTea3CtKLHAcQ9Ynkt42k9Sx5L5XDYFU3hGzYSOxcxXXxkFCKCPF29aPWcyPbcO5UY1rVecu3qRklOhjHvcVA5jS57o5Defic2+sTyW8Y+ysseviOj84sIf/JUiYyPvxTjK9z69q0XUquYFqCitbn4tdT8lVmI3IX3gV9lagRGQooX7rrv7/D1ieS3jH2OK7FsbysMlRVG1RNZA9zGAY3VdfCJnNwvVoStZmjmGbUCc9wTIZna8mJ7FVmSLg9w7kzS0fVF0ZqFZhWuuR+B9Ynkt4x9hBkWbhmqZEq4dqqaetvFUZHNNd2fzV6E6N9MCiPKHGvYKoPtAJPTvbz/AHRPawup1VVEB+qrw2errVh0eDdKf4HesTyW8ZYW1cIg4duJV52ao5QuObXZqJzeiiq7t6puqgOihxO4g7dd/mrrG1UDXmuNcO7jq6RoB63KrTUKjpowfterDyW8bX//AAAfiVdK7kMEAid3ExpPSdT8OT2FU6lqNw6yoa9fHYg8Ais2Y/WVqEHoRdyyvb/5KzajcWSbvsryW9r6W9l/ys//AOU2c2guOn0ejwpS/RMk85R0t0gllylfGv1vD6Y8lvG3/L/mUfaVFh105DaZsNUEK8g+K7FDvx4wJIY3AZAtV2NoY0bgEHUF4ZFPneQ57hdGGy1VutdJUm/dxxK0ujZpPau4+qTyW8bP8v8AmVVXs+5MEfXiu3jkOVCsDVYYUasTiqjLijuYjJayg+1x26WNrg+x3r8Zzw/2VmtM8sdmbaIw9okeBmFZbLNKBJaQbpqKDvVoktOigZDK5l7TBwoN56u5Mk8oi0bzda++KEp0sU8T4m7Tw8EBT26J7bVHDnongqS1Wk0iYKlQxW6wT2IWg0he+hDuw0yKMDbREZ//AG74veCMbLRE54rVoeK4ZqzWezubPpw/XY4EC7T5+ozyW8bJ4/8Al7XcqYI3jU9SJO/kSU71kjXeVkqqgKje721qYheUEUiiGB63cclpssTo7cx07SwtoZYnOOH8wuD4X2R7R/6axl9tk0j71MWVOz71/wAMWi0WOV4s7HsmGiq5tRq1CfNPZJZbPHwvNLJDo6l7SMHAb06WOxyssU/CcD22cxUo0Cj3Fu4FcNmyWAPhkNm1dBeb+sQ3pUX/ABDo4LQ/TxwaOtnuGTro0J8dmF6Zpa9rTvoa0UUUPBtpgb/z32htwN7utWBzrJJDIy33pWR2S6xgxxv9L8lw+I7Po7ZNaptG5zLrnNr19RXBk1l4MmscUcMjJHPhuY0GHqM8lvI0lnkNnccxS8FU8IU/7H/9Ln1f+z/Vc8/0v6rnX+n/AFXOv9P+qP8Aic//AI/6qnlX+l/VAeU4D/4/6r04P/b/AKrC1U/7f9Vzz/S/qta2f6X9UDPaXStHRDLqDImhrBkB6xPJb+gZ5Lf0DPJb+gZ5LeNz34NaKlMvGl80agXPoDJohh0lo6692969PJbxzsZtOjcB4KysiDrzZA54LSLuCYyRlWm2SV7qPRZMC7Rw0EntCvr08lv6Bnkt45JPZaTirW+SzGHQ3iL9W1z7P76la3yWcw6EOIv1bXPs/vqVrfJZzDobxF+ra59n99Stb5LOYdDeIv1bXPs/vqVrfJZjDoQ4i/Vtc+z++pW6WSzmHydrnC+CK0r8lHpbbYZCYg98MTCHj8VZ7NZGRusmm0M0jvbuk0HdT8Vwi7g5tn8nsOB0gJMrqVcOxWDyZ8FjhtUGm09oxH2MxioLRaIxHI+tQMs8x61PJbyNVoGNcFqtAxrgtVoGNcFqgDGuC1ABjXBSNgusc4Ghu4VXB89uZZ7P5Ex4rC6t8uFOrAKxNsnCMuihn0hvhtRnjlicd64SZwcIHwW/WrI8tMTi2jt2KsT4I4LfBZ7JoNBO66AfbGBQhtD2udec663ZYD0R2etTyW/oGeS39AzyW+uqQtvE9I5BSustJ57w1SMm9f5KOa0OMb44qvgZvNNyZJcMTjmw7uUeS31ydEaSym63s606Pa0bgGVVXuJfRaSF57QVerrNKDhv5J5LeQZoBHo+jGRi4d6o4PNBedRtbo7U4G+660OcWtrQdaobzqC8662t0LRi840vVAwonkMkq1l8AtpeCjJZJee29cDalMuXpL4vC42uCEz6Ctcl5UQzQ0vaOmtd704G/qOo43cB9QnkfFHamb9bXjw3fnuUsgmcIhZ2P1sfaUkbnPo6Bzw4sDcurx3qyxl14OgLjXr1fmoJATdcwl7mNB7sOpNcDevCtR9Wg8ql0R1rmtTqRgjplWvbxlwfjndqmF2BpyTyW8g2akL4K6rn5s9yLomseHNDddxF2ndmrTS7SSFrG+6vzRc0MfeYAbz3C781NccGX4msaRupX5q8+4ysLozR5ccaY4qJ5bG6Rsejc3SOA76pjrPo63LjwSQPd+KbFLRxxrReSlzNBS7f6V3qp/NWtgLfPOq3wHy+oX5I6u34596D3MF4C77lVkeNLtSa4dSYwxgiPZ7ExpjwaKDFUbgPqwbHTSxuq2qjLDW7k5NNqfonHdmnNsWRwc4pr7woCSqck8lvKpXHjIriPqpis7Q+QbROQQbaI7l40a8ZE9S8otAeYg4BxaNmpzVkszw50tqJEYb2ZlENcCW5iuSsr7PDJorRf1jQXbvXioWvN4zTCEXdzj1+H1YOhNCNxTj5NK4brrbyDjCYmEYl+Cw1nnN3KPJbyLVEJ5Xl9iDjI91TeLyrOzgl0r/Jr3l07pCb5pg09Z39i4atcUhZenisbXtwLGgi9+LiorHZg4WW2WWTTQ3yRhTW/FTTWGPR2axDRVvE35Tnv3D81bbZbJTDBPajI5zX3b0TNUAnqwXC9qsLpLNYZXMFka7NjcA53ZVcHwcHX2R2uKUSi/e2QCHd6s8XBbpZJoHF1ttDpCaimyeso2tjZzI6Vr3W50uEAvZXRu929YfUJ2W6N117r7Htz7lDcbcjiNQ0ZNCns0mzKwtUlrtlnlv2CyeTMYem/pEeAXA0kELIaiXTNisz2XNXZe47S4CEbHMkbFbMSNknJcCNgscsdtitTfK3GIjHGt47/qkbrZKImySCNpPtFRm2S6MSPuNwrUpnlk2jMhowULi73BPNimElw0cKUI7wUyKGcvL3XGkROo4/apROsYf/AIlrL5ZQ7KLXWqlHXKmJ4Fe+lOSeS3kS2q89sskGhNDkPmmOs1st11hrozPqHvC8gtf+IY69pDSl4k1qnzNknnncy5pZn3nBvUE6y2N7mYO847E3j0irPwbK+VsMIbjGbt6ingnntNtinFHNtMt+ncnSiW0TS6PRtfNJeLG9QTXWe22+jX3ywz6rj2hPc504hkffks7ZfNvd1kfUaSsa8frCqpExrB2Cn1ng+Ate5j7dGH3dzcaqzS8JgyOstpZBBcxq3fIfwUfCktmltNlNm0NYmXjG6uatnCYs0lmsj4BFSRt0yn2qfgrJBwGbfoTJ52yWqz4Rt3m9uVpkuO0fkYF6mG0FbrJehsthltL7xfG7SZjLdRMjbssbQcg8lv6Bnkt/QM8kYVXonr0T16Ny9G9ejevRvXo3r0b16N69E9ejevRPXonr0b16J69G9ejevRPXonr0T16J69G9ejevRPXo3r0b16J69G9eievRvXo3r0b16N69G9ejevRPXonr0b16N69G9ejevRvXo3r0T16N69E9ejevRvXo3r0T16J69G9ejevRvXo3r0b16Jy9E5ejcvRuXo3L0bl6Ny9G5ejcvRuRqKclvf8AoG7v5Le/k1Y4OHZ6xqOz6V3fyW9/GZQ28a0zXnX0b7IwCrBIWHsTo5WgOaK3h9Hh6l94/P6V3fyW9/G49ThVMma2+x5pq4q/KBJbXjVb7Cmf+rxG0ab0Uogufq7z8RHwqcWUwsZCbtHtJvupX3ZhW++9rom2dp0Zb9rtWuxoHkrZIWtGZyu+N3xTvOQ3oog5zGxOeS73bKtEhlHk7bOyTR3ftdqgvC+ybNoge3R4V2jgVZLQ50ehmniIYG4tF7DGuKcGODauaHVbWovJ9nshgj8na0GsWDnU3CuAUehuRxGCOY3hU4k4fgoIbPdEsxOs4VAAWh80ZxaBEXUwoW3q0T4rQWufDa4BeY27UFzSoobKIYtI+0VN2tLr1Gx1BaHSvjLhE5w1d90J+mGLH3Q64WXu2h71PBAQJZbU7WcKhoDQjZ/N+U6cRX6auzerTuUkFqbDLopLPQhud5+a8oOi0QtGiLLpqRpLta/WvePz5MkQYRd3p8QYW3d6fGGFt3HlO7+S3v45InZOCkj8WnLvRe8lzjvVZBSSTE9nEbLiYy0tNczVE6SZl4ASXXU0nenSXnNL49G4A4Ef2VZg6p8npc/vw8FL5yVjZhSRrXYOwomyhz2kMuOFcHjt8U0tlmLGbEZfqtTdeW4x4eyO9qtNarRyVpUHDsNUZBJLE5wuv0bqXgr8Yp5tsdNwDa0/NNqXNcw1Y5ubSmYvc5sulvE4udSmKkc69V8jHnvbSn5Jj23qs0lP3zUogOe06Uyh4OIcf91S+95JqXPNSU6jnteZNKHA4tdSmCLY2OnffvkmS66vXXrU0loDmaR0bgC+87UNakow613SaT33735/WvePz5JLWgE5miJa0AnOgRLWgE50HKd38lvfyPPN1hk4Zq+KyPGRdu9Y+8fn9K7v5IPrah+lJ5V1+IW2ttba21trbW2ttba21trbW2ttba21trbW2ttba21trbW2ttba21trbW2ttba21trbW2ttba21trbW2ttba21trbW2ttba21trbW2ttba21trbW2ttba21dZgP/wBE6vNAvNC+sCG9wXpCtuvuXnWeC1HfSj1p1v6lWQ+7lVBoVcnz3H6RvHUrVW1+C2vwW0qOfed1BeaDPe1aszW/uBc5/wBNvyVLc6+zrDQg+KQOaVtLa/BbSxxVR6hrv3BFzzUn6HQyZ9E8o8lvGYBtNYHn31/+p5Di3NOvLALLjDXHzTs0CMRyB1ONOMOcy0l192uZDdzO6qsTqDz+fZq1Ud5xdWysOJ34q0PLibO26Hj2cNpN12VMsgq+p6RyG9Q6FjA6Rjyb1cLpAUb5mNbHJCZRdzFKfNMa5oo9tdUHV7Pq5I2W4D6IEZhNfyTyW8do/ZYf4pOQ979kDFEgXWkrZVLq2Veiy4m3qksN3kR/bb+fHcZWlSUxwc86Mm4C7BqFwnCMR49QUrs9JtVUbYXyR6Ot0g447lHcvagcBU+0a/yUIxIijMYr1f2FUSSOoKNDjgB9WeRnlyjI5zg7HLlPjPfyTyW8do/ZYf4pORaaeweSaotUNd9TyI/tt/Pj0tpfcZUNrTeeOGzSFzpptlrGF2HWeocTXB7pWurR0UbpB/4hVTbFVzpy29QMJDR2ncnSWQudGDS+WEB3d1qaOJ958LrsgpkVJNO65HG2853UmTxB4Y/K+26VGbSXVkddY1jC4uPcFLoH3tE8xv7HdSL3YBoqUyeB1+KQVaeteUGQuj0uhF1hJL+qibZG3zMW3iNGdTv6vpGN63cnZPgse1bJ8FiKchnbyTyW8do/ZYf4pORIz2mkKR9KuGCqJxVESkFUZLcasZ3F3WCmv6QUDW7mDkR/bb+fGJbTa5HcJutoE0JkOHnMrm4ZYq08EMlfW3zxyQuvG8xh9J/B+K4b8stk1ntULKWSNspbq3Nw6VVwdLIZC88FtlJ0jtoXf7orJDNaH2t9pbKDNDa3OD/txnY9ysQssrmzf+rNZO0THAX3YEblwxLaLdNFwoy0lrIhMW0ZUUo3qpvXCZeJK+TsOEzhnervXAEckslnsFpkebS/SluPRFdwXDk3B08kpstqZNE7SbYa0YV3ii4b4Re6UwSH/DNvEC6zCvvNVwe2acwWR1hcBpZTdLrwO9f8Py2l0r3ST2hpOlcMAXUXD1uimmjns9vcY7khAGzu3rhRvCdrfZ9FZ2GxtEtytW4mnSxwXA0HCVodZeD/AP0++wiUxB0tevuXBd9z3g8LObW8Wkgl3UuF3Nv1Y2Ejzjjm01+ki9/IZI8VA6lsSeC0jAQ3tWzJ4KPRgi7XPkR8k8lvHaP2WH+KTkahuuJpVTDPXTmUrU1rvVcu5VCpgG1rRFqka3Zz5Ef22/nxlzomFxzN3NB5aC9uRpkpP8dNFDK26+MNacOw0wUYjYBo2XGnfdTnxxMa9204NxKLtDHeJvVu71IJ7bMbLKavhut8L1K0RddF4ihNFojEzRexdwUkUDzZdJtPjaKqOyRMBgY26AcU2+xrrpq2oyTaRsF3FurknNMbbrsXC7mmmSNrnN2SW5JrHRMLG7Iu5Iebbg68NXf1pzg0BzszTP6QH2Xcrx5Q7OSeS3jtH7LD/FJyD2Yrq4hecAFqurxYIud0jyI/tt/PjfC62Q6WPBzb2W5TtdNG61Rxl+hv0JwRbbSyysEMUgc5+d+uH4KOW02mKOOTYJdtJ4ddid5TJBEL9dJd3otdOwESiHPpnoqfSTsb5OAZanYrknTx2mN0LXBpdXIqe7JDp4mB92R90UrSpTYrVaoopXCt0uUYktcTTIwPZU7TTkVb4johZrEyrnXtZ57B34KO2vtLIoX4axyd7PerRO1rC5lpMEXnMJMtavVipDaH2ZsbII5C5knX37kI4JGSQaB0zpg/ZukYfirO3StvWgVi/XUEVjljtTpLQIXXH7GBx/BeSstUTrQMLl5NlnpAXzOhY29W8QVbn2byXQ2d4Y0ySkF2sBeyyUzXzRm0xxOkEN+hNBVM1g2UwtmcyuTSo71siGkbfbjmK0U0xnZo4X3JHey7q5L2dYRBz5JYyQtad3KL+vknkt47R+yw/wAUnJD420xxWCyJ9yvAO8FinyPFa4Dkx/bb+fHHY5LM12jtwPlIe0h/nN2+8uHLILA60utrzJFNVtMsj3blaHzwbXB8UIJ68aj8lwNaJbJJadDZXQyRtpejd14+CtdoniFlms9vda4WXt3V4VVjnii0tq8sbbpo64uxrTwp4Lhiafg+bR2jycxsErWv1d/VVcJgwveTJE+DTNY2Z90gm9d/BcJSssMsWmsbI42uLbxIfVcPnydtpZaYGm+JG+boymvvXBlrdFWAcDxxh59uvyX/ABEdHRtqY0Qk9LUouArQ7g+V/kMToZYtW+DdAvDHsVrb5KYny8KCdsdRsVav+ILPZaPkMNm1a50JNE21TWB9ls/kRhdpKdYww3K2Me80sML7DA+tQTU4+FxcBwu4NdAbBKBLIS3qOLewqFlls08UXlTnysmuSQhuOsx21VRW2SJ0zHSyxmM5wtc6oeP5rhgWhujM3Cekjr0mmRi4ds7bA60m21fFMC2mzke7cmPZYnztl4OZBquGo8dfZirBJarPdbFwboyTTB+ky8FwzYIrFJKbTazOyUObduktPjhytK3J2f0QaEAOSeS3jtH7LD/FJyXNdkqLVwWs6qooh+ryY/tt/Pj8qFkh8orW/c39fIa21Qsma114B7a48kS2uyxTSDpOYqDAciR0ETI3SuvPIG0e1FrxVrsCEIrLEyGMdFgoOQzTxMk0brzLwrQ9f0Ra4YFfqbj9BRuJXWeUeS3jtH7LD/FJySjuI4sqcUXdyY/tt/P1EQ4VCrFrN6ljycqDrWGfXyzyW8do/ZYf4pOVpR6OTPsPFiUyJm078EGt2W4cmP7bfz9Sa7QVheC2/wAFrOKwb9CeS3jtH7LD/FJyvJ7up0u1AZxHIrAVKcyUg2l3905Uf22/n6xPJbx2j9lh/ik5Vd6LXDuQecLq0tMeVH9tv58cAijbekL9p3slPjlZo5WZgGoTYmxxG/eLSXnd7u1Xi7p3P3slda/Gt3ZNK9VVcDtatMjSvf6pPJbx2j9lh/ik+nj+238+Ozujax7ozJUF1MypJp6aSSgo3IAf7qGUUusa4H30+SfcIdCzzjuyTZ/JCO6wRacuv3scH1yTA5t5rX3r2nd/D6pPJbx2n9lh/il5Y5ZTP8xv5+sTyWnjlnGw+FjPAv8A/stlbKyWSyWSGCyWSyWX4rJZI1b+KZhQBwPHb4LU10jZmyugfpRWN2NG59ysUVnhhfMyzt0zp5OlTLD81wZJZYo4YLp8pjfJkeo9fZRWjyaws00lsfdvT6t32zn4BD/AQutImDXUl1HR+0FaRaLHBp2U0JbNqSfzFFb7O6Bkdqo3QyQS0D8cc8k9vBvOnUaDhq9ZUM1lt1p1fTNmeZBL8im37LAbI593Vl12j2ju9ytLpbFDooy/RNEuvJ7PYFYpLdFHFCxsl/Qy1bjSgI6/UZw/QvJZLJZLJZLJZLJZLJZLJZLJZLJZLJZLJZLJZLJZLJZLJZLJZLJZLJZLJZLJZLJZLJZLJZLJZLJZLJZLJZLJZLJZLJZLJZLJZLJZLJZLJZLJZf8ARrD9DDonB1P0GqckY4MGbz1q/GcVhg7ePqk75Wv0bWVwwUDDZ3tY4hrXFymhjs7pLuBIcrJLCJLjq1rjT6oZJMgr7XCzRnLrV8uFpjGY3oSR5fV7r607Cg0Zk0QdJdoTTBOea3m5UP1SRgIFRmVA2SWz3Y3tOqcVPJA+Gj6VvbkyN+Jb1fVLO0v8001fgpHxE0uYKMg3tUK1ws2Nr6wxxaKB1c00RCpDlJpRn9UtFnAN9rKqyeTDzulbewKcNFt9CvpflRQRl7pnSVo+lPqgmeMRmOtead7inTA3XEbDTn7lLaJsHzGtOoernTRWgxEimDU0PdfIGJ60QDQ9ajmltJlLMqt+q1cyjutqqGXndbv+k5eBUiihaKHSOorl/GtMt6oZMa0yTnB+DNrsR0ZxGf1Iu6kx+jjML/Zdi3vWjL9atPerjn0dlknNkko5ueBVRl9RklaKlqgLaHSSNb4p7pntwkLBdBUb2a4e+73Kj30NK5IRl+uaYUTX3tVzrow3/VXMYKk0/NWd0EYFHa1E2z6MXQ+ukr2p7bmJtF/PcrURheLC3HOidJIxzDSmtJe+pG5nuUTvJm2d7XVfI1+0O5SRNhY9j5b99xw8FO2651XalH0bTuXCBu4TNAZ26qia7MMAP1GVkYq45KzmzwgPbK0u7lJWIuPlDni6+6QOsJl8X5GTB4aXY071aLkIeLQ0dLYwWtiBE1ocnsaQYY3aXD2j/Z+j5/H4Fc/j8Cufx+BXP4/Arn8fgVz+PwK5/H4Fc/j8Cufx+BXP4/Arn7PArn7PArn8fgVz+PwK5+zwK5/H4Fc/j8Cufx+BXP4/Arn8fgVz+PwK5/H4Fc/j8Cufx+BXP4/Arn8fgVz+PwK5/H4Fc/j8Cufx+BXP4/Arn8fgVz+PwK5/H4Fc/j8Cufx+BXP4/Arn8fgVz+PwK5/H4Fc/j8Cufx+BXP4/Arn8fgVz+PwK5/H4Fc/j8Cufx+BXP4/Arn8fgVz+PwK5/H4Fc/j8Cufx+BXP4/Arn8fgVz+PwK5/H4Fc/j8Cufx+BXP4/ArVtsTa50afkufx+BXP4/Arn8fgVz+PwK5/H4Fc/j8Cufx+BXP4/Arn8fgVz+PwP6RvZC9sbIxV7yufs+6XP2fdLn7Pulz9n3S5+z7pc/Z90ufs+6XP2fdLn7Pulz9n3S5+z7pc/Z90ufs+6XP2fdLn7Pulz9n3S5+z7pc/Z90mMme2Rkgqx49amWwymF5FCuen7pnyXPT90z5Lnp+6Z8lz0/dM+S56fumfJc9P3TPkuen7pnyXPT90z5Lnp+6Z8lz0/dM+S56fumfJc9P3TPkuen7pnyXPT90z5Lnp+6Z8lz0/dM+S56fumfJc9P3TPkhLbpTM8Cg/SP8A/8QALRAAAgECBAUEAwEBAQEBAAAAAREAITEQQVFhcZGhwfAgMIHRseHxQFBgcID/2gAIAQEAAT8h/wDrYCgkhIAATZUF5X5NVK61nSAXptmd65DvHHrKLQuSTQCt4IErlH+NcjgaMxGIRoAZ8WUKaqULoabcoASIZaR8IrocESiACwi1qXHCotKnMFO0qZfJ7XjxKnmCA7n/AI9jyaGTwhbkAG9ajUF6DOsOBBpw2aC+C4GQTeCjM8xgscamHmZvAmjwFqAAkWOWYvKKuTlWOucN5sCpLIDeAGEggak10MYZvOBp1LO4oIC06DJm3PY+y3XiRI8y+oRQW/AJqZ3qqbwAva2WCFFyb/GkI4wM1txI112jLAQwFTLTSvTAVCJBzExAXAlAMyC/pDsdy4fxpSxJy/OAIUhqfODGlgwxFTZrWHNhFksF20p/yD6hADzxlYi2iacTl8mCFoBkIIo1GhEgEfeCfAIOGAx8GSwIrXsHJYNnD5Epu6jgacL/AHEDXF/AWCzhohLwB+UPkPzkIyqho+eUXFFXCVdoACAR9wgEI1EStgK0CKUlKl5vS8I+3IIo4sgcoBEB2SSyWpOuDqeSFKJocIDibGlQpdhC4TEzhMyfj/kAMBgw4HKZgczAh+ESpOMJ2IEgIRHxDCsYyCAtfA1kUlBLepEXQSU2wjZ7b+gMA2Crf/lxEePrH1j6waqxvAAMwmshN3pNzpN3pBoS/s2kBEbw4KgvCwhc8oDktm3DO2oCO0Y0JQCCHLwYADbABJQYC6QaCBqhiM+vB8wWJOAQiMllP4+fx8TExGIYg4AzAZ/8C72B2YWdKAxELDQAY0Y3UBwFhVT5YUPZQRpR8CCj6Vbo7kAaEG9O0Nph0EuUXAELVkCKpUXm5lbFQsPMOVwQMQEkA1ZiqEzziidRATgoQJjSowpSsCUBr4FYKhUyisBHemkDULd2hthf1/8AAuPHAjLLRDKH20pdoKyiARwOGbC7CFeQEVJfMNRFuEKdvBQHtAMi2mpaOIRUkz+yIooZjn/ZdMJPhECKQa2MFUXP7oDKKsKMz0wKKegAFBvBAO87QpFRw9erx0SEMTD0IgIFx8Q/vBMYNbFk95SfD8M8Xp/wLjxx0l3U/g8cSoAgMM2FyCnJCVSj8wgkTBKpqkvbhDm0m9Rg0msLNVNt5n9kcG9n5ipJ0C1FjCALI12aw2Qor12g25N8BGCCFHYREyyo5mE9oAPlNrMQhSHFNTBuygUykA1B1wL0joWGmXzLexD2OZlLMkJh5awSQEgGQgEO/wCBm5wDVbwBzwcvbbXbHNhdhiImAoq0CXcTUnWKYmxWEb/EbACx/GwM/wAeyQBGsAICASw0mGxOoFy3B0LxAfNoPjALARYQEM8A0YEGiBAatuiSxDQFBLGBhQwZnUC1NWV0CCkANhKDoVUYAuKgZD/gXYcfQFMATYkBIutcQXF/2gQYaNGg1YkA3h0GcCcCcCBDWv8A43zj9zzj9zzj9zzj9zzj9zzj9zzj9zzj9zzj9zzj9zzj9zzj9zzj9zzj9zzj9zzj9zzj9zzj9zzj9zzj9zzj9zzj9zzj9zzj9zzj9zzj9zzj9zzj9zzj9zzj9zzj9zzj9zzj9zzj9zzj9zzj9zzj9zzj9zzj9zzj9zzj9zzj9zzj9zzj9zzj9zzj9zzj9zzj9zzj9zzj9zzj9zzj9zzj9zzj9zzj9zzj9zzj9zzj9zzj9zzj9zzj9zzj9zzj9zzj9zzj9zzj9zzj9zzj9zzj9zzj9zzj9zzj9/8AjAAAAAAAAAAAAHHHHHHHHHHHHHHHHHHHHHHHHHHHHHHHHHHHHHHHHHHHHHHHHHHHHHHHHHHHHHHHHHH6SVERyVZj9B8zzGeQzyGeQ4geQzzGeYzzGeQzzGeYzzGeYzzGeYzzGeIzxGeIzxGeIzxGeIzxGeIzxGeIzxGeI+hJL/aeY+gAcDnOBznA5zwGcDnOBznA5zgc8QOBzwHkM8hnkM8hnkM8xnmM8hnA5zhTgc5wD8ykqpGQF4mpkXE0gVD53PsP1D/K/Tf2Rb0Z+jODDLA4EqsKoG2R0l0HI1hv0Spb4P0nF/6m/wDFn6RgYccsfMMLn+j2zrO2IhoRIyAhTc6YqyOhh4AWqhAbAqGn8zYGGB0+qeT6oDX83CCXggwM6RLAuhqE61B/EqJLsVzp9lndIC6bKgjMikAZIUL5CHyXaeL6oVzatF1H1Ag+dRofdfoJ9LX+LPEwmCsSoay+HXztx7Z13bGg8CCZrYQk4QmwwVEKVAo6gO8SK1SDQRT5AI7itTDZSg2poDxy5Q+RjNQEKahq0FhA2iSCQS1FNNkFOeZakwgQLjuiRyFT5SARpfInd5cDAFBzUX2VQfgQaiACLVRktJQds3VO5D+XwIlXwBVofh3gBU0AuTQCWU7Mcg49cyQKIFcSwvknHXmuqdpsFaFYLT3PyErDxYIWznp0lYN20E2BkHfauUNSn5KgtFaEFRQYswqFZE6vNQFQVJhrPVhsrKt4eJKznSokVobhWS9TXqv7Qt6M/RnBgYnCgm3j1M7ce2dd2xBgNk/JlZwGqLuDsQQwdQIRQiJFZHUAMgUgyIBmJfIkLQaB+RXYHUwDgDZq4XeJPCFMi5gFIoh6Z7k3+YDPAArnLoKBmnURuEHanN3gRJICz07woEQQAdCSuigOM8xPUCJdN1gUlyQJIQl3JOYziZ5BEMkP1iGGIagsskn8mON0eAIIS0rxhpNIptRfNYsrKAsoFKRxQ6A2agduQhUjzYGAE/mARQiTZpuB4Dr1DoNbZs+q+LwcWfvZ+wwL2nwBb0VceduPbOu7YmQQCNn6JQOmEKoMpUmlCbEMG4IG4JCE1HkUaq9DpkdpQCiiYAgoZm94owcG1Bg8XUGokweCgMBM1KNpZKKhZwBJ2QowwSm6joRqRkZqyB3FD5/iOVC2zLJ+BUxM1JEQCK0Zbmke0B0MjnxxpWh0sK1dhdfTGvM7gqB2F+EpW0A5IjMG3sP0HBf5Bi2gtDiTOvnbj2zru2IKGQoAOZgR0PdFDVCpD5RuoNQ9po1s3xCozEA4oAQ63NqcBm7GO4KNFOUOCDswBkaoRo8lQAohstavaJAsN5icjHVsWUm299K5SnnIMCJzL30gMAlWgyaKgwGriz2rrrC4ypVkF0va3GhhE1iA1Farco4iu1EiyDUXDEV2jOQaAJLA40SOkZq043yIoLkFWBJCpMEYNnVOEGA9EYcg1NXuQIBAX+aB87uO8CAHL6tBilNAKMZHL0PSH/CLexnisIXnHA49fO3HtnXdsTwUC0KGPyRlTVsL8GDLwO5+TCgXKQjoVAI4gihFIDBwXIg+QCMlNYJEEBEFkDWy5wYdSryx2peiTlRwTFZCBVF4BSwFocNgai+eWsLT0KgChJIMM0QRCNS6G7uKltvUYjNiyPkswSecJKhcVM0OrT5YZSgcUgE0Us4egjhGUajwbG20gHQDZ8+tIPNwRYy8G0sy5RhTcDRwdKtG0EAiAqyvQ9P8Yt6M/QsFKXjJvib49fO3HtnVdsRKoWT1M6AweA2gR7esIqNxj+QhzXx7kQG5+BZf1AF+CYCsvC/qGsG0XR4ZwgXFwA8mCOB6RJhC4LgKEkQoGRSxtHTDErZAz+SnsKmDAhAiCCYafjgraVQfIwEsC2TJ6xOx4FnMEe448Hi/8WfpJHG75+g3wM6+duPbOs7Ygcsv5MqvEiu0AsesB/aA25hhZpzTCQRCycatWswmaO1LQFX90kdQV8RwSFS4kw4hhzDex5c+ZBFUloiKECeZvSq0AhMRkkmgz2FJdEMm5iF3NgAyTsLn4joDDKVBNOoqoz+X7eUcHoz/AMWfoJBmETU4mE+jr5249s6ztixaBCVrekfUDKFj8XjkFR2ZUFEJRF9YAoEomgDvLkGNMFQ0JnhKQ3Lbtam8bjGamhBBvE4U0ASkKuMEuS9uEJ+ZEDQR0ItbI1uqQnM1Iu6KCso7AAkn4FTLkH8D9R14CBIjZ5McTlwgAAVAKVf0HB+y4/S5n/jO2BKqYTMOLUPo6+duPbOu7YmARp/JhzriU9T/ACFB2bDMG0hminDjGgRoKN1P8jOTRATqkIGSgs8V+OsGl2RDoR5+DFQAhtKCkM4AUAgtoAgekALKtSKP5Rg8CQVyOrIBN94GvlsjyNY04BBI2NU+IKrNVStCaIrmxfrcfpJyw094W9AgjAqYRPpMPo6+duPbOu7Y0FGj8mG6AAUeZ0lPEsWEB9R5QS6nUGnf8yoGVQ5mEoUIqITWEusjaGqFgIBqBgtiw/kQmMaAgS4GorXTVKGVJezdZJMTQU64ss9N7Gt4E+hoCCTcMX6TUAkkwcuSDccpVZvBCHzvuIPq0ATzrlaeh+hawnB+gnHP/GwKmE/WR6Opnbj2zqO2JQGgXWZgUEKOdXUry0tBtwKfMJb2I1HMcPxXaLLpQPG8ZkL7l0NL+GkLRRZL894AMB3DGvm+kDGgjSArqdZoN/knnChmxvDs6oUgUTQHqgnBVtYjI+RBFk9/S8XH6OGGeOf+IlVMJfsZejqZ249s6rtiWI+NdPt6QgA1LKEqZmu0KFZOWQIIPVGDHuAChUXkIUqoNRxhAUMk0IgGG2whEMqAKQD8nxgImrmVbDW40jHSCMsmJUnNmK84fmCJ0AEh8GuIfOFRQBQuAb8IHEjbY2INGCiLZHjBz4Qiol/g1iUHNABzUK9/u0DDCSjYb0E6WgcUkQ3gNihE0s8vTaXhvjn7wtgITBL9J9B9HUztx7Z1HbEQzMu4fththXeECxQiKAFaIVb1CEIIAJWpRQFghlASJuLqGaOjGFPSN+BwWFwVOUzMARZRGRGDEIYEEZUX3GQJrM9rARjQBmfg2xPGdSIkOCKMQhA2JbINBmoulxpDaVPXZLC2u0FtBR8DWpGsB8QWygqUXJHKu0eV0DSmSNDqNrnNYtS0bghvjn7wwJQl3wMOJ9B9HUztx7Z13bE9qmCBAw8ofOgLCksppPNF/gRh2QO9OMDCiyN4KiRmUMYECmpH6jGFD4dfOUtLotsGfxKwFmoCmamCyUGzYK/Gs2BBK0ygt0n+Pb3zl8BDfHP3LxLAlSpviZl7fUztx7Z1nbF+UIHiDAHKlUhoQwSQGQycCKjo89fN5TAEbP3CmCqDBtAEDJV8C/4mzChJP4FITY2AAJOp/Q6wJBYIqdIQOoZtQkNoUEEWog+LMDoYQGNCSXEVZZSsvC+Y8D7PMpKurcB2VBEq7vCNaBEiTwQmymSYiosBcLm8e7scEWRZGVCFaQWyWuEXBho3a3iIaTKtDEwgNK2EHoQGHqACEiLlyiPp24S+IMMFDF8PUE8EjlFpTZyFo4GncHxmSRSwgKqAK1LN6CkUwEENGAJXUFYb45+5lg1LvdN8epnbj2zrO2KKSqFo/UqVihAngm0NUIqhlCADqBR7TMGucJ2DjCWb4RBTUkFc/oQAbBIKgJdt4kZtCXoAh+TDj1uSUJn0VaUgjIBoTeCCtnAmO8EnSwEr9R01FSlxPMsMoAQrQiXMSQRt1cbfVnLNkmjqU2UCPTPcAgYgQRtEg2BXNqKMi93Ci0/rklEvsANoTzuvnYCFnVv4gFsH9SoAovoqfMuLHypkXqw/iHtF9mlQAaOpd4AGJSq1JqayKrm0Q0NAYQ6AEkCLmG/7h4CAkAdr3OZNEb45+0oMHpgfQYbYH1HHqZ249s67t6CYY1wQ4SlkPX6pZhhpBFgcBibB+M/h4q3Jxty/Cdhpn8dCa5+I4PXJ20kBD8eh+m0b9Ihyxz9nhhlH6csF6D6Tlj1M7ce2dd2/02l/UIb45+wnBH6H6LezlDlj1M7ce2dV/n4RgRv1iG+OfrWD9J9WWJ9Jyx6mduPbOu7f57S/sCG+OfoYl4paXwti0/Wbewcepnbj2zqu2LcTPcNCsvioEEkdI7pJSDj5pAf3FEpQkERR47Eew/S1N5dOP2hDfHPFOKZx+i+Jl4l6Tb2M8epnbj2zqu2IZmXWyNIRbCLCQCATZaByArWNFf8AYLL8YWSKA0DM/JD5Zz9b9LxftiG+OeF4pb2DE4lD7B9Jx6mduPbOq7egyNgyTRBqKQ6BiGzRBqKQ6DiGSaINQVBJDCGzRBqINSCGJog1FM4XoMRnAuzlACsKV3AGNcOiHAG62nQ8uSg1MIkRAICdGSIPWIJDBH+IQ3xXsG3oTiXvH0dTO3HtnXdsSCCFtMBhWYpXUQ9+fGUErpkBI1ddDGoTjKCVNxkBI1da0Pf3xlBK6ZASNXXQ9/bKBK5jICRq66FvwFGgSuYyAkaupyLAEYEBYkSkEWRkWWXKDG5fDdKEZoX+COoSmwANRDVNxoY1OiQBIRJtxHmtpct4N0QJqQwrSoN4RTVKoSIKUXNCMsX74mcWsUUfr3wc4w4E+jOZ+wfR1M7ce2dV29kQQIgghtwLHCQSwDcB2GwQgzTvJVMhj4JgWkgAZqBYAMhyLghGTeBzAIREAeJCQBGsMz74ii19nPFeg3wXqPpPo6mduPbOq7ew/U4I/eRMAW8WD9jaWl8LYuX9B9B9JxynXztx7Z1Xb3HFrLR6e6nAIvdWeLyxNvZOwXciEJPPw8oe5pC7thtdX8Q4P0dfO3HtnVdvZawcEcv7iJiilo/av7Fo36B6MqchXgN6qMIwWYF12NHXgCUVCaIbIriKy62CaDKIbt1e3ITPJCky6MEk5r4j9PXztx7Z1WDwBBNghBfF8XHhpgIEGQQXHrp6p6L+2iYoleOPBZ1KpokNAq04De8b0PAIAEE8wq8Yb4f9la8DrBuWbNIEA/kR543NwFzwEIACSEULovaMvgTl7JT/AEwKQIFb5swI3LIk8gy+S4MgAEJAKOxKjIsYwoOngTeOpiAnUj09fO3Htg63bAYUY4lCiTZCQBSHBQGBQLICRUmQKBCorGuhC4DRtDskF1yGDBNwA4EtwJDCorGuhR4IYYQ5szYWItMiDMiRcA4ALX+EjAwejcOg0hDbUM6miNQETobqEALB21pW1CUigJpSwJ0g3FfJ6WiJHBkIOILGbOYv7F4hg/SwjWAC4mwRWtGNtVCNX4zMGh0veJyC61ZaUgUodixZjimrSZJu6I2s1FIBgMteGSKhSeY0tBFSAMt5qPBf4ym8YAJLVLLQv4g4BGWQn+X+YC0rQnqAUDqWQ+YuMgEVUQDkttY+iyJ8fT187ce2DrdvQHjchEJYWreWk6EBI+TCDHIHsgdDqKmm8MGeCyKGlYAU0iIUB/cIstUUhQ5U4DlDTyJOJBE1QsJY6tER8DFmhoCA+JbBtl1au8IhgWBoNZ60HqRi9ncnBITcnBMehuL2yfQfUo2LAwwX2j/2ygI4fMRjXgBF5VYpG4iBNriEKdBaGoNBAMVI6dzxGZ9XXztx7YOt2j0jwD022YVLiYKekYzJlpoALMioBvKz5YElCXpmyQtrxqRSjoFlEFKbk/UqHNGgNzDL0EgIiQIQAhpk5cxj9M0iW4WRlB5D7kCaagZ5IZpUxaE3arLWCGgEWUGBGpICfD9CMUS9pSu5XJ7PNU/TpBiLo4W04gJvlasEXmOhXZBmCBpqo5JGagAf8mDpBPHSTQaAAcNImy1VfBgAmh5QhZbxE40zJZAoIgB2LIVfTasbxJxtifVxwGIdRl6TqUFR7cEr4Gu4MQAAAQAoALeg4dfO3Htg63b0P8aRxWZ1jsbhmWneoqVlUOloFTYQK0e9PjDWExp0w3lDdU8GPfSTl2wNQblqxC0BNSJRFUAh8AZuMXBkQuhQCAZMamHoebgxA1REsQceOYERoaNqVoDTJYAAuKkqW6K1DBVYJBpBqzzi1lpTCscccfrEZUHPQQPnjWVkTEMPUk9ucAQAwbjKL9BCrEiqNnr0gVWZ9tQLyM5qwqS6x+opVzKQ4vaJKR+SwBKlWhogDSvs5Rv1PEyyMEWymqoaFRXSGYEGFqgQIQKu4fVw68BBwaAul1zyVRds5xYBaBZAC0JJcfs0BAZAF+uVWwq0b99kUmrTsTRqGqfhdACoWfIZq3hXhxLORUZWahx62duPbB1u3pQNDV3EHhKgEANEMBNAiCQbd6QAAIAUACAGkRMUQF49I/Yf+JTX0N+p+muBdzrfBu+1oyyo7EBWXMULBlQp2IMATLbsvmLwSbQgFFgKKZqrQdgiEAI9Gwb1LBoG4KYnJKABBb1paF9mLtSo33zwOPWztx7YOt2xURixKCMTkj9DUZzj+I/R8x4P3rYPTF+p+g+l+x1s7ce2DrdoogI9TEGc2COdoyb4vBel4sxxxxx4Km8S9lR6ehxvFeh45+p+g4mdRO3HtgaMzqstRPL9s3vFvPF908X3TzfdPN90833Tf8W83/FvN/xbzf8AFvN/xbzf8W83/FvN/wAW83fFvN/xbzf8W83fFvN/xbzf8W83/FvN/wAW83/FvN/xbze8W83vLvN7y7ze8u83vLvN7y7ze8u83vLvN7y7ze8u83vLvN7y7ze8u83vLvN7y7zc8W83vFvN/wAW83/FvN3xbze8W83/ABbzf8W83/FvPN90833TxfdPF908X3TxfdPF908X3TyfdNrzbza8282vNvNrzbza8282/NvNnzbzZ828VoQ1L6ztx7Z4W3/WYhB393wtp249s8LbElB0AR+wOBB98yE/ugAfLFY/6Fzzo93wtp249s8LbEyDZN2BYA5PjPoTKIuFjqw4Cm8TDjIP8S2z3y4AYQCSIxO9Nkq6MQdFgDNcO4/MGJQQUCbawbqlY1boBdgMdiJZQ3Z4giIewlexF84T00QLPFAPL6BMEEQRU8QVmEACQAxEsiOqIGqMuoGFAfJnxZJzPg8opQBAMd40gPSA6oXZ8mMiUYUko2DrtBA+aQfmGvEHwGAC4BcuOhTq7RKjBSF2eeaGaUACOWgMiQUL0R5f6rnnR7vhbTtx7Z4W2JQAag+DXo5U1/5Cb+Z6y0Q6FCep2/pjzFgJ1PbBM1Kw2ZYxAjUhrpPgqYc2UCsF2sGYQZEDUhKA5BvAHrYMhV6Iw4wYDeEbQZSQICLCodLwUolTLGQXAv1gIccWkbkCiAnUXQ5UFIWPBAC1TN3sdin+DhigOTygOL1wkAXSMxdUNVITwwjACgzfprBjRBhkTCVSttXlH29/CAgSuYc1rnLEChEQCttQvgYTXlusCrqGtRGoMSiF1qK5DULQV6RwtQGKUCnVG5hH0nzKoAgGhYoDcnKEjKQF7vV5BRo7xp64iYAyTC1Ab5BmUSAjHTr363pt/quedHpQQhQEaulOH5lRokBVrQkWHxLD8AM1LufV4W07ce2eFtiQCEays9Zfwbjh86kaYlWAA7+WglELmdf8l2nAIiBFiCKg7iAAgLBk6khJt/ruedHu+FtO3HtnW/8AWuedHu9bO3HthEEBcGnGcxA0/wDA8hA1hEklcmvGduIOPlU0ABX5B9Ta5Jtck2uSbXJNrkm1yTa5Jtck2uSbXJNrkm1yTa5Jtck2uSbXJNrkm1yTa5Jtck2uSbXJNrkm1yTa5Jtck2uSbXJNrkm1yTa5Jtck2uSbXJNrkm1yTa5Jtck2uSbXJNrkm1yTa5Jtck2uSbXJNrkm1yTa5Jtck2uSbXJNrkm1yTa5Jtck2uSbXJNrkm1yTa5JtckIFPgH3KpoLgLEHGRs4JwTgnBOCcE4JwTgnBOCcE4JwTgnBOCcE4JwTgnBOCcE4JwTgnBOCcE4JwTgnBOCcE4JwTgnBOCcE4JwTgnBOCcE4JwTgnBOCcE4JwTgnBOCcE4JwTgnBExEBehRCU2lNpTaU2lNpTaU2lNpTaU2lNpTaU2lNpTaU2lNpTaU2lNpTaU2lNpTaU2lNpTaU2lNpTaU2lNpTaU2lNpTaU2lNpTaU2lNpTaU2lNpTaU2lNpTaU2lNpTaU2lNpTaU2lNpTaU2lNpTaU2lNpTaU2iEXoaiJeW5CbTlNpym05TacptOU2nKbTlNtym05TacptOU2nKbTlNtym05TacptOU2nKbblNtymy5TYcptuU2XKbDlNlym25TZcpsuU2XKbLlNlyn86fxJ/Em25TacptOU2nKbDlNpym05TacpsOU2nKbTlNpym05TacptOU2nKbTlNpym05TacptOU2nKbTlNpym05TaHKLoOUTTpNjpCBFjS4gDG8SUbKxODfpWL/wBRPoftC3tmGZxQAF6m0dXEEN4TxJQqG/bC0cruyQRgcAzACnh0R4JxXi/E8H1RtvNwhCCSoAqX+om5LQNT4i7FHmYzokZNLUh6Q4ZgM0e01vFwnm+qM2FYEEfn/FbA+h+7n6M4MMpSXhIAZhMzhzCE8e2dR2xKQa5CuZZwm9JRAKU0BRaZKTOVaqAJUQzUs2IzINNaZOAjLFWvuDmICKC6RLK20FoCXGNDidNOMdAJE1J5yiEU/InkoBIgjZuAT0uJXAKnVM1a65cMwkkHU6AMkcwq/MJyhOAxXlWfxibBHN0mhIs3lpARljKb460gcTNsZfgymINYpw8IWD5cVE1bQX7UMAjV/PWAiXRSR8Sh8oWTxeu/peky9kW9jODAxOCkObWx6uduPbOu7YkwANBFNSX+Il7SEKeOqgRaoFRLBqCQicX+QLUqkCmJgC6Fh22T43Cc54toSRDUxVAG40SFK6wi5ESENk/TgIWFiIaq1WCSH2ikili5OzWnGFqDN2YcsoZzKNWBQsxYnjVaSjhihAR5ofnnAXtxT0Q/MuTdUUHckq0SIRZBpCgBVin0GKTtYqc63IdN4KlzIAswKlisPJEjUUEsOsBrdQjKr5R1BMqwZjyCyhImq0tHCBMSYoNah2mzIGJ3A9YWQmYQbUK7G9vUfS1L1PtC3oz9GcGBgiKC+fo6mduPbOu7YuJZBnW5jZDpCiWLANjUPlMaBU5DWEKiBI1B0u68MoCQEIIsRN84IxmpS1VAImydfmZYSKCgdZbhJokJ+IyBhA0RNQH8xNagA6BVHPA4YBVSa1Vx3iZwEgJeh7e+Sreozb2hb2RgopSEkt1xJU6+duPbOu7YlkgCmIOY+0CnxaNuvKANyg3BBNOcPZJBqYORBBIWRpnGkAE7UIUpUhuBQBZF6rwiQSNVQWSOY6x4tgEDC4ZSTqxHUIWEhFWSPCAEwwGQHow+Aygw1EwFHaxKpk3tEFhqYAKJCu7DRShMGpDLkSuMAnx6CpQWHzzjhC3L1cvjrBQ7mexxTwYEisZ99G8enUN6C5kWiwfRAg2cqA+ZSU2cWxV5gsnDQYIClVlB6q5No90lCqkgvgjCMqgSBGoC7KA3GfptDg/8efrAFYTNc4cTWdfO3HtnXdsQlCMCCKwFZU1CJ4MDKimMk35CBrrp3G7BgoFBwzqESCRzII3ome+A/MLrOogWRQ14GGUIkvwQCBACK3iyQBzgGqrwzRUZS9SPeFCPCBBvkSSAPkjZwqHwV8wCDTcWhE9BoGCGtg6wuWsOyhYFZ3rjUDnJaUFC4coBExAdNVOwZFIECLVwBgdKJzzgzwZ3EYIBdapysIdFyuURqdLW6wrqhWEbBeQzrfk7P6BreaKFAFlg5Y2jccf+AW9GfozwYFSaYS2Bx6+duPbOu7YgFMoIUZyMzuNAM4JXcQEeeqKrqlLeR4Au0BSGwsgmLoAaeKBYABmYQSQTEBcDYbpwrKESXVNnXqYEwlg21hC3b4omgSrCOaEQJE1KFKAJvKLie0IAHNwmBgonjdIBxPhw7GSWXqBl/wAnjLYW9Bvj187ce2dR2xOJEAAwDmYBNwz/AGcUOXDtFlPH2QZfBD8GDRfDWEkcEFSX4mFugSAoqx/UFl3MCXnBXQRcYIQIpwJI+YGtAC9gI/1SW6J21rXagzlOEgbgAUKZT0ZUIbD8kCSCAgmJAJIQJvQ+5l6n7wt7LaD0ZQ3x6+duPbOo7Y3BCIHWGECYFoIBRhvvBP7RstxIpnIfJpBQAsi2TPVCAwZNVRc4iSRPVbwgGggjNCXSgJNDQMnNQCwEklE1KHwLZTOj8CIQBqVgBJ5CsS1TIC7IcS+EKrCqeM1blcThf2nG/Q+cz/xZ+jIHzD6CcTOvnbj2zrO2JAAswfMwVQHJaIqi2gVRRAu4DWQcA8658o0QGvGxypCw0AykuLYHMQBUEBEkdSrD4gadA6BuiY/ASalQkWR0EC8SjQOYQy9qNDZjSDBkVnmaDcAHiILNAk1JqT8mp+YbN8Tna5gRRJIYYIoSFQ7YM4/YMfoaw094W9AxXQfPpJh9HXztx7Z13bEqJFE/JhABUBX4Qloaln+nzjcDRErVh07/ABCcEDkCfqF1AXzAFC0YVGZIrA/PfQhk6uJSjVLo7g5wKBn8p8ziYAHWBugJ3ry3gVyN8NVDA1lMogHmikUNx3lNWFsNFWVOUID3FiuvqabMw439CctHH6HL4af4hgi3qvFip187ce2dd2xJNDote5mblCjQtzhPILKlHqj+IdSkgjclg8D9yiBfI5n7lKAWEACRaDQwggAIg0BViD1XxADRpIANSFYhebSha7kwB0DT+bxejksdU1d7H5OBYeaGZAAyVhBkAyEICKJhwagQSg1ZDZDMIsQACdBDc4L0qWjcfpOOnvC2IwyBz9g+jqZ249s6rtiz2EeYK+F1joqjZbcIIga5EQAamYN1GPweUVXCAe4UIJ2EAsrPo1gEA1ajqEDAJDAALIRqeLt8fN5RFaVgAFDUwCSNM0gsyAsiBrEOFUSTvD0hCK2A4+P8xToOoIAtvviGNYiAM8YMAFFCCwfmEgjNQRBB4QkYLBFDLRyvoveXmeOf+Ish7J9HUztx7Z1HbElTkRu/6iHX0jIihsg9CI4gg/RgT5CAqxEHFKM4hAsEG0IVGrNgKesVd0pQBOlZbgHeAgdTCu7sMFRQMCuqBcIACizk91c8SoQUV1daHGypWzNEiGQGmun4r48Y+iNmmpd0A0qNRHRVz4o+DHQdY2bArfKUbCB5UBCtIB7kWXovHBDfHP3haKWjMBhxPoPo6mduPbOu7Ymh6jBhCgGglKlnPSBCpg3EiMCK5GI1Aa/CgMUdbUv5T5ghZIwN2A/xCpvgwLJ0FtxABZ1mVIyrKAUmhAuzSiAiiAEm5MES6DT4HLEs3yQZAZZobbwetAGA5CE5GCQQMh3/AAIusq1QSVetTXgKRCY0YxuDe+ailCOqh1XtjfhDtgIb45+6ootYy3oPt9TO3HtnXdsTRhZYUbQjMQmMEXYGZQUFQEcuv4gK28yrWUAmukAAQVBtCZTZ7UIMAytbaC69st4Bo7jnQdT0lZUCpHaUGzvAXHJZwnC0EqaH9xAKCyuEc8hN+DiUEzUMHRGSLcpYfirQqt7ws4SlQDZE0dhd2ly9KwgqC8upVEAdKKEY6wBaJ2jcKsjzZtAZuFwkkBMUzh4gtAZqaBakkCHiQPHE6hmFgd4IJLgbuSqAsIGuDos4B6mtuJEFOsm+OfuKZS14T9049TO3HtnWdsRcuoUZs/gjq8pd0JFa1hwOkgayRCAzJVCtpFaoOF4CAg23jamHqaJBLb+wgWggVJIPSEAYUtZsAFjqI7qNIcCWlGISXmTglhAHSwRcORKjRHrAIkozOy5Gu6wyh7dz2QUom/EG8GE4A+0i0Mpo1qIxRxlK5lAvh8h2EG0KHbQa0byhsg6iMg2kurVi6ahMgOzAqChnD5VxowmhZaJq94HuQ8nHzADB6oSU701ydP4Dr+p7Y6iwuQaDUCkKGqQDAoEASBgZVMO02BkJcMibujRRvjn7awtHDDf3DfHqZ249s6ztiQFGohqRWZeAoua2iZUFBVBRCBBU0OclEQICy6kBZIAginMIGa0QR/UWnLPkc+iJzSawCIHNgkMi3WYRVNU0nWbN3+qlmnBQRxUBQD0P0v0iG+OftLBy+F/dOWPUztx7Z13b/TeE6eoQ3xz9lYPE+yfScsepnbj2zqo/8Ty9N49PWIb45+tOLFw4P0v0H0nLHqZ249s67tg/eccfp4wnT2BDfHP1KCPC3oPvHHqZ249s67tiRduZOgvHNAdK5NoOSTISFJNOkzVkFk7u3sv0uWtg/ZEN8c/ReLB43xJ9Z9g49TO3HtnVdsR0PdI/1DLq0IBXotopcPRIzAf7laBGG1L114b+t+lxvC0b9oQ3xzxXrthlCXFnDfDjgfZOPUztx7Z1Xb236nH7whvjngvaMWvvH0dTO3HtnVdsSDgCRIJCgzQJXwYUECAFIUF1gACbt6GUGCAUhQXWQBN2+IiMEAFAUF1gACbt6GQGCAFIUF1AAATdviQSIBSFBdYAAm7ehl6tDg0TpQS23QRy9BpIFGTaJrSUBQGEknQ9KKr1TKAQqMOgiEEUgoUNYaSVIJCUCA3Fa2EG0LMSIBlUQGOOOfviG+CwUfuG3pz9GfoPo6mduPbOq7ehiBJIgCZOcYgSSIAmTnGIEkiAJk5wKQNJEATJzg4hqRIqm5pCLr+hrqRnUuBzbDmNpBFVSq5CGDk4dWBxN4atB2ENE5HBEmrQIsvyHOh0BIylkBGgO8SeMKWlG1TB6f4BE4tIpb2k5aHAn2D6T6Opnbj2zqu3v3/wJxKLWWtH6/zOPrPoMOJ9nq5249s6rt7r0wcPupxRe7bAy3qPrBdixticcp187ce2dV29p4N4P3U4opaP2eEXsH2aTbq4ecIkLpEaCwATrkfCXh7EDxIqqa2ra8IEbJuUK8pD6DOvnbj2zqvYcvM8Le6jAIo44wEyibB39l+s4Ob+gegRVYnULlyC2YjQ1AaxbD2QOzO0AM5CqCEhKoOTAGXxl1jlx1NxpwgLEFjVH09fO3HtnVdvQbpYuFjetAlUCOVdDcwrs1nyG2kEAyQAru+DCkVRCAR1J+N7Q0+KJNgTRJ+DBGxCZTMPKtcw6iHFxYkDUrKvzBS2GkJblcoQ2A0kCAgSBvYRVS4wJL3UmqpbPOCWQA5k5ATOlR3Q9lGACKP0BShClACoZeYq8IUClYAgBuOeTv2gwbL2ASFjKByAwr6EDmMAZAgOQKAZEjZBY3M1g7WgReAUqEa4NS/qtL4kv2RiMBYQYmpvgOceiqQb5uP6mURFrdx1oahB8rwV7GW3p6+duPbB1u2AwZeCIRIiTZESHQscCoQVHhRxNdClr1oGhjsGQ6flKMPvJAJodFLXrCaCuVMK18FWBkFxDYlcR2NMtS6LVQwaJQAN60z2qEYxGhGWCVTQmg3YqFC9j1QQLJyyoYQh1BuW4RNUq3TgEQhcaALr8/h61rAF7BiEQAEw4Qz+YUAJbcElmIsQNYVE6nSgjPBKSaDk7rb6gyFtkEDlw2gyIACAAS9wlcfZMLiIhhysQ+vwI3zEBF6VgBWPaD0hmFaNkEQNFf5gF24mpofuCEFgB6HOvnbj2wdbtgxlGccrUtOq1WIMABQwDZ29lRaxLB+x9cms3h4SaB13RC4UGRsGZFH+YOTPAorJWwH5lhbwBPwhjmhq0lRVU6PdQlgbjBUJF1Kfh7FsHL+g+sCIurR8UDe5MWhDRqEJkGR5Uu2NIaW6oFTRZeg4dfO3Htg63b0FzqszgBYIAIJQ8ABISbQ2qwTWkE2KDAhA8H8S50oENGbBLA1hsRtAwWclQySFYXxvg612UjW8IiXQuEa6gxIBsnHgWcgdQTmKJgLPjQxIbRTW1AHGOsmlgxqEAEAwzGkIACQIIoRZRExRKcY/aajQB3sCfhKXi2nkU4lXmbYlWJFD8GvxAUgzULbRzKWNYeMAFZzMy7zyI3EBA6QSGqyTausfcjTCuIK3UGqDs0fSbS2JOntAUCYUQFBgUtcoBQWQU8m8qQqiIAmQugEnitJVScyPrYAix4o7y/C+7bCoj94VtMKtK5FLwvQlIYjcGktAWAQiCKGZY9fO3Htg63b0L4oYYqkgijqN38R8hRrjZABhgYOj1bPZU0rRCsHhYOZsGIQDh6gV5m1KMsxvMBsQqtDe/GB91MQAPYr9BpDs3xVVorb2ghDOFlSII7x9G9A4+JNTUCkAFlhacPUosa+nSuIAHWbVjED+MLezfEnL2XDKTrfZIBJ5IG8CARRNWxQ7oW8ixnHsBzLrDRFPcjiNiVr3B5ObbcARKOERZJ0uoQrmTdEUsBjmdbE7fEJUxjRwRhRiAfGFrJAcXQCn4hx6+duPbB1u3qURiMUQF5sjZUjecccYP+h+hp+0fSZf0HHrZ249sHW7YKL5iiW0YG8XIObYSTngn6mo49YxHvHvHvg94949/cblpxwfpfpftPEzrZ249sJFgkNhP5o+5/IH3P54+55Q+55Q+5/KH3P5Q+55Q+55Q+5/AH3PCH3P4g+5/EH3POH3P4A+55w+5/CH3P4g+5/EH3P4g+5/EH3PCH3P4Q+55A+54Q+4P4/3AH9P3P4Y+5/FH3P4Y+5/DH3P4Y+5/DH3P4Y+5/DH3P4o+54o+54w+5/DH3P54+5/HH3POH3PCH3P4A+55w+5/EH3POH3PKH3PKH3P4A+5/AH3P4QnhD7nhD7nkCecJ5o+54o+4/54/54/wCeP+eeNfc8a+4v4/uL+P7jVAnYztx7Z4W3/g/C2nbj2zwtvQSrzfEBMf8ARKSosH8j3fC2nbj2zwtsSAJQAUhMgvjmvy5tTTN8W5yoXjb1FF7RKFYQFkwc3/xbnnR7vhbTtx7Z4W2JRli+aGz0FwHJ/PgpN4qAA852GZhDWvVKkuw4HAjgAqY10VmN0pHaG7EbwQqA0c6RQfTpFfiuKlVpZRYByoAuOYA+sWQZR2BJBJING9TGEgmkgHKaGxUqoQpckkTehwyGisKliCtCWAaLFwyMIX2qI9NkJABCY15MZwRseRpkAaS1vtUEV8LTpGoHFloXSk0gWKMlAhmwvm8lBS8r3RVmxSjyNQ4xyRgCahJ1IhbCw5hQtAht1td7RTmZm5YEdUKPM6QjlBiGFApXGTOoMBijDUs0YZsExd5KE6xVvQc/bqCd9oPXYsAoaCSiFS9nmoBOvwLVaidqI2ydP9Nzzo9KUzKI3rECqSCNwPxDGsCBJuGvg+rwtp249s8LbGjym9DkYR4GYaqVA8qPhGpOyUPzkwHJkOp54KOfEnUMvWrguZRaCnzQTCK+EFiQZdqiyZcYLVlj0VDqGC4hDmaEPzCzapug3FPEForQBZNZXj9iikByAzQsyVFbZ2OxR3yJzooQ1HVGAOog1CS5iQNNzUI1vC+yoTUrHzgye21aU+CQixGwwDbBvgbBQzFyWb2EJGRiY+ObShE6p41zBGBMNWEj8DgINMk0cwGo0oi7wlZCfltXaAAFBlQS65WIIFUGTRCgAHw1hp31/wBVXPOj02rtiE8Zd+aQTC1b0kE8fV4W07ce2eFt6BsGzCgg4Iw6ltUP+jc86Pd8LaduPbDts14Rv/qhswJH59xqBbsSVwnbj2wbw6hOSRlNpyM2fIzZ8jNnyM2fIzZ8jNnyM2fIzZ8jNnyM2fIzZ8jNnyM2fIzZ8jNnyM2fIzZ8jNnyM2fIzZ8jNnyM2fIzZ8jNnyM2fIzZ8jNnyM2fIzZ8jNnyM2fIzZ8jNnyM2fIzZ8jNnyM2fIzZ8jNnyM2fIzZ8jNnyM2fIzZ8jNnyM2fIzZ8jNnyM2fIzZ8jNnyM2fIzZ8jNnyM2fIzZ8jNnyM2fIzZ8jNnyM2fIzZ8jNpyMO4Tmk5wbTtxBxzjf8AwP8A/wD/AP8A/wD/AP8A/wCmKUBYg42M/wDAgAAAAAAAAAAiJgL0EROgqZwOc4HOcDnOBznAnAnAnAnA5zgc5wOc4HOcDnOBznC5zhc5wuc4XOcLnOFznD5zh85w+c4fOcPnOHznD5zh85w+c4fOcPnOHznD5zgzgxGnOcDnOBznA5zgc5wJwJwJwJwJwJwJwJwOc4HOcCcDnOFOBOFOBOBznA5zgc5wOc4EfaNpG06xKhCgHpLIXMyHz7D9Q/yv039kWxV6K5JhhFLWww0Rv1D6hINW/gwSjtSfaUxE5jPDLA4EqsL1WyjuI9BKBh74P0nF/wCpv/ArXrCZUl0sAjjjjjggUDMRoHALZBlExDjlj5hlQ8YTxJQuZiFwgLmG2gDWeIPqeIPqENT0D6llJkD6lqAO4vl1lxs2R/yDE3D4krhGREcgBEHrQgD6ngA+p5A+pqdA+oStHOiM5nfdfoJ9LXtmB1OmthVA44444444appFy4jpSCsSoay+HMITx7Z13bHpTKkI6wyxAIwBXKXBFmAmghGc0SW4gCKxAujKqtAEnrAGbAEjTj6KrsPmShjrzXVO02CtCsFp7n5CVh4wQ3OenSVg3bQTYGQd9q5Q1KfkqC0VoQVFBizCoVkTq81AVBUmGs9WGysq3h4krOdKiRWhuFZL1W9V/asI3lb4dfNo444444444YpVQQIC5FRvKDhNvHqZ249s67t6CO0tgA1nHgEZLJBtCZSNMxC1AelISKtK8JIGohHYrxtSACdAAuhXoJ87JiGGIagsskn8mON0eAIIS0rxhtNIptRfmLKygLKBSkcUOgNmoHbkIVI82BgBP5gMUIk2abgeA69dENbXLPqvi8HFn7We4EjjjjjlsMARRxxxxxgKEAe/aNsWHoq487ce2dd29BMYOCQ78rQCsB0B0jJTcQipBAFxWEVUNRwhESexkTT8eg48z8uCNRAU3ON/zegYCkKBNzgQDFRgFEMguCIIQNEOEs1tWFFSsMSC/wBwxkUbiK/MwrBgV2MEnOFAlE3HoiLpA7oh1VNpr0aYxADtEQB0QQpOrjDStCbAMxaoRwQmqMDicVW+lRksHlDMD4iwIYdIyjQqL2055nxHHHAykG7AT+qgkIQXSp/VQEgzahRxxwiVKgeCPcQmt8SZ187ce2dd29BEY/3rQoAE4UWq6+bQgChkBThGH4sQITIADClKcrgEcocvUoBIFwc4VYEDlHNB9ccpr+QYlgj3KOGAAQS5TqoL0CisFByAsEmdJmWQRm42apOiYr5CiMAFOoV7CbgmCJgDxrQgkBQEhUcjP+ekoQSbhsHm5QQpxagSidVHzC8je5rssQppcKILHYag3dYgsBWe8dWBJlhLRSM2gWbyiysgkFEA5hkG6FKQ0ZpQKTM1Rz2AhuCRKc2EI2HChjqM+u3oowKLdAFmxeM64OKcAsqrtWF7bNRAiJFqhxhzrbfAJqCNBWhFUmYOYXjWVplHYFrJe4FDyBbp9Rxxw9Bto8p/AfcvaCl1If1b7msvCP1HHHD5h/Bhsejr5249s67t6wNkZgF8yfxK9JIkSeIH3GIADroCBZ1pW0UIBOVkMQwBBpQEA8DEhomoZnOKBSlPmACZgQCsGF2xMOPFXbeLSzOa7S4rjqA7wouOvOEQZnF73iggLUAEA/iWYGEOIc48ggJJZBo8RADFXeiwNA4FIBjACuRA15wtJ2HTaHOqAFW2YOVIrYO6hvqdd4ETwIy2o3lz5KArNyOLhbstGIPUjOWwukTwExQCSUUewsPiAQABFiId7eI7QsGlq5+2YnQ0E8EvyY44445+eXHHHHGPST5zlvo6+duPbOq7egCMSJhuOx9YAkqiA9yk+kAbwADlRmsDBUZARoDqLQ9FZYVHbaBkVphFD9nB4E+dkxDYECVkSE5kA6ODQbzBNltLykAwNHL+RFw3twEXGo+4QJ2wFKFDItdYRmUB3Q4oITdC6Z3GBSge5IAB0ZIiKRKUE0EAJGeV4lZ2OCtfLwQgXulA1BMLsY+ZzgUqZhutYmxLDBQzuDNOC0BZsgdiiPnbeVzkYICkklAlFDmBlA9PRcgJBaM+mcRU6GDUAGSNaFzV2UKLY2Le8JTgJAxJFxoxmLw4B7bSYpTNO1I2gcBhgjRulySoWfwRowNmv0Y6apCItDazC+IAIUFt+ggZ1pSDljjjQBAJbsjn6DaAIKsBscjzgECQEg8RHHHHHFqo8pHHHHHCkBU6cB+3BxM6+duPbOs7egCMSHeruDGDwsEpH9wpzklVYBsDlkMhegHmYtNBUAdAqwdBenH8QEBIICPFvxqI8FE5i3NBQmkSCFQA1ygjePZBFOIIJjIanK8HZQCgsR18LFjDMoggQSLAZGg5RCsaQEIoOYK1wpD2SjikJEDzYIAYURCzAspKKezikGrKAlQbJq9IEAFvNIEAkCjo7b0h0HsAKUgBKJMIF/gkMOIIIK1cGlEa0ET/AJGHfbmoHHQQ9brBnFEkTJLFMi94OE8AgrPvuAq6w6Ej6pOUI2EgcDakJWKvKMHMEKhkBIAIUUFkgZNKq8ApxOMtAAmCBqSDm0C12oQWqo6kaAw5sgAgyIELgYdKtACiuWCYyFvKHcUiDV0cjiB2oDDb6tSuPUyyMGZEWJcqWlFt3r6BYhFNb4nX58vHHHHHHHHHM5m50GZgaCAAUFD0dfO3HtnWdsaIGPQHGsF7SpI0ceomyUyl8oaQZmbrATxN/wAxuOOPTGjiQWRn9m/oBC0OCBsV8nnMsXACaASJQyOoGhgBAQAgBp6F+QPB1NR46wb0QkChBuFDqCYBBrQeg0ZkCtPI/ZBxlgFRCAFkj+mOOOOOOOAo2WAgqlW57cItQPR187ce2dd2xtILgMbwFAZiEBzov4ygtAxxgIA1LMxrdSbwopuem8cfqY/W4/STlhp7yj47sXYhs/nA+4BUKIuwj6a2G8wX9iELK+aKlmJejr5249s67tjRAW8AHaCgmBBk2cEtqGyh69fy9RCiBuDSF3VbTMG8mZ+BARIADgKQuyCobgU1Eaj3gL8yj0P0LWE4P0E45++Dj450lE3QivOE3aKLHWEsjXnWCXJ2QlQGSMzX8zZiVSKEAUI9HUztx7Z1HbEkiCBNg4qprxhA+GBA3zEGJRO8imzbzSVqOvqjpx3lg5sq1ygMZskCwGQ9SuqiQCuTEiWUvCNtxCCyMo8aj0v0P0cMM8c/8BDgTA1YjssHBNmIygREsMvR1M7ce2dV2xrzKhGgEFLpQkr5gt8zMoFiRIx38gFjkVQ9YNHVY1JBtAk7tSvMoANZUCNCkA1idIIfpjA+cKigChcA34QOJG2xsQaMFEWyPGDnwhFRL/BrEoOaADmoV7/doGGElGw3oJ0tA4pIhvAbFCJpZ5em0vDfHP3hbAQgLwHDhLhAXoPo6mduPbOo7Y5iHUBpKiNjaERRQiXAKEhQFQADoF8k84tqQADaZAmUEsQNX6ODxnUiJDgijEIQNiWyDQZqLpcaQ2lT12SwtrtBbQUfA1qRrAfEFsoKlFyRyrtHldE03JGhsja5zWLUtG4Ib45+8MCUJd8D6D6D6Opnbj2zru2ItRRCJAq5X4xvjGwPQF7h7RKq+ZmdINNIYdI4Gq2IAhL0uw9vfOXwEN8c/cvEsCVKm+JmXt9TO3EhtWAmCgNaiMaxjWGgwcjXOP4QBNKDuPuAuaDeo+4AoZdxPORhNPrE2gG6jSEUGbURH7iJ/cTyhM78xPKRBqOKKi9d4M8gljIg9o44zcZCkMYo1Ai1QYz9DZJEQRqZepRlbggg4qmwZszaEVR6pi2oOyAp81AJb0vYQqc1FaIh8ZUf2Zq9TzADyg5UDXyCBgVAq7ukAw9B3cIFUgMBwkmyCktCbiLEaXNTadwBCllQ85SBCCSCH0TmSXsMyrZnSK1IojUMVpOGOcYjEYjEYjEYjEYjEYjEcspDWKLBRGKKNpG0jaRtI82OuIARMxpUQgvT/wAVuZuZuZuZuZuZuZuZuZuZuZuZuZuZuZuZuZuZuZuZuZuZuZuZuZuZuZuZuZuZuZuZuZuZuZuZuZuZuZuZuZuZuZuZuZuZuZuZuZuZuZuZuZuZuZuZuZuZuZuZuZuZuZuZuZuZuZuZuZuZuZuf/jSI4E4E4E4E4E4EBaQEAx/37nD0Gzyl4rRWR9Gb/v3uGIDFQCpJSEM6ybEjaYX3Ea6UX8c/+GlN4k6iFmQs+kBHZib2gmoKcLjf5gQh031Ki4H+QyqytTpEdlRMhrUfXCGA5OhJrT9worLI5HT/ACXuGLDa4Q4ej0rs3CUkgctrhtCCCUNiZ/8ACQyqhZEL+ioKy/UGPmQZaCnCEGDTJUu+/wDjMc2PaQroQtl8xwgImAQYO3QEguqEAUwwAZDX8/5L3D0CdAiPHBvGBDWR+4rAOFV45/8ADUgbOSp9wgAQLQsZ9YWlV0sqrn5t4MCGYqnI2/X+Si3XlcYhsmlDQPKUQCZjAYBQM+D8/j/Je4ezm/wgiOIMpxcLESFF0I+oEDRHwoRFwc3v/lInq5lB04ViNdv8txCfb18A4h/4Jf8AhxLiAR3KhR+oK2oTAWl3pbHZwlRABmyQI3gDusC5IjvsCCCPg/4hHgSBZAgZtAE8fRCkcCCorY7OGC4QVSBOpsJS+dXJ/ECIrIUIz/whABMA8YQRORDtqivJp/wRmeFI1wRSDxUV9s4E05ulA5mlPmZAAARvb43gPncmral/lca1HAHH93J0UUYeR7aq2s2+ijNeDMS21ColLDeoIv8AH+K8gFus4rCQMswJrvDJZACoCQS7iQo0BwFFVU1HjTlCqrUgVMNdYMJDTcD/AAp78IwM94x6DGQXhAE5QpTM12pKQBsUciFHvDu4RgGorr8d4fEKrlyG6RuTajoJHSxD2/G+08b7TxvtPG+08b7TxvtPG+08b7TxvtPG+08f7Tz/ALTyvtPK+08/7TxvtPG+08b7TxvtPG+08b7TxvtPG+08b7TxvtPG+08b7TxvtPG+08b7TxvtPG+08b7TxvtPG+08b7TxvtPG+08b7TxvtPG+08b7TxvtPG+08b7TxvtPG+08b7TxvtPG+08b7TxvtPG+08b7TxvtPG+08b7TxvtPG+08b7TxvtGWeEbjxvtPG+08b7TxvtPG+08b7TxvtPG+08b7Txvt/wCjAKyxKdgALmh5HZ/1X3P6r7n9V9z+q+5/Vfc/qvuf1X3P6r7n9V9z+q+5/Vfc/qvuf1X3P6r7n9V9z+q+5/Vfc/qvuEFZYhq4INjUcxuv+owGKABY3BBH+PDhw4cOHDhw4cOHDhw4cOFgMUQAhsAAP/R//9oADAMBAAIAAwAAABAAAAAAAAAAAAAAAAAAAAAAAAAAAAAAAAAAAAAAQwwAAQgAAAAAAAAAAAAAAAAAAAAQAQQggAAABBwBAAQAAAAAAAAAAAAAAAAAABSxADgAgAAAAAAAAAAAAAAAAAAAAAAAAAAAAAAAAAAAAAAAAAAAAAAAAAAAAAAAAAAAAAAAAAAAAAAAAAAABFbEiUggwwgAAAAAAAAAAAAAAAMMNWPGB0AADDWHejiQDigAAAAAAAAAAAAAAACQhX+1n0AACRV/3DyyiCgAAAAAAAAAAAAAAAg8B2BnGEAAAAAAAAAAAAAAAAAAAAAAAAAAAAnCCD0P0ADDDDDDDDDDDDDDDDDDDDDDDDDDDDDDDDDDDDATDDDDDDDDDDDDDDDDDzzDDzzzzDDDDDDzzggCAgBAgwAAAAAAAQAAAABBgAAACiigAgChHMAAzBRwzAiyGEQQQABAhgBxABAASgigBACjOcAChCzTU/B2iEDC3CABBByAAAAACiigDgAMC8ACgQzRf6fMihCyVkASQAAAAAAACiggAB3zz8ACACgmYDQPoEACAACRwAAAAAAACiigCUDiAMAAhDxS6prlQkAACRSAACAAAAAASwiAAQDQCMACALcG0q6VkkAQzzgAQCgAAAAACiATTxBABcACADCyBCXAyNBwTCTBQCgAAAAADATBQAigDcACAZU1h0GyG8AwwiQxwCgAAAASCSChgADyhcAAhHN2kUVN2ERDCQADACgAAASBjhCCyCCyhcACwAAAAAAAAyCASAADQCgAASBCgwBjSgCyhcACgAggAAAyASySAAABQCgRiAAhwxCiwgDyhcAChBwgQzgAQAAAAAABQCTAAAghBjSiigDiRcACgBBjDSQAQAAAAAABRiAAASDzAgQCDAQQBcACgBAAAAACAAAAAABiCAAADSBgSBBQQJ3wAsACgAgAiByAAAAAAyiggQRhAAQjQAggtIIhAMACgByjyyAAAARDAADzBTiAACASBASCfgaBS8ACyDCRSDgjxwwwABSYwSAADyAgCBhAM1A+TcACgQCzgQAQgjDDBBQgAAACQBBRhBRAMsOZh8ACwBEUEGwwEFywwSwwwxxwhTEQyAAFN88+90AAARfQAAAAAAAAAAAAAAAAAAAAAAAgAAAAAAAAC5hbTyywjTyzSggAAAAAAAAAAACgAQgAAAAABBPwAAAAAAAACAAAAAAAAAAAAACgAAAAAAARwAAAAAAAAAAAAAAAAAAAAAAAAAAAAAAACwgDQwwwwwwwwwwwwwwwwwwwwwwwwwwwwwwwzgBSDDCADDDAADDDDAQADDjQgBAAAihjByBghCgDAyxhB4LV0gQQAggQAAAhAAAACgigAAChP8ADgTBwEwt0CEADDCAAAATAABABCiigAgB8BcAChTATc6OMAhAA0AAShgAAAAAACiCgCAUwz8ACBhgBSDikmgAAAABBQAAAAAABCiigCWLiCMAACLCbOgcqqmgAAThgAiAAAAAACgiBgUDwAsACgag2XDxECkAATRgQQAAAABABCiBCdxBAAcACBQsDwhUAgtRhRAABQCgAABAACgCERAAgBcAChZwdQljhWtTXyhghQCgAAAABgwAByAbyhcAABeHvKSr5Y4CgCBABQCgAAABATxSCwgDihcACwAAAAACAABCASAABQCgAARhQghAjwgDyhcACiQgAAAATCAQiAAABQCgAyQAAjBSiCADyhcAChDSAgRiABhCAAAABQChiABSBBiyiigDihcACgDw1QBgBQAAAAAABAyCAACCygBCCiAARBcACgBgAAAAAgAAAAARSBAAAThAwCBAQAA5wDMACgAACAgSAAAAABRRgAAATiAQhQCghNCwIQMACgDQxjxSgAAAgCAAjjwSAABRQgQSCH6wFS8ACwBCxA0AwSiCAAAAqjggAAwRhAhhQQ884TcACgCRjSARiCBCDAADKAAAAiCBBASQAOPsdRcADCxgPwQwh3021RCQAAAgjAyQwG8cN/c8+d8AAAAQAAAAAAAAAAAAAAAAAAAAAAAAAAAAAAAAAAVVggwQwAACAAQAAAAAAAAAAAACgAQgAAAAACxCeABBADCADDAAAAAAAAAAAAACgBDAAAAABAQwwwwwwwwwwwwwwwwwwwwwwwwwwwwwwiAABDDDDDDDDDDDDDDDDDDDDDDDDDDDDDDDDCABRSAAQAAADDDDADAAAABAQQAAAAgvjPsBjSSgCCgwiDQgAQAAABAAQAQASQAQACaz3212A98ADhQQpKnkgAhBRgEACSQTggAABBY00c12MBsAChQBbCASACAAiSEWjkQygAAAATPA0HDCgT8AChCgEf0QkCADE2VEngBwggwgAC8AAEADfjMAABCRDSSxxChABQAQiCTXDRDABBsgEEFT8AsAChDwBUzymwgAABxwAAAgAAAABDwvrvDLQAcAAhTmThfn7skRTDygxQCgAAAAACxRSiRggB8AAhRLiTzQ7AEDBCBgBQCgAAAAAghgjQCCwhcBBDBGGGOHOPDADBADDACAAAAADDACBDABCACDDDDDDDDDDDDDDDDDDDDDDDDDDDDDDDDDDDDAAAABUMMPcAAAAAAAAAAAAAAAAAAAAAAAAAAAAAAAsB0sIAAAAAAAAwQAAAAAAAAAQwgAAAAAAAACsMYkMAAAAAAAATAAAAAAAAAAQAgAAAAAAAACMAABoAAAAAAAADAAAAAAAAAADAAAAAAAAAAADMz0AAAAAAAAQQQAAAAAAAAAgwgAAAAAAAAABpFYAAAAAAABBCAAAAAAAAAACCQAAAAAAAAAAAAAAAAAAgAAAAAAAAQAAAAAAAAAAAAAAAAAAAAAAAAABDDDDDDDDCAAAAAAAAAAAAAD/xAApEQACAQMDBAEEAwEAAAAAAAAAAREQICEwMUBBUFFh8GBxkaFwgcHR/9oACAEDAQE/EP42Sb2MyQp5Cg9prfkAPAskWlsOG6IHYvkEHv8AIyQ5TM6VmQyXfjGp6w8vtTcKRoN2/g5+YM75/wCn91snl67H4Gv+fDy/O5iL4LjZqC+OlNw4TTzfm5A4iOdJlZTF9AlBF8EWLsJaq02PU1xyVkrEjOnnCIVD4yVorDU31DofFS4VG6VlIfLRRKj4iWiEsSFvAs+l3gIexEGtAh6S0RnkUTGsDIEqoHgshTvVHw5NzQbGi+JLGctE9I3w5NJIcAIkIiAVIbxaTQ71py4T4UuE+FLhO9cOWjPYqdZz3IhutcKyOIrGtrLEbF907dMdG19mTaI8P1/PuxqI7yOU/EPyLGe55k9Ij94HtgPUwGNd7Qtfe7tY8l8PZ0eE7Qr4I5gEJtCSakkkkkkkkkkkk0Tr/wAzXCexoJdIxY7JJJRhfwUtStbE/PKErJWLEpE4B8lVsqzRQw6HxUrgqOmkR1kNIYuqh8TfSCylRT4CAHnGH5aL4YZ1AmYYygNiD2Ns0h8NToLoXAb4qU7QmDZ0XxJmKEMdWyosnC2kUirvWnLhPhS0o0HwpUjgO9cOX0BSsjRnTVjGiFnPSez9kEh1YnZZvx89CNj7CPCY+r6k/wDP6PQPwN/fW+JCm9bRLmuZ4BPz8kJZdwro0YlOuIJWhMmqRJJJNwTdNJJJE2AJEiaJ+0B2WhgZO3Ympwx8RawvryCCKQQQJSZHAeQM8UEEDVSrNJJ4aHvslG/nYH5AKiVkh2A+gIA9Z25D9lU3f6w8IWyHY7cjc8MnXxkihjSwzZo24gW0Ah03IUIyMA4g2LheTLgmLANEFAxIYnUd6ybBBQWBDUR1HoSJmNBQWtN6E8wBnQB4QmAMZLmhFSfcbzuGyUZGtE9FaUrC1Z8OT0AAA2JpNJJJJJrJJJJJJN3U32olNgDOxE//AIGSCs+xRjytya+iCOwiax+wk6a9/rImdf4Gi22x2Lodz+1BlmFvP9kmfMJf59S//8QAKhEAAgEDAwMCBwEBAAAAAAAAAAERECExIEBQQVFhMHFgcIGRocHwsdH/2gAIAQIBAT8Q+WzaWSyEPKs6H4BiauW1bEiQ0DGC8nkKWApS0PGQXCQiVgxMhSxxOAtTGdtBNT9j3pgNaYVmgRZe3/HsaRvHzWPuJP3wIKMYISDJ7amkrf16YC4Eda/2DOJnfTSeikbPPBNZJJJJJJJJJ4V6uiJ4FCTFV51JuzHQts3pnVBRYOzcG9U6JV0YsW8N0LdpjHSC6hcmNGCzRniOondp0rm6PuIsxhrBBcQ4p7uYulRSd5zotg97Tk3mmJpJEQI1VIqSdZCdPdz4SfCT+CKe9lSNrg3p00IJUvB3ZX6qBgFy46tlH1XYt7AQ3G0U9PVVqOMYZwR8pm7x3dx2MbZkTY/a/wBhLdKfrxQXTnp6zFwxPgmgmtKfCBNEEEEEEEEEEEEEEEEEEEEEEEEEeh9h0uV3ic3XBK0V2LeAAr4ML327CFhfIp6nSKRSL4t8mKkDcqhuSQ6Ldp1ii0DpuD1J0SIBxwsTEoCqt2DGwqUgZEWETWbek9Emto8qOgyRkoDGD3aZDhLBaI33MSknpCeG8iZdi0CG1JKiUe8CT4SfCT+RFLLyE3z8rrK8ln6DlvrWrs27rXz/AKCchcDLADBbuS7yvqywkH2LDVww8TH+iTtIn68V3rAjlufk/wCDDR21E/XzNgG9KelBBGqCNUVggihAgQIECAvEDKelT4E0bgkLDEgPpgfHkkkkkkkjeTLJd7CMWS4SSSJ1Pc1qmfGiLLdpJNA9k+/R0b0T0xe4JEtnfUEySTBfiTQTFnTPTHdEY+zWb+2KwFGqJW84IuqhtIE62CHIIm4KYM1svRRUY0GKzlpJ6K4KkuOzvZkSUGhK2RGC0zrMjXKTXBbOY5cFpAEJLgQsXNUxOqKGErBEb2R+jMegxVLeUVMaSiVUUggggjRBBBBBBBGjSXFG0s6AEj4L/XwYIKzgjGsaX9Jok4EJoTgTU3SPzZEfT9xPJJb8F1SW/Dk876Pp9iPP67f7+Jf/xAAtEAACAQIEBQQDAQEBAQEAAAAAAREhMRBBUXEgMGHR8YGRwfBAobFQ4WBwgP/aAAgBAQABPxD/AOtpAGpU0dWg1G464Q0hlFStiAcim1oMril9Gohs3W5sScFLNoh05pBypk00lUUeC/MFetnkTkWpsQlXJKUsZVsCPeJKtpGopk8CQUD8rLhYz1JYFBXTlsR7nDnUVAW5qGSOOZzkpl/jpdsPsTUwmbFMm/rUOE0ktCoCnQbelmrH8Am/eyvDzr9nBzlR0V0yZoUitbPB8ssJJMLrpsTGKy0IjpL7FL1bHJkqq5SiWbOhOpATG0KVJhl4pcoo3kvOLTdKpNRckyDhGv3sLR3JefNFQcneMszItV8kni9jUP4KbFIDaqtRtpzBCKdMmSPRCUWYLYboKTUyzKk88Di6gbqQ6dVezrNcmYtAJnyMP6Mav0wLoqqFmV0kj+rEqnXu+QyM7Wnarn+VP8hIKegnoWn/AFrCxRQ16L7OgJJSsqChZuNbV61CUP2WzOr64LJfqql7I2QoyC1SRCVUaVMm6ltdeDDQ5msswzkrljI17ZqdBArJnOpPUUHSEEl525S3AsNygrcx6SmXTFBFCwnuX1Lc1yk0JSCHZ6l9DuOqCBSafPfPNrgulOX2VS8IPJ0kjSSetEegh/Y9upy7o/yEQ14aalNDbMIHN6r2S2SICVsqzJQcSMFRXLBpqkuDuSUowJ36spTjbC8xOaZ3blRCa+C8l2k9n/4rcFB1FVVQ2kpZKaMrFCKf5MfVj1ODbMQJElCwAZIMKbcmCnTkaoThKsNU5GudqQs4jLPIt2dXAVgLlgXoKuy79x0bQao3UQUaadZM0j1sTQi+Do71EgFt1SQmqGLVXKFGSNsLCTEwxk6l1cM0TJfLKTp/gPL78TUaHYa3yLC3vbtyK6TeaU2QOL5CIuCRloTTjcJEwMYoyuDWiT8RCUG8dlkQ6nVPRirCC3NqNyy9CtS+9UeyGKqw5tm8w62Dd0ZYR4UCuJAhqj76mdTuT8YvFFl1Q0S4H4nUpiRgheK0+SjVyCt0W3Dm2M6j/wAIzZhJKm+MxQgsUnL0M8TLE3hUE0Y18JAiMapd3F05/Q0BWysmcpzdfqMLe+l/97ub5DJtDKpo+AfG2ml1LqdZymIbbCJiqLQVnr7Ce+L8EjnfTfcZuWZbYyPH2TLG2ShzVBwUIIT7YNV0g/ynGw+WEDibrob9BQMFa/w1DS2001ECWs2mT9bvQJEWIGxpjI47PJ/4ddSfXZaiWyqr9kIhFkN3nNRAUqX0kaISU5Tu/wCE8E1hqruFO58A+OB2dHGqmg56yFlQXMoRctEQQiaf2kTNDotuhGgI1LfkZKQSvbIrMGL5n+hSeKzGbSH89MhA/M4IckkoDEpHxjRgoWw6giZkeh+RDfJLXyLWGa6IAkCBofwf4H72GhbCSL2mq9IujNd7uDeFi7yqpaiSBXq70VXrWwmKne3drSr/ANE5m3uRR1L8dYlQyzkU5DklI8mJpTySGVoKYrPR9CMrVrdRHNvKgvqL8XcxCEgfhOEh21YZVGlDkiklncI/ZHuGp6BCUJxEAmEMSCCDbuaWgxD+/AdJxxIWEbRMBCoxMLQX+AkPgnRUSKZcxGMTvUZ0S8E01SqJXywKqriadsJRv/aIKjMmjqo6qOqjU+wlCpgthJR/3zrDrDrBUj7P9unITHjJP/jVKUpSlKUpSlKUpSlKUpSlKUpSlKUpSlKUpSlKUpSlKUpSlKUpSlKUpSlKUpSoECBAgQIECBAgQIECBAgQIECBAgQIECBAgQIECBAgQIECBAgQIECBAgQIECBAgQIECBAgQIECBAgQIECBAgQxn/wf/wD/AP8A/wD/AP8A/wD/ADxRU+fSEhbhgIifUz6n+UgACAAAAAAAAAAAAAH3M+xn2MbGAH1M+pn1Pk93Z3d31M+p4N9T5SIiIAJ33vDumSce+pxKRraysFz13EPBfljgsXg+WHguMMZYojYlAB+rg4w2riHggvwMuS5OB8pYPBcDPgLDOcK+XySksx1rJ4V4x9SZ6y0jlT9RvTsxkT+Iz4BAGeh2yZU92falmztnwyT6EEFnO2Newym/1LXNfoOqqp1DN+yJ2GZso6QOf0AwnFD76T/BaXBOAuCeFcC4SxUsKnhYfGgOeH0FYg6lxhF0hMGsF2eLADAD/kad1QFDsLrTqI0FJRgMgkl9QQR4YXqN5EACblnQQFVNk92AL33BdQFKDpsF+gBAx/SjBfOjAXYgyXWiUcTKcshpiGdDm01C0kEM/uN7yUy6P7Il1c8K3nNwqHhQeSkSyRR1hhLERzyW6kBwew4cL2NKCDPmL0huWTdWHR3CiaKAFMz7SglC1Nms6jgWDg4GZDq5KxHguQFAgyNduWAHViaM7LDSoNg0BgBwd0MUcQ2OsT3hADI98AUUlohJ1775ALZsDD60iCCbcrIBWQhm7hvtJCoGd2yYj+ddAZ4dhpAFZn1ECxZ+oFDf2CLpKoHrDJnlIVYoRjAEddsmqN+ycWbqOo2YyovWoXRGp0TmEpW/341duCH/AEg94Miq2aun9mSwZ26CSyK2l78MjDwYyGFRyiweC4GYsYEhPo8Q+TQHJQPzOuwgI7sFMTD6m6AAAHfIcC5IBnBRkQAld3hEtLk/+GAgd8sH1JRvaOwaODvHWppFAoAbC1XF9JITNAxPQAE2/RuYbQC3xGGZzaxH96vvXyi3MpxLOagg5kVmpZViaErKHlCTatnyHiku5pYPDPgz4E7gitycB1K4231yp9Rqx2ZABMXAig/a7HCQet0EBAaQUtBPE/Ux0QMlU0cQIGS0/dHU21hXp1A3wvG5wA1VKIrYSi3WBpOdjcADC4nAmapYij8i2n2kdEq2ryK/oA3eqL07sqU4nogabKTRc6EqdwdLdKvdM9RJA/C02p1NWYTBJrkg1e30XNV1BuaKrKl408lms8J/iAfJe6bAy4Y+TgOj5bEooWEU8ccgVI3/ADlBgACb4nyZBAFVDUoGmEzW2llgL3ZXgTaA6zQ5oF2oql4GgQQ8hEODrHlSqjsGF6PLwbMjYovLplnNeGlZZ+9C5fL9CEX7rak7tja3WRj+SohfYEtYaVPaI+oXJFpxVQyUxoMJ9dNRZLIymeB4D/DHguAqsKddGAx4THycCklTbP8AZq2HGGorNACk1WeoF7oIxipksTzlEcX9kmW9IIVqITSAdYu2v9SCX/rx9VHg1y3c/dAGU+DOQBZyaiaBM95hDD/E2mXE6B4Hiu5yweC4COvhs03YGPmRAs0csOfOAVhWk0ZgxYLCrW4CrkypCgOr8GdgFfEB/U/BNJRIAmSul3+wAAnufKQl9CBXWMD9dP0wrgLDwmwRLepcwDDFhl+DWDwXATng1xLClzECzOWpjr9LUVjLoreoKugALJlEDQFAa16gouLx9OHUAPiKF5z3YC3Dm0CJuIU700CXoFQAtsYxHPW/X3Agp9cIE1//AKAKy6KBu7DEOXEWLqHwnkFzi4M8RKg2Z8Bhdi+SgOWUrg5VgAEEqAlO5AWSCO4kl9Cod9DUD3eAB73Ba301PuPpglVt4If4UNoi85AAyRigeFueVZgAQ3daIQ/39WHMD3/W9pyodLYriZDD40V+aWBmPgGgDWcsHwbuYgO1ohww71DW+tudaDSEvslmBDa2YlscHXgl6KwAue0BEySbGYpYVAKe/l6dQHLeqkhzabbwuJFm2ssQAVFMpmqoWQRbmyOCGNyUa9MM/RwLgLAmPjS5xYPFog1xmQ8HzoAsoWlQlY5QqLUf8AIS/wCKYw+URh9YiPkz8Ke72PqFABSaWHNfFqARKSnUIqbVm5MDTstDQMhy3uU+voL/AJBCcnQSf2vDQQhhiuLwPEucXBEB7y8GZD4HzABSKtblC+aU+dnpL2QRkfMElHWIZ0KJG3OLGX6SwSCYegMUvqBJAq5shGRspdkoankIARznrI8KaV1eMif4V0yen5gkafSavMSAduUN5WoaQqcgM1S/TbcHT8xR2NSc2ukXHyrKI0rKiVQzPBlghaxXPGeBaE0eD4T4GfJALJspQbRdO4GtbAKt1ET1UB6wBSpKQP57IWwvofBFBTCoIIIVnuQ09iMDNCDsyE9D2F4jPhALScNJ+IPBkAJYPoleg8XPlV9ZM9Cw1OK8lbQj3lAnhMlT0TrkwMpRwB9p3MxLMNIs+Uu2rRiB4gtLWK/AEr1Jk8AeLPB80AOochG1i9IO4CEH1BADXcwgemoCnNqhsE0NhV6tkfyNwooiAqWATtHAv39yPQTob0sBlWWL38p4DxLWK5hYBCV6jknA8R8LGPlgFmViJ6tv+R4OsAlqFggwaQygn04NoX1Mf791kGvP6lcFfe5wP6iM4QPrMsgfsZAP1+qgFXKALZaqxXriHxytWyHsl69BIcptV0p5o1XRW7HJh65NVeE84wSLNgiYKMhbMEZN8jNoIiEoBWpUC1ttbZObQRrlazK05RwSoOSM2zQjUx1gg0yWCPqZD0bVw6fdudLyrpqJeILULSAOi378BcCiyZl7nocy1iuWgWBwRnwDwfExlrlgFnKShep9Vn/wfO8Kgg8JR98LwgGZFICEu/oRrgX0iS9wnjiCDeujYCr4AOPWgL5EMedZRuBjnAr0GrW8h+2JidnqIQZnNxCKx+R+5LuABTCLpXuoSoArZGpSor0gQomKhS6lKOaegJYSz9ICBQUZmRmSFZ+RzYRsPfe4szUWWasJSZao7HSOhoSyIR6ib1adJyb8Cf6lRePA1WOirX9pqMnpMPl00A0hBF2K3JeZky5b87BBaxXKLEYPGh8AsweD50AdkkNY/Qm4MwyKPuCoL6mewv1C7J9F+D6E/oazVEj6ooLL+mgvvP8ABP8AaPQg+1+jcSh536GlwZd4D4TD4S0vxLklfA8R4rEY+Exl/wCYAHThlwHVx7WK5YGZYOjhZGRmPgYxfyAB9PoL8Fj4GIHILS1iuMsDxPC4eLxZj4DGX/kAB08DwywOrkWlrFcIQWA8DxPgGY+QMZdywClDdhpw4jh9USGNJJ7bFlhSFJig1kUg6iJE1LEWos5Gq5BrknwPEB0D5S1iuALkA8Z2MXiIfAxj5YApBEW0SqX6ZZN2F/GSAiksnUcU+Q9lTO0qCqi5pcKPUOJj4TxPmFrFYi5JaVCgXDEPB4PgMZdzACiIoumnG6k6NDAI6mnG6k6NCII6aU1ROjQ3vGpWMbGadGhzKjDSzdB0aEVmyrVCuYUOdBvlJmgS7kMf29Hmq6amshrn/Uorrmh0gs9WSjExGtvrNNXWL59paxRjkmfADxQ8Hg+B4nygBzWS5bZ3UjHoeohMJ63arrS0jXPyhUOuu1WS0jXNwCYR1u1XWlpGuflBdoq1KryWka5+UK+ohyq8lpGuvIVTtcMrOLG2KOKmUqfS7vNblALkJR6R9Lj2UmOrmmZ0XAkSCK9u3DGkx21QIDjWopRoQhcyZzjd+AYRILlBjMWElLiHgzP8MAUjGLhh4tya0HJYkm0yzriTZIcyFuirqVb/AJRJYIXQQjl4VAXGg9JgirAU96Jda9X+EFoguSPEg8bWJ8g/wIBRcsPnECV+AAWJ4ngfEYy7F/hECjwD54K/4IfJB4MqCFUo9WI66yrnCotMOxV9MEmPLUN5WQuGPE+egUYZ4jD5hARSYHyTwZcg5ODNwM/TapNkkamibjOnoprIRqkQJQM3HmKkohxI+kDXkb5roEHWoA12kAdT2DxPjQPp9OBV9ttIYjxFfBo5OxkreDlkEDaLgAwrrU+A8vOSu5qWQZ+km4VOhPY6wvBkfQKa2FZ1H7zBUdwx0avUSwdvqQJdkJ/yyJNgRPHdipDLF4PBlDWLHjSG1hMTe1l/NxZnt3I5+kYlsJDqkt6xeQBXJ9ph/uecgUJTHhVjcKwLSp0BMuTlXbYCBkyjhydIEhVAqpiYO/ZEGFYLPjfVJVICtfdnCqhDqiboA3YnejDgmgYsZhFi5WJ0IwbAB4FJs84XSRH0KzL7kW4J993s541k4OQSCJcTKBsbrNVKdyWqg1m09pJac6RDNBDOy2cFCFnHBWwBHuqsoTzldBqETbd6rL9oTmh1Cx/URTXoTYQzFxHwPF4vB0yJIRowlFNQZ035LU1+0kEKzJtVNZiP3s2L1CkR2ZGCQJ1VBmo1P+4sfJQKUGzJE16DYU2d7ZqBrvmE2J74NRHdI/Q5CiM2ODqIm80pe7Gliprb0JoWdjo0JDwDKFBUk27+5tEUEqmYsxy6OokXWIezIjZEq4BTrQKui4xck8pO6/vMWWnZf3lwUBfgs+CUyCzAP3Qm7k1oQGtFC5sjSKWn/ZLCnH0C3CIsoMoDHyMChLBWTjV51elETeSqKeOcMpmdZBMSI3AfP1VPTXJTtJGW1PLmLrESfCFC20mmnfoMTzvLu6ILs6qrWF5pQS2S0StV4uILNz66plQm2qEWhhaPpFIrl6CNzJJCW6JKL4iECNDlIVvFuZIwZK8XAkRfUnS2Xg0cbgepEoVBa1OoJRbbiSe25xMmMS7zUeY+oCVXfRfW8pUro+iYoThzDvDC3AnEswDwpdcUHieDxf3BWLW2g83cw/tM/Zag7D6VJgJG0NiB4Hx4FHi0fCe2bkHHWIskTtMoyhJEJRMjQpV5Z8l6nqMuJXf4VG/UKAMLrMIMLlwrm0iIYaQVltfdC6KhNyUVKc2yOusDx3p19WoWRMdBc/wSM4qGWGAMkFE5ef6yBapz7SBEUwFg2GziPTCo7/RzRyobYXyPc0Z5aQdLmWmYIXrwyrIqU48qmtc0uaZDVjgs0OvNmhUBRvcTlkedoA+glshcZJpVZBOzhZlgw+IfAdIz65gcldDUEMaYvK+3NskHuvlFBsxvKkarvemZF9npiACoA2pA2rUADMtmRJZoFCMbXwz7TvcguWZVQNurAHzMCjQaIAgAOW6cwI+eGi2HmQvfHAAQNuCNcnHkzwSUJwnCfwByYPB8B4MyVdPXmvUgRdDqxcMlfcc4ZIwgCgKZirkqwiGdOiUQomFmlQCyxnljaizQzNdZwfbP+yKqL9jJ0UCSmIfKwKLgH+4tYZvSG3XgoYyhquCnGII5wdWKHwnwmPgMeD48CiwiGRhjoBmTKuFZyRM9Ith6BmWAXLAsbBgx8J4nwHg+EfIICZ7GQ7A6/AC5Zbrjdf8A1GmHDhw4cOHTpw4dOHDp06dOXYMGDBgwYMGDAgwYMG5cOHTl06dO22WWWWWW6HJZQoUKNEg0SdVDpJ+zlhhDX+ewxJFRN3C/v4uAwtzkhLbyEkiClpfWz2kmpL/pFIez9C27FXeqJ/8ACc8BifyDg7quGlee0mNwmpmENdNQrkUErFeLtT1n77Md8l+gsop4mr8ttm1Q7MXp0fZ/lRbMqiEiU9ZZzdL6CcJim6+slEEUZzNqVWfTcr1HcPEiDnwSajdYmBqx+pusQFBP3Ry+NNZiWYyFLi1EMq32wWF+nnfDoIier2TybcTh0Z6hZcEpZtUVSNoVuEzGQtpfMgL7bhUw1rETuQU+iUYwPeZ1MdEqEQC/eEi7QKiMGFArUvcMFRIAhbb8WUlPRtp/nc8BjJj6sUreEpA63aa9JJpe0XUK0mz6PrfAk81rQ9u36f2ZFig68M5nUyeZJWGV31SPSdVzI0gRN7nqdhMVVJHXarnVrNrJ0yNBN/2hc75sCqzaFKX9nRKclPbNlKgxzNSWizdrcmYZdAYIBHlGcrcEdZDBvQgtEb2Q52So13TKunM6yNw6ZUOyu9QippsZLOW2oRtEbfBML9tQTKcjBBeXxLdKqVuVQVXzyQ65SUnbcIquLGdnaNveIUjFkyPNWTZasdCpAu9PIugKEMDlJ6xSQ2EbIpEJSlFbVq09gCpLCGyBKUfni5q5JLmbTZtRQCsEA4yc2lRL9hc1BpuvK1nGmvTnYDD2tI1DTzG/hvGyvov+AUlhZ86Jv6IRAUUu+c3Vm/4cvK5gelrSWomUsm61SlCiFX/m88A8TcFrUSStGHV/7nN5i4YZ3OBYfDtnN/4F4fLtnMZ3O4gE3NZECZ2tUeZ9zzPueZ9zzPueZ9zzPueZ9zzPueZ9zzPueZ9zzPueZ9zzPueZ9zzPueZ9zzPueZ9zzPueZ9zzPueZ9zzPueZ9zzPueZ9zzPueZ9zzPueZ9zzPueZ9zzPueZ9zzPueZ9zzPueZ9zzPueZ9zzPueZ9zzPueZ9zzPueZ9zzPueZ9zzPueZ9zzPueZ9zzPueZ9zzPueZ9zzPueZ9zzPueZ9zzPuQJna1Ruaz/APHQDAAAAAAAAAAAAAAAAAAAAAAGDDDcNw3DcNw3DcNw3DcNw3DcNw3DcNw3DcNw3DcNw3DcNw3DcNw3DcNw3DcNw3DcNw3DcNw3DcNw3DcNw3DcNw3DcNw3DcNw3DcNw3DcNw3DcEC4DCERc8NPg0pSeNnOX5lpSlKRve96UjGkYxpOc5zoUg5sNJ4Wc+T7zve973lFhnPCzlPw6UpOp4aTiFTMz3Tjp8F0CQXAR4NBcI8S/DLjysWPmB4LgzFis4BYeoNEuJJ4eIqp15944fQY1ai3oNon0aHimezl8ZBlMZ6UbgseVTRGGvDL9RjPQneNPZcBepYuZck5sifYvwnxC5JcC4ww6BYpnjKXxoWZdKoyz2lKGsZ9F4YID+zBjoYgCPVIPBD+RUTe4K7nt4fCEuySrbq96PfoBgEwZ9yiAwKyBgVhWJQMsZk3VpX66V2Txzqjp+vJywuhXJSifaN0GzODFR6pR3JrYVUlNS56yUrruR1QR59Vwq3a6FlaFGqGdVR7Cd/BW+rRyh66JSnQnTGeBvE8GC5YeC5AcGE9jBfGgOeDUZ0SdmF3NfhUBxASqaAEN4GY+wlgeoCFt2bnXcY5MTB+QIHIcMwSvUGauoMdrg7cD+DAZJj/AKgKxcydQmoAGFPj9aKWCM+RwQi2CluQAWyHGU8viTEIgI8uhNmP5B7Jl04XhYxppErrEzBfqH9OBIk3JTWxUrIB1xlo61CeVIEdQ66RWxKdK5D2SoVATGc30D1K9k3FwqnQlG58qxgquEfAsR4Lkg/ajmADqpIM2QZSS/jsiESubdr21oBXzEB7g4rZRfUyze+AK8EcLnKNuhYYcyAfeMSDRhZ6kw1/gKCcr7ML8MDvGJW5geC4M+Av6vNgTAcq4i/UEPsKUort0e4m0JBMX5bJ6QHT0LrIAM9qiqYMPhGBPQFCxSAAV3VPQMwfvxaPIQPRpWSABv8AEA9aABFC891hFK0wYw15duAmZxyj2nBVXFBVaZ+5UFCmqkwqz0+4zYvbP9F08uqkvmho5pLfMDXDsUGdnaPZ/MlBGl51ngpRhq9oVxUhcs4z6GdwniPnlg8FwM8ZmKnwCtycBygZ+iYHO7mtjXuzCIdfetDgyFvTLpMXhWAFCSIsgvFZNB0CKrZIZsWpBbIQCbz1BTZDxgwoaYCnD0YKTSSoAiWYHF/2hZuqUuGJvQgLQZqtMpzO8jtsvlgobqVTJDVo/krtvqwLiofyHtjB60IH152qml3EdT5G2vM40Rd6BN4rLuqUk0uhYHCMGH+IFxDRAn9MDLhj5OA6WLtpu7ktcjzWKiwcQSNmU54BoFtPheiLYAXq/AiCANpOqYDcHHGG3aBFdsPPXR7Qbgk7be0owYBwEYXOILICsOwmcVPNPB/gIWDwz4EWrYScCxlrB8hAsscs3ZurIFj0fBCyYuIDJp6yNJVd4ETwHMsDfdlJakDtdw09wQgs2M9ANlXCnaAB0SpPgIBOz+wQhOgHHaqxzC8TxuX4A8Fw9HYsfLCBZkff7KctbDi8lbMHqow+6lUDtAL7rCuSBBeQAbwAi0CVy6agAAbcuxaP0ApSJ6AlHd0x2Amh7EaGTqgUwDVqyoksCzkQMYfAMFzi4FiXC5kTcwgWlUqAFXsSfoBlt1jJFo0KlIBSe6gj+DiggB4HJFolhMcBQriAArKdSNE9FDg/IV1nQ+Vxd5ACKj+gGAus0siUTz7KpgKC4iHgfAcGCv8AgB8DLHZ4xF2L5KA7UgZOi+rYVXUH8kDQVDICxPgAIa27LMPVpU5+IBenaZgtBusDFWB/PSDJVQ5wEz/uFBHoCGnCUsCLcq0ka5+5QCzkUnXADJXVHRzBwAXAQOgdA+A6B4FfknwIWDxIjRdi8GMPmCA5jDEE1JXK+gSX5ZzugCCbp3gACQgpS0gZb9IpLb0yXNXSEn3uvggsJO0HQQawzqUGIbUeLMEUdQpSmKDz/wC1ixa9/wC4SB8JYDB4nw1f8UEMyHwW8wAoio2OAw0DoF7LBxCWnRGWHQlKTYFyLmxpAChDpLkLOppIAJ2ss4SVZ1CvcqBc6AEfvTQMysxL/kBdo4sF6q4m2ORdKukzyJ3uhgjsS06DkIStKIzLBh8QPEuSfCuSj/AAFn7D6rBhlXzCperD0hNT9DIUyQAjwgJDkggBNKg+xKjOgavAqlXYE/BkqqwPS8RYCj6SA2b5irTB8T1BEOauNRRpNZFnqYuT29SdV2IH/AmAj5nUnpIVXazq36EECkWRL/ewGLlOAxaWsV+CB9HAHwnzQA5ObBFUUIWQRCROrBeoItxIFPKwAUpouBkLUIsmeEBFMDhgWns1D8jBwCpN2QZraViHg1MzvZlIudRZ83D2BRZTKcIJ5TU2Qy3iBwbzZ1FJsIHi2cBaf0FnCZ7MEoy8YC1iuaQWAsrOEzLgYx58sAcxWYSZdfBSFZVgn1+718Aj4RSg4F0gF9b6xdShNk+gZAV321foB/dwRLT4LncIv3ASgCGvakLMlhThowZ29HrRtPV3vjVabZSUbFqhjt5BhexKmKrP0gYope6Nua0dwMzhDoqMm2isGTcI6jLVC34dNHSytJS/gS8yA6spTmll5VI1UVUJACx9i8z/AIMheXvoMpWujMTJgz5R9SBaxXMLAsFtlw5GfAxjLuWAWUZePVVCNoIxZhQgyeZCwRQHTi0QiUDPBPmFPoDqnoQPLwbgg3pBdbgBouKAoAL1n+qBWtqAFHM6aDEOiY8AhIphvC6mIR9chMqzD7v59a0si+aLjdTIz0tR0gVIQr5jUPDMTKBXPLRTRUVZUoSibzZS9GcxHkb6pRDsuKfcWVQwYRhD456t2glOcEOVIIp5jtqsioT3JM8VFUU93k0gU7Gd+ASe8JNtpF/dVlNIC1iuWWBh4oh4PiYy1ywCzqtPUNOqaJCjFL6hYhYWwRN/wBCaBFFRB/41M/KT/Z+A6V+tSlC5TM0Peez7CogB/j1hz/4CH+NDUL5C0DRpdPpipTVi4B4vhOjhtLWK5RYjDHgWOQx8Dwv/ABgA5cbMuBlcZaxXJLA8VuOWLM+Exl/IAH0+gvwj4g+MtLWK4yBYmLMHwHgyMx8BjL+UAHLnlw+IyuQtLWK4iwHxFw8Mx4ZYPgY+ZAHZAcrFy0LohY2qOuO2nSzFDEDDQZdXrY93raXqOS+EwwyHyVpaxXAUhYHieBlLgzHyDGXcsApCd02lZL9ispUl9m4HMQzmhIVA+Paiq9SMqPEGo3dGiaytxmJ4GHgWD5YtYrEguHLE8EWBMQeB4PgYy7mgFJxWLE8L55aWsVgXGz4CJ4MQ8Hg+B4HywCjyX1XzuGQUZM6OxDO24OnZEelwEc/zgnuUij0uENrftwOyI9LgIp+3B07CPS4Qf+4nB07Ij0uATKvG7EFBDSLA6HUolilRaj6JG6lCMAW+WhUebsYKQztqUhwegpJeh0oy5RPRTnyuITgqu150/Fs2S3vi+etLWCpFyB4PCMLWKM8DwfGPlgFEKoTMlLaM26yIVQmZKW0Zt1kQqhMyUtozbrItVJmSltGbdZFzVRTJ0s1N3Yy0NPRacnzjUUCbUfgzmFXuE3yd0jVN5UjqhFAUCJBxkrklIEgFiFOpNxFBmyZPLhHVtKmTaVrliZ8+0qCBcgenAMWYZXE/xUAouV7PwEC5oAjhuxfKDxfKQKLmC7moFXyzFwLMTd+I+FSyrUDGXYvnECmeD4A+aQKsXNBlx3xi+FixUKejEK7v3VP02SCjaAaz8IIVBsP2Fx7Qw77oUql9S5YgfT6chhhYj/BMN5E3ByRhcLLMHRwHgeKXEfVUVpr3GZxIomUU7MMDZWy620onIV5VUekNuuhWfAh2ZIs+eRJTFmyE4vloDF5XXL5WM4cFmqCzZYNnQ5f0Op2LUcACTJl637HStVDNFsqrSugfd9dK/lGu8Tu18P3sSqwCQaSi+J2h6qIXo+xQkuRKUrWaRJVECkPKgeQFyf1cp4ZnObAvWvS5YFDhOCpahRVS1a1c7FHTGtWV6655vIgVWntoMS9YAX6/bX4lkf8ARO6qL6h6oVzUAj5yYTymCdk8RckSTOJ4MX+0R+8D9AQwjLWjRN0TX+EOE2hIigE+D5SbN/Sp6b0iTj9Rix8pAoRXNeVkc9VP9RYsyDHWzaishCO1KVGqqsUc8wwDWmB+zaiv+QuaVzgytks4sJHsbC664CgRvyioOTfNUHvBUXtUiUiAIvo3kvgZAOT/ABljjh44oZCyOlW0/gJKcqZNFZBwvqEC+libjPZUdHMSXVzh6x9GssrsrWyDd5Wq+iioJc5pz9TTltCqoJ8+jxFZJYRyHjDxeD4F/FhSNGqk01mlksbQ/TUJL3GS/TUy6MG69RvQirMmUtTq67j6xibImi3cWXcWLHy2BQE8HJgz88s1HKKnlou0oFyaUobetOoxE9+SizJh7nPQitucyltiymJegfoqmSS60iJaXoKITt7LIIybJSG90icGPWEM7HiEvXRyHgYeBcB4PF1y26CeLPJ/UDm0q4gi8Qt539fwwJt0qedDI+6cJ8eBScYf1yBJOVMUwJKl5XmGh7U5vLxbER9uSd1HZ/JpoKvkOvVaFvkk7i3kjLqzNFnFojqiAhGkmTKYCsChfO+5qxNKCkTVNebyTrjOTYSKJNm1ZtRSFREso0WUQsqVMa4YAsMhDljYG98B31JzGqdRtqudnvIG2L7SZml+6YAgBMczNZJZbKCL0rc7zswE/CnLcEvhAVfpswIxk52ecmBJ6TgeDxY3YKO8HsRr6wMnmbr2KpW8r2WbPQhRXocshTqFLDSzN1Ri9AJz9QpjbB1mKXMyqbche+gGtXbDkNPeBb3IEZjD5eBRd1k8qt2SfQFSDmTczUQ3Ii6lkSUm29e4BF1uvz1AFarvJBsMqZJeoflaBPkNC/ZTRDOa6HkdCZDAIq5lU0mwQbzSIso5htRc/sJ5IWX3Fz8rPDaCEw0oLkkyEWDPCcbsHqV4iavnKdMNr+ct9BAuWTjHg8XwDJSGOH9JwuVEQPLbm94i0xlLhkawz6DOu6H9QVv9eE7aEsXKU4MEl+qoYuqMiHVIYpMcySlc4NevVclclzA5RLzISl1wHzMCkYhY1o5BkSC4X5sHxh4PjHVi8D5GBSBBIEYaAzHpAb8owJ4xAbBsYbBDALng6x8DqweL4DGPgYfIYDBH1NiIbwl2n/wMft2hn4o/FYaPwWOrV+Pw0fj+LJq1atX4LD9+APwR5n2j7Bcrpg6dOnTp0wfij8fwbOnz8cfgsNH4/DV+PPxx+Ox8eP7T8nhi8EXju8+334jTfR7z6PefR7z6PeMM1gYZkUeYdfX/AJEMYDCEbaEhLa9I/vL/AEf3vOFP+/i4DD6Li5Tc1b9LDhIUfCgl+12U33hUMyBJYJa63n05SGNoSzE1auSST4b2/wBTngMOgqGeiCo/rQ0vQ21XhEVpsCh4VtdpL6/QgQ4rTokSaZCBMYic07011wOo1gqzQ+4lblJMyyJo2n0F0TrOVw1HaAXFSSq7WZROoWVpcWrc4UrTdA0J5hq06t0JQCouh4rdryod1U0KDFEIOWQCIblBbreiHavQnXqCdGwsrPIe7k5CNUFKlp6YCHCOon/dqUPcEuoJt+SpkVX8oNLO1LAgLdZXIXkH5wtVms91WhJ4ql0abQeGiTTY0yAjGv6hqnMh3iV7D8XVkZhqHsbIcd9tJ0enMoEWOp3J7a6E1ZEDzc7hFWmWWonKtD89zeBmJiKg5WV1qOdsjUyHKzVWpJRAdHcXUVK83AY2HpSnv3oNJjmJ3S/4sBetnRtjT6Xcm/1qezLB9LkRifC9vKLsZbFSEildE3ieomgQT8DIX2ateUapJ7sr1pYbIuryIZt1Wo9SUaGkikQSwxgOp7qm9PqJVBcOJOSRASayJIq0CUXSqLnLYqqEkyBtiPraP4ARNB4EG5tan7KDjjupgFF9FCCG+sS5M01VghidhE5sLzCIilAihQTFV6WJiFLXvWxEiK9qUyU07FqIwNC2Wd4iIhDUOsjLi5qMVyRCVBLoIgKWYCyiGrgI5CwZ9zpQShJaDQFDpFj71kKqkZMNwPeHGvmxb+ff8/nW6er3LMaDeVrPV5jSyQ1nWF+bgMdVg86REBdJzXRyS2MIk0CEp6uekG//AILngFtrGKCVb/Vf2topeiP45jgl2FcLGAmQjC/X9PVCYp97tH3T4PunwfdPg+6fB90+D7p8H3T4PunwfdPg+6fB90+D7p8H3T4PunwfdPg+6fB90+D7p8H3T4PunwfdPg+6fB90+D7p8H3T4PunwfdPg+6fB90+D7p8H3T4PunwfdPg+6fB90+D7p8H3T4PunwfdPg+6fB90+D7p8H3T4PunwfdPg+6fB90+D7p8H3T4PunwfdPg+6fB90+D7p8H3T4PunwfdPg+6fB90+D7p8H3T4PunwNCn2u0Thfr+noiJcQmTLG02m02m02m02m02m02m02m02m02m02m02m02m02m02m02m02m02m02m02m02m02m02m02m02m02m02m02m02m02m02m02m02ky3HkG0BtNptNptNptNptNptNptNptNptNptNptNptNptNptNptNptNptNptNptNptNptNptNptNptNptNptNptNptNptNptNptNptNpoOHB4bnhCnb/Bqqu36qqqmZmZiKqIqqqqq+ln0sb34NTMxJJ/LM2m/wCz7Wfez6Xx1VUV0x0QUlUw1iyzoApY9TXieC/LHBYvB8sMf8hzIZtbPnLR27/ZG8AZHQlwHyVT6zdyWXu2i7rBjLFEbH3giEC4hoXEPBBfgZclycD5SwSmSR+YeiJ8NJ7NcQKr5U+Giyy3tl6PqSzIksM5wr5eBR+EJTcDG9KrYPWtdqvFBBWCSyOuEKdBX0B0FLuBQgJXySYuaH9jwKkzOBoTgZ6md/ATp6I7r8FpcE4C4J4UqkMe+nsMwPS2+T/wDLqH0W48NU8LDKTxIOeDE3EeR2FiZlYoBnO4aou6OB3Rh6ixRcwyCvaRVLZGqOBAr4fQVxZ0ObTULSQQz+4zvJTLp/siXVywr3nNwqHhQeSkSyRR1hhLERzyW6kBwew4cL2NKCDPmL0huWTdWHR3CiaKAFMz7SglC1Nms6jgWDcOBmQ6uShxN0HTCwjLV6uU/wC1K4nrJkdlMrJbjGa7cwAOhK2BODyVk1eVUBbCwQ+4RFCD1nKaJpjF6Rp0w9DjVWfqBQ39gi6SuB6wrDPKQqxQjWAI67ZL1jfsnFm6jqNmMqL1qF0RqdE5hIFv9+NXbgh/0bouDIqtmrp/ZksGdqgksjRL34ZGHgxkMKjlHN0epXT5ni/J7CuQxqor78X564j/AEFcMR82gOxE+Nf6gHXwaR5kgVMLXRSGq2Q1qBZjwH3WnFeRbbTsZG6oWLQ1TKNskllONezwRGJmM3lZqAdaFE8klNOvR2JFsnapWE41Ly6ofODCouhVU1YEd1UphZiQ6DpIvgSMTJBVeyqJAqmvjKSyKpRWDzG9NDP7ZuaEbb/4QiLdO2pFMJaqlSgr05iYC88oqtoCa9RXUZSBnX01qA/X3472/ETWp1XMf8YUn3XB5qObACFldYg8CGrO4E81IfaGgRsStysByKePnQkVTTezwB0W2QGGpMRSvIBOy9KBEbwc5DEOhDDxlJqWZ1yUjiaFYOrlj7I6+5QtQhnCboVHDR3KOoRKpmazKrtBfVAXfzAMpVlFRQVQmFGkLoYX8jNAWftpiD6qh9epm4LJJdl2ELPdVEdhv4lbRaN5DkJR4RtxHsRt3VdIpShQ2mUogVVAeZZRZBppWxKieQQ2zXrpuqVcUOCpKC+1xSMbV6FIAnyNsuos5laEU3gDu5O7jVN80wVmkDTypLPR1IIA0m1k28tDMdox4F6cBNDVdUncUMP0TvqkawJalmxpNLaPErdWrxaT04fERODHysB3JY192sTICfmp9cj5Gdz0AF6gDrdzLbEyMkgAj6BfPEKB9qL0C3gfdacZd+3WanSTIlAW/hpO7xFykSi/icd9aoctBN7mVaVmcUH6Pxjsp9Q8xwdftxWZw7qRvisMarvNnXldSLT2JK5CbNKXuUWDEm3TlzVEhjaQVSVNVa4lKwqNJGj3dMMcui4SKVCF7S26kN7A7ejtHJMXkby+w1YmFVRVehOsyqbeJT0HqVa1SzioCN/YV100pW9VSIixU1i6GXLtHVKG0Zv4OIEZy+JB9lWmAYx8nApPgyyXNQLgjmqAgC4U2jXAUUerMD0KCalZgDCuphne5xqqeaWRfN0QzJMEjDDoWW5NLSYrDKLqy7zBQrNXPoFJUjYw03QacqkDQfABsjFc4pmLebVCKrWsiP3gapS7u1LjUphYlq33aCnVC5iqMLCxuCqojqWaItD+jhxMUUIm79XE/sEFmRhYpWHbPNbEGx5tiuLU0ZDJc+H641eKbFl+RrodL77+2OG8ikq9qvrZatbQw74FtR9PJWxiRQqmcm10opXQK0Z3svzZTQaCjUznNwpeoaWX6IiJvKCO5LQS8vauaUUnNA2LuR8Md0iQph0/fWjJ7DNph+Xa0T4FovAkAI7RLThArkyMpW/EBYdABSHzyBblUrSJKAL4ROGBlGpoaTZkAgctsm6I8w/QChLAxMeJUasZzb6U5aq9HGpCemNr3MKmQkMYYgmZXqlk6EJbdfdXYAAYbOkr8SkE5gXwHm/yxUYRxdnd62Xc6e7teDm4KYrNjeOq3WE880YVWZNUsdGhSYElql/oeZh7E+Cj9WSOsWYlsKss/nSFKpUMAADxV8UxhaXppyzKWW2RxNBIGR5MIsTd9wNXmwr7pqqqXyEql/iqnRv4TeyVtSWSbNIPXaa2mXVGws4dHApRCB2pZp5qIWY06BXviHKOzTIvQrx1fhVg5zVSN46KxW6Ls2YA5lTd2d1nruD0AabDBZdVjgMnTL1keUgAde8QJhhic8UC0lWNNQwLfIQjdThWzekTbsPKogECCLouPtdOCCkhmVPr+/rwJOAKMaS1JgCxOoQVoMdkr+sEJ3okMksi4G7ePb5rKtZhIC6cmhmiBlQDYju1ODKWBCxZJqb8mMKYRTDzYKnXkAHGaEHWh/GEbgD5iA6iSwHXuD6iLIsgdRtWApgfJqQz/T6ggisF9LTiuJkMPjRX5pDoIwtjToE3t6X6g3P2yAJJJJHyb/5kGtGK4pKFPmhAcwSQIeVaPCgV3vtQIARrVjCw8sDMpyTRzpCQKXAkgQbXDKlwFgTHxpc5lgtJhhT7NAPG9NCJ3vmETgxXV18QRlH4EgCwROJgmkToJQQWrA+F8nXyHznxlBwreLeCzofiuMChAI4VNh6wNqwpT4aQQhsYri8DxLnFwaITBPkPoFgBeAqgwfMAFNOAJUbCpYUkXA9oOFpAKmNGswEsNEYUVuXCyHRJUlyKQqD7uo400rq8ZE/wrpk9PzBI0+k1eYkA7cobytQ0hU5AZql+m24On5ijsak5tdIuPlWURpWVEqhmeDLBC1iueM8CHAVjTAS4JYPgZ8oAsRQwTkiEkMVWPYl8ukAHQCwXAdhYMI+y04sgBLB9Er0Hi58qvrJnoWGpxXkraEe8oE8JkqeidcmBlKOAPtO5mJZhbbPFUu2qGIHiC0tYr8ASvUmTiMeLPB84AO+AWugKT9Qw82DwqIIxAlmE6CfCUw5S3gPEtYrmFgEJXqOScDxHwsY+MCzxm1cxJEaUtZL9RC/4BE0RAAIR9TQxCpgIiCEBQsACoE4NRPjOV17n8DNI2usIiR1GMtQ/W2onLK6AzmKC1rXKr1i/fPRWPXKUl9RhGuR00DQTHSDLZSc1Hc+ZIvrSTuLOR1tV9RVyFDCm2iSpAqOcS414iXS1gVamPu2q6KgbcVG49Iyrqqa63NZSTV1CFLi59rQfjDXpVrH0zPEO+JcwAAACKOpEK2JGImT04NszPTHKHS/Z0v2PPSAs/wD8U8ou55Rdzyi7nlF3PKLueUXc8ou55Rdzyi7nlF3PKLueUXc8ou55Rdzyi7nlF3PKLueUXc8ou55Rdzyi7nlF3PKLueUXc8ou55Rdzyi7nlF3PKLueUXc8ou55Rdzyi7nlF3PKLueUXc8ou55Rdzyi7nlF3PKLueUXc8ou55Rdzyi7nlF3PKLueUXc8ou55Rdzyi7nlF3PKLueUXc8ou55Rdzyi7nlF3PKLueUXc8ou55Rdzyi7nlF3PKLueUXc8ou55Rdzyi7nlF3PKLueUXf/yVOOCP99kyEnqzpDpDpDpDpDpCXVI6GWj/AH/3XA1DMJIdV/03F1xeUn+/+2xXvnoQE+PXbsX9MjRGWk1mjU7TUuq1WPw/g2zNuxsTMwT/AMq/nOFWlSn45lXTfSLVVG1X1Fl+ItHYpfKTqJ673T8ArrspfNQ+siwBbuZzdfxP22KxVs+6+pDsh1RBFQ6MVwFLWut5mdbFsPh/BltfCKyuzIsuG+K3ch0nq1wlC1MqF+g2l834ZoTbmmg57B5oRDMs3qD36FItVMM0h5tZk+ovZ1HVXYl90X4n7bghy1pZK2TDJRaIBKhsxWye+Pw/gr9aGK9a5nJkQ5gZ+q6ZC/bNkS0mjE5roo32TZH4iPUworVnnR+ySm2dC/VkK+vWiK5Mc+tqjEC8VVE/TRfiP23Jt9P4M85aCCWjoIWkij1Bu5OyvauaKBSkI/FV2z5C91Z+w6MM/r7s/FakTzGUNcZJtwC+3f8A4Fqv6INFdcK5pF7w/wDwcj4MQqPyEClr7krF7EMt/wCZv0JIgsibknCEJ+MxvK0sprlqWOzVWtKE/wAJ6oqiW4U0EzllDzOVXVKo6Gklq1njHokVLqd7Ykr3GdOoCKU3FlVUV2VNyUjz/BXSWzo6F8jSnSsSlB4LPQSrRJ1QeA3kV11urClcPISx9laLQ/xCFKZLtp66L4FmJ8ubTI7KU5T/ABaDUc0pTN3RMUFohQl1davIRVdd1ppq++CtZNpuxvPorXHe2njrkqq93nA91FbWaVFRE7V1/CR0MrpllIUnoLnAHDW/+UPoqGbPHTrGgmYhaYx01Do/uyTL419sZWipXgqeuOYRTX4MZb1cOLvQJ23ppOqerrlYagW7ZdruC+HiVbWJ7/qBV1Vruqnapb2BP2H179LIY14agpXryf4oV69evXr169evDh9fTyD08g9GP897evXr169evXr169evXr169evXr169evXr169evXr169evXr169evXro663hauLv8A1tevXr169evXrrWurd1XTOgoqWfhufPnz58+fPnz58+fPnz581rXVs6rpHUUVLP9VH7q/nmGxbT8MgQIECBAgQIECBAgQIECBCP3V/PMJi+n/o//2Q==;" vertex="1" parent="1">
          <mxGeometry x="160" y="50" width="189" height="420" as="geometry" />
        </mxCell>
      </root>
    </mxGraphModel>
  </diagram>
</mxfile>
